<?xml version="1.0" standalone="no"?>
<!DOCTYPE svg PUBLIC "-//W3C//DTD SVG 1.1//EN" "http://www.w3.org/Graphics/SVG/1.1/DTD/svg11.dtd" >
<svg xmlns="http://www.w3.org/2000/svg">
<metadata>
This is a custom SVG webfont generated by Font Squirrel.
Copyright   : Copyright c 2007 by George Triantafyllakos All rights reserved
Designer    : George Triantafyllakos
Foundry     : George Triantafyllakos
Foundry URL : httpwwwbackpackergr
</metadata>
<defs>
<font id="webfontB9N1cFIl" horiz-adv-x="1228" >
<font-face units-per-em="2048" ascent="1638" descent="-410" />
<missing-glyph horiz-adv-x="500" />
<glyph unicode=" " />
<glyph unicode="!" d="M373 49v103h49v47h102v-47h49v-103h-49v-49h-102v49h-49zM373 434v105h49v90h-49v102h49v90h-49v103h49v49h102v-49h49v-103h-49v-90h49v-102h-49v-90h49v-105h-49v-47h-102v47h-49z" />
<glyph unicode="&#x22;" d="M332 629v102h49v49h102v-49h47v-102h-47v-49h-102v49h-49zM526 821v103h47v92h-47v102h47v47h103v-47h49v-102h-49v-92h49v-103h-49v-47h-103v47h-47zM719 629v102h49v49h102v-49h48v-102h-48v-49h-102v49h-49zM911 821v103h50v92h-50v102h50v47h102v-47h49v-102h-49v-92 h49v-103h-49v-47h-102v47h-50z" />
<glyph unicode="#" d="M-14 242v102h49v49h102v-49h90v90h-47v105h47v90h-90v-49h-102v49h-49v102h49v49h102v-49h90v90h-47v103h47v49h103v-49h49v-103h-49v-90h92v49h102v-49h90v90h-47v103h47v49h103v-49h49v-103h-49v-90h92v49h102v-49h47v-102h-47v-49h-102v49h-92v-90h49v-105h-49v-90h92 v49h102v-49h47v-102h-47v-49h-102v49h-92v-90h49v-103h-49v-49h-103v49h-47v103h47v90h-90v-49h-102v49h-92v-90h49v-103h-49v-49h-103v49h-47v103h47v90h-90v-49h-102v49h-49zM330 344h92v49h102v-49h90v90h-47v105h47v90h-90v-49h-102v49h-92v-90h49v-105h-49v-90z" />
<glyph unicode="$" d="M-14 49v103h49v47h102v-47h90v47h103v-47h92v90h-49v102h49v90h-92v-47h-103v47h-47v105h47v47h103v-47h92v90h-49v102h49v90h-92v-47h-103v47h-47v103h47v49h103v-49h92v92h-49v102h49v47h102v-47h49v-102h-49v-92h90v49h103v-49h92v49h102v-49h47v-103h-47v-47h-102v47 h-92v-47h-103v47h-90v-90h49v-102h-49v-90h90v47h103v-47h49v-105h-49v-47h-103v47h-90v-90h49v-102h-49v-90h90v47h103v-47h49v-103h-49v-49h-103v49h-90v-92h49v-102h-49v-48h-102v48h-49v102h49v92h-92v-49h-103v49h-90v-49h-102v49h-49zM-14 629v102h49v49h102v-49h49 v-102h-49v-49h-102v49h-49zM760 242v102h49v49h102v-49h47v-102h-47v-49h-102v49h-49z" />
<glyph unicode="%" d="M-16 49v103h49v47h102v-47h47v-103h-47v-49h-102v49h-49zM-16 629v102h49v90h-49v103h49v49h102v-49h90v49h103v-49h49v-103h-49v-90h90v49h104v-49h47v-102h-47v-49h-104v49h-90v-90h49v-105h-49v-90h90v49h104v-49h90v49h103v-49h49v-102h-49v-90h49v-103h-49v-49h-103 v49h-90v-49h-104v49h-47v103h47v90h-90v-49h-103v49h-49v102h49v90h-49v105h49v90h-90v-49h-102v49h-49zM135 731h90v90h-90v-90zM522 152h90v90h-90v-90zM563 821v103h49v49h103v-49h49v-103h-49v-47h-103v47h-49z" />
<glyph unicode="&#x26;" d="M-14 242v102h49v49h102v-49h49v-102h-49v-49h-102v49h-49zM-14 629v102h49v49h102v-49h49v-102h-49v-49h-102v49h-49zM180 49v103h47v47h103v-47h92v47h102v-47h49v-103h-49v-49h-102v49h-92v-49h-103v49h-47zM180 434v105h47v47h103v-47h92v47h102v-47h90v47h103v-47h92 v47h102v-47h47v-105h-47v-47h-102v47h-92v-90h49v-102h-49v-49h-103v49h-47v102h47v90h-90v-47h-102v47h-92v-47h-103v47h-47zM180 821v103h47v49h103v-49h92v49h102v-49h49v-103h-49v-47h-102v47h-92v-47h-103v47h-47z" />
<glyph unicode="'" d="M526 629v102h47v49h103v-49h49v-102h-49v-49h-103v49h-47zM719 821v103h49v92h-49v102h49v47h102v-47h48v-102h-48v-92h48v-103h-48v-47h-102v47h-49z" />
<glyph unicode="(" d="M377 49v103h47v90h-47v102h47v90h-47v105h47v90h-47v102h47v90h-47v103h47v49h102v-49h49v-103h-49v-90h49v-102h-49v-90h49v-105h-49v-90h49v-102h-49v-90h49v-103h-49v-49h-102v49h-47zM569 -43h49v49h103v-49h47v-102h-47v-48h-103v48h-49v102zM569 1016v102h49v47 h103v-47h47v-102h-47v-49h-103v49h-49z" />
<glyph unicode=")" d="M377 -43h47v49h102v-49h49v-102h-49v-48h-102v48h-47v102zM377 1016v102h47v47h102v-47h49v-102h-49v-49h-102v49h-47zM569 49v103h49v90h-49v102h49v90h-49v105h49v90h-49v102h49v90h-49v103h49v49h103v-49h47v-103h-47v-90h47v-102h-47v-90h47v-105h-47v-90h47v-102 h-47v-90h47v-103h-47v-49h-103v49h-49z" />
<glyph unicode="*" d="M-18 629v102h47v49h102v-49h49v-102h-49v-49h-102v49h-47zM-18 1016v102h47v47h102v-47h49v-102h-49v-49h-102v49h-47zM174 821v103h49v49h103v-49h47v-103h-47v-47h-103v47h-49zM367 629v102h49v49h102v-49h49v-102h-49v-49h-102v49h-49zM367 1016v102h49v47h102v-47h49 v-102h-49v-49h-102v49h-49z" />
<glyph unicode="+" d="M-14 434v105h49v47h102v-47h90v47h103v-47h92v90h-49v102h49v90h-49v103h49v49h102v-49h49v-103h-49v-90h49v-102h-49v-90h90v47h103v-47h92v47h102v-47h47v-105h-47v-47h-102v47h-92v-47h-103v47h-90v-90h49v-102h-49v-90h49v-103h-49v-49h-102v49h-49v103h49v90h-49 v102h49v90h-92v-47h-103v47h-90v-47h-102v47h-49z" />
<glyph unicode="," d="M176 -43h49v49h103v-49h49v-102h-49v-48h-103v48h-49v102zM371 49v103h47v90h-47v102h47v49h104v-49h47v-102h-47v-90h47v-103h-47v-49h-104v49h-47z" />
<glyph unicode="-" d="M180 434v105h47v47h103v-47h92v47h102v-47h90v47h103v-47h49v-105h-49v-47h-103v47h-90v-47h-102v47h-92v-47h-103v47h-47z" />
<glyph unicode="." d="M373 49v103h49v90h-49v102h49v49h102v-49h49v-102h-49v-90h49v-103h-49v-49h-102v49h-49z" />
<glyph unicode="/" d="M182 -43h49v92h-49v103h49v47h103v-47h47v-103h-47v-92h47v-102h-47v-48h-103v48h-49v102zM377 242v102h47v49h102v-49h49v-102h-49v-49h-102v49h-47zM569 434v105h49v90h-49v102h49v49h103v-49h47v-102h-47v-90h47v-105h-47v-47h-103v47h-49zM764 821v103h47v92h-47v102 h47v47h102v-47h50v-102h-50v-92h50v-103h-50v-47h-102v47h-47z" />
<glyph unicode="0" d="M-14 242v102h49v90h-49v105h49v90h-49v102h49v49h102v-49h49v-102h-49v-90h49v-105h-49v-90h90v49h103v-49h49v-102h-49v-90h92v47h102v-47h90v47h103v-47h49v-103h-49v-49h-103v49h-90v-49h-102v49h-92v-49h-103v49h-47v103h47v90h-90v-49h-102v49h-49zM180 821v103h47 v49h103v-49h92v49h102v-49h90v49h103v-49h49v-103h-49v-90h92v49h102v-49h47v-102h-47v-90h47v-105h-47v-90h47v-102h-47v-49h-102v49h-49v102h49v90h-49v105h49v90h-92v-49h-103v49h-47v102h47v90h-90v-47h-102v47h-92v-47h-103v47h-47zM373 434v105h49v47h102v-47h49v-105 h-49v-47h-102v47h-49z" />
<glyph unicode="1" d="M-14 49v103h49v47h102v-47h90v47h103v-47h92v90h-49v102h49v90h-49v105h49v90h-49v102h49v90h-92v-47h-103v47h-90v-47h-102v47h-49v103h49v49h102v-49h90v49h103v-49h92v49h102v-49h49v-103h-49v-90h49v-102h-49v-90h49v-105h-49v-90h49v-102h-49v-90h90v47h103v-47h92 v47h102v-47h47v-103h-47v-49h-102v49h-92v-49h-103v49h-90v-49h-102v49h-92v-49h-103v49h-90v-49h-102v49h-49z" />
<glyph unicode="2" d="M-14 49v103h49v47h102v-47h90v90h-47v102h47v49h103v-49h49v-102h-49v-90h92v47h102v-47h90v47h103v-47h92v47h102v-47h47v-103h-47v-49h-102v49h-92v-49h-103v49h-90v-49h-102v49h-92v-49h-103v49h-90v-49h-102v49h-49zM-14 629v102h49v49h102v-49h49v-102h-49v-49h-102 v49h-49zM180 821v103h47v49h103v-49h92v49h102v-49h90v49h103v-49h49v-103h-49v-47h-103v47h-90v-47h-102v47h-92v-47h-103v47h-47zM373 434v105h49v47h102v-47h90v47h103v-47h49v-105h-49v-47h-103v47h-90v-47h-102v47h-49zM760 629v102h49v49h102v-49h47v-102h-47v-49 h-102v49h-49z" />
<glyph unicode="3" d="M-14 49v103h49v47h102v-47h90v47h103v-47h92v47h102v-47h90v47h103v-47h49v-103h-49v-49h-103v49h-90v-49h-102v49h-92v-49h-103v49h-90v-49h-102v49h-49zM-14 821v103h49v49h102v-49h90v49h103v-49h92v49h102v-49h90v49h103v-49h49v-103h-49v-47h-103v47h-90v-47h-102 v47h-92v-47h-103v47h-90v-47h-102v47h-49zM180 434v105h47v47h103v-47h92v47h102v-47h90v47h103v-47h49v-105h-49v-47h-103v47h-90v-47h-102v47h-92v-47h-103v47h-47zM760 242v102h49v49h102v-49h47v-102h-47v-49h-102v49h-49zM760 629v102h49v49h102v-49h47v-102h-47v-49 h-102v49h-49z" />
<glyph unicode="4" d="M-14 242v102h49v49h102v-49h90v90h-47v105h47v47h103v-47h49v-105h-49v-90h92v49h102v-49h90v90h-47v105h47v90h-90v-49h-102v49h-49v102h49v49h102v-49h90v90h-47v103h47v49h103v-49h49v-103h-49v-90h49v-102h-49v-90h49v-105h-49v-90h92v49h102v-49h47v-102h-47v-49 h-102v49h-92v-90h49v-103h-49v-49h-103v49h-47v103h47v90h-90v-49h-102v49h-92v-49h-103v49h-90v-49h-102v49h-49z" />
<glyph unicode="5" d="M-14 49v103h49v47h102v-47h90v47h103v-47h92v47h102v-47h90v47h103v-47h49v-103h-49v-49h-103v49h-90v-49h-102v49h-92v-49h-103v49h-90v-49h-102v49h-49zM-14 434v105h49v90h-49v102h49v90h-49v103h49v49h102v-49h90v49h103v-49h92v49h102v-49h90v49h103v-49h92v49h102 v-49h47v-103h-47v-47h-102v47h-92v-47h-103v47h-90v-47h-102v47h-92v-47h-103v47h-90v-90h49v-102h-49v-90h90v47h103v-47h92v47h102v-47h90v47h103v-47h49v-105h-49v-47h-103v47h-90v-47h-102v47h-92v-47h-103v47h-90v-47h-102v47h-49zM760 242v102h49v49h102v-49h47v-102 h-47v-49h-102v49h-49z" />
<glyph unicode="6" d="M-14 242v102h49v90h-49v105h49v90h-49v102h49v49h102v-49h49v-102h-49v-90h90v47h103v-47h92v47h102v-47h90v47h103v-47h49v-105h-49v-47h-103v47h-90v-47h-102v47h-92v-47h-103v47h-90v-90h49v-102h-49v-49h-102v49h-49zM180 49v103h47v47h103v-47h92v47h102v-47h90v47 h103v-47h49v-103h-49v-49h-103v49h-90v-49h-102v49h-92v-49h-103v49h-47zM180 821v103h47v49h103v-49h92v49h102v-49h90v49h103v-49h49v-103h-49v-47h-103v47h-90v-47h-102v47h-92v-47h-103v47h-47zM760 242v102h49v49h102v-49h47v-102h-47v-49h-102v49h-49z" />
<glyph unicode="7" d="M-14 821v103h49v49h102v-49h90v49h103v-49h92v49h102v-49h90v49h103v-49h92v49h102v-49h47v-103h-47v-90h47v-102h-47v-49h-102v49h-49v102h49v90h-92v-47h-103v47h-90v-47h-102v47h-92v-47h-103v47h-90v-47h-102v47h-49zM180 49v103h47v47h103v-47h49v-103h-49v-49h-103 v49h-47zM373 242v102h49v49h102v-49h49v-102h-49v-49h-102v49h-49zM567 434v105h47v47h103v-47h49v-105h-49v-47h-103v47h-47z" />
<glyph unicode="8" d="M-14 242v102h49v49h102v-49h49v-102h-49v-49h-102v49h-49zM-14 629v102h49v49h102v-49h49v-102h-49v-49h-102v49h-49zM180 49v103h47v47h103v-47h92v47h102v-47h90v47h103v-47h49v-103h-49v-49h-103v49h-90v-49h-102v49h-92v-49h-103v49h-47zM180 434v105h47v47h103v-47 h92v47h102v-47h90v47h103v-47h49v-105h-49v-47h-103v47h-90v-47h-102v47h-92v-47h-103v47h-47zM180 821v103h47v49h103v-49h92v49h102v-49h90v49h103v-49h49v-103h-49v-47h-103v47h-90v-47h-102v47h-92v-47h-103v47h-47zM760 242v102h49v49h102v-49h47v-102h-47v-49h-102v49 h-49zM760 629v102h49v49h102v-49h47v-102h-47v-49h-102v49h-49z" />
<glyph unicode="9" d="M-14 629v102h49v49h102v-49h49v-102h-49v-49h-102v49h-49zM180 49v103h47v47h103v-47h92v47h102v-47h90v47h103v-47h49v-103h-49v-49h-103v49h-90v-49h-102v49h-92v-49h-103v49h-47zM180 434v105h47v47h103v-47h92v47h102v-47h90v47h103v-47h92v90h-49v102h49v49h102v-49 h47v-102h-47v-90h47v-105h-47v-90h47v-102h-47v-49h-102v49h-49v102h49v90h-92v-47h-103v47h-90v-47h-102v47h-92v-47h-103v47h-47zM180 821v103h47v49h103v-49h92v49h102v-49h90v49h103v-49h49v-103h-49v-47h-103v47h-90v-47h-102v47h-92v-47h-103v47h-47z" />
<glyph unicode=":" d="M373 49v103h49v90h-49v102h49v49h102v-49h49v-102h-49v-90h49v-103h-49v-49h-102v49h-49zM373 629v102h49v90h-49v103h49v49h102v-49h49v-103h-49v-90h49v-102h-49v-49h-102v49h-49z" />
<glyph unicode=";" d="M176 -43h49v49h103v-49h49v-102h-49v-48h-103v48h-49v102zM371 49v103h47v90h-47v102h47v49h104v-49h47v-102h-47v-90h47v-103h-47v-49h-104v49h-47zM371 629v102h47v90h-47v103h47v49h104v-49h47v-103h-47v-90h47v-102h-47v-49h-104v49h-47z" />
<glyph unicode="&#x3c;" d="M180 434v105h47v47h103v-47h49v-105h-49v-47h-103v47h-47zM373 242v102h49v49h102v-49h49v-102h-49v-49h-102v49h-49zM373 629v102h49v49h102v-49h49v-102h-49v-49h-102v49h-49zM567 49v103h47v47h103v-47h49v-103h-49v-49h-103v49h-47zM567 821v103h47v49h103v-49h49 v-103h-49v-47h-103v47h-47z" />
<glyph unicode="=" d="M-14 242v102h49v49h102v-49h90v49h103v-49h92v49h102v-49h90v49h103v-49h92v49h102v-49h47v-102h-47v-49h-102v49h-92v-49h-103v49h-90v-49h-102v49h-92v-49h-103v49h-90v-49h-102v49h-49zM-14 629v102h49v49h102v-49h90v49h103v-49h92v49h102v-49h90v49h103v-49h92v49 h102v-49h47v-102h-47v-49h-102v49h-92v-49h-103v49h-90v-49h-102v49h-92v-49h-103v49h-90v-49h-102v49h-49z" />
<glyph unicode="&#x3e;" d="M379 49v103h49v47h102v-47h48v-103h-48v-49h-102v49h-49zM379 821v103h49v49h102v-49h48v-103h-48v-47h-102v47h-49zM571 242v102h50v49h102v-49h49v-102h-49v-49h-102v49h-50zM571 629v102h50v49h102v-49h49v-102h-49v-49h-102v49h-50zM766 434v105h49v47h103v-47h47 v-105h-47v-47h-103v47h-49z" />
<glyph unicode="?" d="M-14 629v102h49v49h102v-49h49v-102h-49v-49h-102v49h-49zM180 821v103h47v49h103v-49h92v49h102v-49h90v49h103v-49h49v-103h-49v-47h-103v47h-90v-47h-102v47h-92v-47h-103v47h-47zM373 49v103h49v47h102v-47h49v-103h-49v-49h-102v49h-49zM373 434v105h49v47h102v-47 h90v47h103v-47h49v-105h-49v-47h-103v47h-90v-47h-102v47h-49zM760 629v102h49v49h102v-49h47v-102h-47v-49h-102v49h-49z" />
<glyph unicode="@" d="M-14 49v103h49v90h-49v102h49v90h-49v105h49v90h-49v102h49v90h-49v103h49v49h102v-49h49v-103h-49v-90h49v-102h-49v-90h90v47h103v-47h49v-105h-49v-90h92v49h102v-49h90v90h-47v105h47v90h-90v-49h-102v49h-49v102h49v49h102v-49h90v49h103v-49h92v90h-49v103h49v49 h102v-49h47v-103h-47v-90h47v-102h-47v-90h47v-105h-47v-90h47v-102h-47v-49h-102v49h-92v-49h-103v49h-90v-49h-102v49h-92v-49h-103v49h-90v-90h49v-103h-49v-49h-102v49h-49zM137 344h90v90h-90v-90zM180 -43h47v49h103v-49h92v49h102v-49h90v49h103v-49h92v49h102v-49 h47v-102h-47v-48h-102v48h-92v-48h-103v48h-90v-48h-102v48h-92v-48h-103v48h-47v102zM180 1016v102h47v47h103v-47h92v47h102v-47h90v47h103v-47h49v-102h-49v-49h-103v49h-90v-49h-102v49h-92v-49h-103v49h-47zM717 344h92v90h-92v-90zM717 539h92v90h-92v-90z" />
<glyph unicode="A" d="M-18 49v105h49v92h-49v104h49v92h-49v105h49v92h-49v104h49v50h104v-50h49v-104h-49v-92h92v49h105v-49h92v49h104v-49h95v49h104v-49h92v92h-49v104h49v50h105v-50h49v-104h-49v-92h49v-105h-49v-92h49v-104h-49v-92h49v-105h-49v-49h-105v49h-49v105h49v92h-49v104h49 v92h-92v-49h-104v49h-95v-49h-104v49h-92v-49h-105v49h-92v-92h49v-104h-49v-92h49v-105h-49v-49h-104v49h-49zM178 838v104h49v49h105v-49h92v49h104v-49h95v49h104v-49h49v-104h-49v-50h-104v50h-95v-50h-104v50h-92v-50h-105v50h-49z" />
<glyph unicode="B" d="M-18 49v105h49v92h-49v104h49v92h-49v105h49v92h-49v104h49v95h-49v104h49v49h104v-49h92v49h105v-49h92v49h104v-49h95v49h104v-49h49v-104h-49v-50h-104v50h-95v-50h-104v50h-92v-50h-105v50h-92v-95h49v-104h-49v-92h92v49h105v-49h92v49h104v-49h95v49h104v-49h49 v-105h-49v-49h-104v49h-95v-49h-104v49h-92v-49h-105v49h-92v-92h49v-104h-49v-92h92v49h105v-49h92v49h104v-49h95v49h104v-49h49v-105h-49v-49h-104v49h-95v-49h-104v49h-92v-49h-105v49h-92v-49h-104v49h-49zM770 246v104h49v49h105v-49h49v-104h-49v-49h-105v49h-49z M770 639v104h49v50h105v-50h49v-104h-49v-49h-105v49h-49z" />
<glyph unicode="C" d="M-18 246v104h49v92h-49v105h49v92h-49v104h49v50h104v-50h49v-104h-49v-92h49v-105h-49v-92h49v-104h-49v-49h-104v49h-49zM178 49v105h49v49h105v-49h92v49h104v-49h95v49h104v-49h92v49h105v-49h49v-105h-49v-49h-105v49h-92v-49h-104v49h-95v-49h-104v49h-92v-49h-105 v49h-49zM178 838v104h49v49h105v-49h92v49h104v-49h95v49h104v-49h92v49h105v-49h49v-104h-49v-50h-105v50h-92v-50h-104v50h-95v-50h-104v50h-92v-50h-105v50h-49z" />
<glyph unicode="D" d="M-18 49v105h49v92h-49v104h49v92h-49v105h49v92h-49v104h49v95h-49v104h49v49h104v-49h92v49h105v-49h92v49h104v-49h95v49h104v-49h49v-104h-49v-50h-104v50h-95v-50h-104v50h-92v-50h-105v50h-92v-95h49v-104h-49v-92h49v-105h-49v-92h49v-104h-49v-92h92v49h105v-49 h92v49h104v-49h95v49h104v-49h49v-105h-49v-49h-104v49h-95v-49h-104v49h-92v-49h-105v49h-92v-49h-104v49h-49zM770 246v104h49v92h-49v105h49v92h-49v104h49v50h105v-50h49v-104h-49v-92h49v-105h-49v-92h49v-104h-49v-49h-105v49h-49z" />
<glyph unicode="E" d="M-18 49v105h49v92h-49v104h49v92h-49v105h49v92h-49v104h49v95h-49v104h49v49h104v-49h92v49h105v-49h92v49h104v-49h95v49h104v-49h92v49h105v-49h49v-104h-49v-50h-105v50h-92v-50h-104v50h-95v-50h-104v50h-92v-50h-105v50h-92v-95h49v-104h-49v-92h92v49h105v-49h92 v49h104v-49h95v49h104v-49h49v-105h-49v-49h-104v49h-95v-49h-104v49h-92v-49h-105v49h-92v-92h49v-104h-49v-92h92v49h105v-49h92v49h104v-49h95v49h104v-49h92v49h105v-49h49v-105h-49v-49h-105v49h-92v-49h-104v49h-95v-49h-104v49h-92v-49h-105v49h-92v-49h-104v49h-49z " />
<glyph unicode="F" d="M-18 49v105h49v92h-49v104h49v92h-49v105h49v92h-49v104h49v95h-49v104h49v49h104v-49h92v49h105v-49h92v49h104v-49h95v49h104v-49h92v49h105v-49h49v-104h-49v-50h-105v50h-92v-50h-104v50h-95v-50h-104v50h-92v-50h-105v50h-92v-95h49v-104h-49v-92h92v49h105v-49h92 v49h104v-49h95v49h104v-49h49v-105h-49v-49h-104v49h-95v-49h-104v49h-92v-49h-105v49h-92v-92h49v-104h-49v-92h49v-105h-49v-49h-104v49h-49z" />
<glyph unicode="G" d="M-18 246v104h49v92h-49v105h49v92h-49v104h49v50h104v-50h49v-104h-49v-92h49v-105h-49v-92h49v-104h-49v-49h-104v49h-49zM178 49v105h49v49h105v-49h92v49h104v-49h95v49h104v-49h92v92h-49v104h49v92h-92v-49h-104v49h-50v105h50v49h104v-49h92v49h105v-49h49v-105 h-49v-92h49v-104h-49v-92h49v-105h-49v-49h-105v49h-92v-49h-104v49h-95v-49h-104v49h-92v-49h-105v49h-49zM178 838v104h49v49h105v-49h92v49h104v-49h95v49h104v-49h92v49h105v-49h49v-104h-49v-50h-105v50h-92v-50h-104v50h-95v-50h-104v50h-92v-50h-105v50h-49z" />
<glyph unicode="H" d="M-18 49v105h49v92h-49v104h49v92h-49v105h49v92h-49v104h49v95h-49v104h49v49h104v-49h49v-104h-49v-95h49v-104h-49v-92h92v49h105v-49h92v49h104v-49h95v49h104v-49h92v92h-49v104h49v95h-49v104h49v49h105v-49h49v-104h-49v-95h49v-104h-49v-92h49v-105h-49v-92h49 v-104h-49v-92h49v-105h-49v-49h-105v49h-49v105h49v92h-49v104h49v92h-92v-49h-104v49h-95v-49h-104v49h-92v-49h-105v49h-92v-92h49v-104h-49v-92h49v-105h-49v-49h-104v49h-49z" />
<glyph unicode="I" d="M-18 49v105h49v49h104v-49h92v49h105v-49h92v92h-49v104h49v92h-49v105h49v92h-49v104h49v95h-92v-50h-105v50h-92v-50h-104v50h-49v104h49v49h104v-49h92v49h105v-49h92v49h104v-49h95v49h104v-49h92v49h105v-49h49v-104h-49v-50h-105v50h-92v-50h-104v50h-95v-95h50 v-104h-50v-92h50v-105h-50v-92h50v-104h-50v-92h95v49h104v-49h92v49h105v-49h49v-105h-49v-49h-105v49h-92v-49h-104v49h-95v-49h-104v49h-92v-49h-105v49h-92v-49h-104v49h-49z" />
<glyph unicode="J" d="M-20 246v104h49v49h104v-49h49v-104h-49v-49h-104v49h-49zM-20 838v104h49v49h104v-49h92v49h105v-49h92v49h104v-49h95v49h104v-49h49v-104h-49v-95h49v-104h-49v-92h49v-105h-49v-92h49v-104h-49v-49h-104v49h-50v104h50v92h-50v105h50v92h-50v104h50v95h-95v-50h-104 v50h-92v-50h-105v50h-92v-50h-104v50h-49zM176 49v105h49v49h105v-49h92v49h104v-49h49v-105h-49v-49h-104v49h-92v-49h-105v49h-49z" />
<glyph unicode="K" d="M-18 49v105h49v92h-49v104h49v92h-49v105h49v92h-49v104h49v95h-49v104h49v49h104v-49h49v-104h-49v-95h49v-104h-49v-92h92v49h105v-49h92v49h104v-49h95v49h104v-49h49v-105h-49v-49h-104v49h-95v-49h-104v49h-92v-49h-105v49h-92v-92h49v-104h-49v-92h49v-105h-49v-49 h-104v49h-49zM770 49v105h49v92h-49v104h49v49h105v-49h49v-104h-49v-92h49v-105h-49v-49h-105v49h-49zM770 639v104h49v95h-49v104h49v49h105v-49h49v-104h-49v-95h49v-104h-49v-49h-105v49h-49z" />
<glyph unicode="L" d="M-18 49v105h49v92h-49v104h49v92h-49v105h49v92h-49v104h49v95h-49v104h49v49h104v-49h49v-104h-49v-95h49v-104h-49v-92h49v-105h-49v-92h49v-104h-49v-92h92v49h105v-49h92v49h104v-49h95v49h104v-49h92v49h105v-49h49v-105h-49v-49h-105v49h-92v-49h-104v49h-95v-49 h-104v49h-92v-49h-105v49h-92v-49h-104v49h-49z" />
<glyph unicode="M" d="M-18 49v105h49v92h-49v104h49v92h-49v105h49v92h-49v104h49v95h-49v104h49v49h104v-49h49v-104h-49v-95h92v50h105v-50h49v-104h-49v-49h-105v49h-92v-92h49v-105h-49v-92h49v-104h-49v-92h49v-105h-49v-49h-104v49h-49zM375 246v104h49v92h-49v105h49v49h104v-49h50 v-105h-50v-92h50v-104h-50v-49h-104v49h-49zM573 639v104h50v50h104v-50h92v95h-49v104h49v49h105v-49h49v-104h-49v-95h49v-104h-49v-92h49v-105h-49v-92h49v-104h-49v-92h49v-105h-49v-49h-105v49h-49v105h49v92h-49v104h49v92h-49v105h49v92h-92v-49h-104v49h-50z" />
<glyph unicode="N" d="M-18 49v105h49v92h-49v104h49v92h-49v105h49v92h-49v104h49v95h-49v104h49v49h104v-49h49v-104h-49v-95h92v50h105v-50h49v-104h-49v-49h-105v49h-92v-92h49v-105h-49v-92h49v-104h-49v-92h49v-105h-49v-49h-104v49h-49zM375 442v105h49v49h104v-49h50v-105h-50v-49h-104 v49h-49zM573 246v104h50v49h104v-49h92v92h-49v105h49v92h-49v104h49v95h-49v104h49v49h105v-49h49v-104h-49v-95h49v-104h-49v-92h49v-105h-49v-92h49v-104h-49v-92h49v-105h-49v-49h-105v49h-49v105h49v92h-92v-49h-104v49h-50z" />
<glyph unicode="O" d="M-18 246v104h49v92h-49v105h49v92h-49v104h49v50h104v-50h49v-104h-49v-92h49v-105h-49v-92h49v-104h-49v-49h-104v49h-49zM178 49v105h49v49h105v-49h92v49h104v-49h95v49h104v-49h49v-105h-49v-49h-104v49h-95v-49h-104v49h-92v-49h-105v49h-49zM178 838v104h49v49h105 v-49h92v49h104v-49h95v49h104v-49h49v-104h-49v-50h-104v50h-95v-50h-104v50h-92v-50h-105v50h-49zM770 246v104h49v92h-49v105h49v92h-49v104h49v50h105v-50h49v-104h-49v-92h49v-105h-49v-92h49v-104h-49v-49h-105v49h-49z" />
<glyph unicode="P" d="M-18 49v105h49v92h-49v104h49v92h-49v105h49v92h-49v104h49v95h-49v104h49v49h104v-49h92v49h105v-49h92v49h104v-49h95v49h104v-49h49v-104h-49v-50h-104v50h-95v-50h-104v50h-92v-50h-105v50h-92v-95h49v-104h-49v-92h92v49h105v-49h92v49h104v-49h95v49h104v-49h49 v-105h-49v-49h-104v49h-95v-49h-104v49h-92v-49h-105v49h-92v-92h49v-104h-49v-92h49v-105h-49v-49h-104v49h-49zM770 639v104h49v50h105v-50h49v-104h-49v-49h-105v49h-49z" />
<glyph unicode="Q" d="M-18 246v104h49v92h-49v105h49v92h-49v104h49v50h104v-50h49v-104h-49v-92h49v-105h-49v-92h49v-104h-49v-49h-104v49h-49zM178 49v105h49v49h105v-49h92v92h-49v104h49v49h104v-49h50v-104h-50v-92h95v49h104v-49h49v-105h-49v-49h-104v49h-95v-92h50v-104h-50v-50h-104 v50h-49v104h49v92h-92v-49h-105v49h-49zM178 838v104h49v49h105v-49h92v49h104v-49h95v49h104v-49h49v-104h-49v-50h-104v50h-95v-50h-104v50h-92v-50h-105v50h-49zM573 -240h50v50h104v-50h49v-104h-49v-49h-104v49h-50v104zM770 246v104h49v92h-49v105h49v92h-49v104h49 v50h105v-50h49v-104h-49v-92h49v-105h-49v-92h49v-104h-49v-49h-105v49h-49z" />
<glyph unicode="R" d="M-18 49v105h49v92h-49v104h49v92h-49v105h49v92h-49v104h49v95h-49v104h49v49h104v-49h92v49h105v-49h92v49h104v-49h95v49h104v-49h49v-104h-49v-50h-104v50h-95v-50h-104v50h-92v-50h-105v50h-92v-95h49v-104h-49v-92h92v49h105v-49h92v49h104v-49h95v49h104v-49h49 v-105h-49v-92h49v-104h-49v-49h-104v49h-50v104h50v92h-95v-49h-104v49h-92v-49h-105v49h-92v-92h49v-104h-49v-92h49v-105h-49v-49h-104v49h-49zM770 49v105h49v49h105v-49h49v-105h-49v-49h-105v49h-49zM770 639v104h49v50h105v-50h49v-104h-49v-49h-105v49h-49z" />
<glyph unicode="S" d="M-18 49v105h49v49h104v-49h92v49h105v-49h92v49h104v-49h95v49h104v-49h49v-105h-49v-49h-104v49h-95v-49h-104v49h-92v-49h-105v49h-92v-49h-104v49h-49zM-18 639v104h49v50h104v-50h49v-104h-49v-49h-104v49h-49zM178 442v105h49v49h105v-49h92v49h104v-49h95v49h104 v-49h49v-105h-49v-49h-104v49h-95v-49h-104v49h-92v-49h-105v49h-49zM178 838v104h49v49h105v-49h92v49h104v-49h95v49h104v-49h92v49h105v-49h49v-104h-49v-50h-105v50h-92v-50h-104v50h-95v-50h-104v50h-92v-50h-105v50h-49zM770 246v104h49v49h105v-49h49v-104h-49v-49 h-105v49h-49z" />
<glyph unicode="T" d="M-18 838v104h49v49h104v-49h92v49h105v-49h92v49h104v-49h95v49h104v-49h92v49h105v-49h49v-104h-49v-50h-105v50h-92v-50h-104v50h-95v-95h50v-104h-50v-92h50v-105h-50v-92h50v-104h-50v-92h50v-105h-50v-49h-104v49h-49v105h49v92h-49v104h49v92h-49v105h49v92h-49 v104h49v95h-92v-50h-105v50h-92v-50h-104v50h-49z" />
<glyph unicode="U" d="M-18 246v104h49v92h-49v105h49v92h-49v104h49v95h-49v104h49v49h104v-49h49v-104h-49v-95h49v-104h-49v-92h49v-105h-49v-92h49v-104h-49v-49h-104v49h-49zM178 49v105h49v49h105v-49h92v49h104v-49h95v49h104v-49h49v-105h-49v-49h-104v49h-95v-49h-104v49h-92v-49h-105 v49h-49zM770 246v104h49v92h-49v105h49v92h-49v104h49v95h-49v104h49v49h105v-49h49v-104h-49v-95h49v-104h-49v-92h49v-105h-49v-92h49v-104h-49v-49h-105v49h-49z" />
<glyph unicode="V" d="M-18 442v105h49v92h-49v104h49v95h-49v104h49v49h104v-49h49v-104h-49v-95h49v-104h-49v-92h49v-105h-49v-49h-104v49h-49zM178 246v104h49v49h105v-49h49v-104h-49v-49h-105v49h-49zM375 49v105h49v49h104v-49h50v-105h-50v-49h-104v49h-49zM573 246v104h50v49h104v-49 h49v-104h-49v-49h-104v49h-50zM770 442v105h49v92h-49v104h49v95h-49v104h49v49h105v-49h49v-104h-49v-95h49v-104h-49v-92h49v-105h-49v-49h-105v49h-49z" />
<glyph unicode="W" d="M-18 246v104h49v92h-49v105h49v92h-49v104h49v95h-49v104h49v49h104v-49h49v-104h-49v-95h49v-104h-49v-92h49v-105h-49v-92h49v-104h-49v-49h-104v49h-49zM178 49v105h49v49h105v-49h49v-105h-49v-49h-105v49h-49zM375 246v104h49v92h-49v105h49v92h-49v104h49v50h104 v-50h50v-104h-50v-92h50v-105h-50v-92h50v-104h-50v-49h-104v49h-49zM573 49v105h50v49h104v-49h49v-105h-49v-49h-104v49h-50zM770 246v104h49v92h-49v105h49v92h-49v104h49v95h-49v104h49v49h105v-49h49v-104h-49v-95h49v-104h-49v-92h49v-105h-49v-92h49v-104h-49v-49 h-105v49h-49z" />
<glyph unicode="X" d="M-18 49v105h49v92h-49v104h49v49h104v-49h49v-104h-49v-92h49v-105h-49v-49h-104v49h-49zM-18 639v104h49v95h-49v104h49v49h104v-49h49v-104h-49v-95h49v-104h-49v-49h-104v49h-49zM178 442v105h49v49h105v-49h92v49h104v-49h95v49h104v-49h49v-105h-49v-49h-104v49h-95 v-49h-104v49h-92v-49h-105v49h-49zM770 49v105h49v92h-49v104h49v49h105v-49h49v-104h-49v-92h49v-105h-49v-49h-105v49h-49zM770 639v104h49v95h-49v104h49v49h105v-49h49v-104h-49v-95h49v-104h-49v-49h-105v49h-49z" />
<glyph unicode="Y" d="M-18 639v104h49v95h-49v104h49v49h104v-49h49v-104h-49v-95h49v-104h-49v-49h-104v49h-49zM178 442v105h49v49h105v-49h49v-105h-49v-49h-105v49h-49zM375 49v105h49v92h-49v104h49v49h104v-49h50v-104h-50v-92h50v-105h-50v-49h-104v49h-49zM573 442v105h50v49h104v-49 h49v-105h-49v-49h-104v49h-50zM770 639v104h49v95h-49v104h49v49h105v-49h49v-104h-49v-95h49v-104h-49v-49h-105v49h-49z" />
<glyph unicode="Z" d="M-18 49v105h49v49h104v-49h92v92h-49v104h49v49h105v-49h49v-104h-49v-92h92v49h104v-49h95v49h104v-49h92v49h105v-49h49v-105h-49v-49h-105v49h-92v-49h-104v49h-95v-49h-104v49h-92v-49h-105v49h-92v-49h-104v49h-49zM-18 838v104h49v49h104v-49h92v49h105v-49h92v49 h104v-49h95v49h104v-49h92v49h105v-49h49v-104h-49v-50h-105v50h-92v-95h49v-104h-49v-49h-104v49h-50v104h50v95h-95v-50h-104v50h-92v-50h-105v50h-92v-50h-104v50h-49zM375 442v105h49v49h104v-49h50v-105h-50v-49h-104v49h-49z" />
<glyph unicode="[" d="M377 -43h47v92h-47v103h47v90h-47v102h47v90h-47v105h47v90h-47v102h47v90h-47v103h47v92h-47v102h47v47h102v-47h92v47h103v-47h47v-102h-47v-49h-103v49h-92v-92h49v-103h-49v-90h49v-102h-49v-90h49v-105h-49v-90h49v-102h-49v-90h49v-103h-49v-92h92v49h103v-49h47 v-102h-47v-48h-103v48h-92v-48h-102v48h-47v102z" />
<glyph unicode="\" d="M182 821v103h49v92h-49v102h49v47h103v-47h47v-102h-47v-92h47v-103h-47v-47h-103v47h-49zM377 434v105h47v90h-47v102h47v49h102v-49h49v-102h-49v-90h49v-105h-49v-47h-102v47h-47zM569 242v102h49v49h103v-49h47v-102h-47v-49h-103v49h-49zM764 -43h47v92h-47v103h47 v47h102v-47h50v-103h-50v-92h50v-102h-50v-48h-102v48h-47v102z" />
<glyph unicode="]" d="M377 -43h47v49h102v-49h92v92h-49v103h49v90h-49v102h49v90h-49v105h49v90h-49v102h49v90h-49v103h49v92h-92v-49h-102v49h-47v102h47v47h102v-47h92v47h103v-47h47v-102h-47v-92h47v-103h-47v-90h47v-102h-47v-90h47v-105h-47v-90h47v-102h-47v-90h47v-103h-47v-92h47 v-102h-47v-48h-103v48h-92v-48h-102v48h-47v102z" />
<glyph unicode="^" d="M180 1208v103h47v49h103v-49h49v-103h-49v-47h-103v47h-47zM373 1403v102h49v47h102v-47h49v-102h-49v-49h-102v49h-49zM567 1208v103h47v49h103v-49h49v-103h-49v-47h-103v47h-47z" />
<glyph unicode="_" d="M-14 49v103h49v47h102v-47h90v47h103v-47h92v47h102v-47h90v47h103v-47h92v47h102v-47h47v-103h-47v-49h-102v49h-92v-49h-103v49h-90v-49h-102v49h-92v-49h-103v49h-90v-49h-102v49h-49z" />
<glyph unicode="`" d="M-18 1403v102h47v47h102v-47h49v-102h-49v-49h-102v49h-47zM174 1208v103h49v49h103v-49h90v49h102v-49h49v-103h-49v-47h-102v47h-90v-47h-103v47h-49z" />
<glyph unicode="a" d="M-14 242v102h49v49h102v-49h49v-102h-49v-49h-102v49h-49zM180 49v103h47v47h103v-47h92v47h102v-47h90v47h103v-47h92v90h-49v102h49v90h-92v-47h-103v47h-90v-47h-102v47h-92v-47h-103v47h-47v105h47v47h103v-47h92v47h102v-47h90v47h103v-47h92v90h-49v102h49v49h102 v-49h47v-102h-47v-90h47v-105h-47v-90h47v-102h-47v-90h47v-103h-47v-49h-102v49h-92v-49h-103v49h-90v-49h-102v49h-92v-49h-103v49h-47zM180 821v103h47v49h103v-49h92v49h102v-49h90v49h103v-49h49v-103h-49v-47h-103v47h-90v-47h-102v47h-92v-47h-103v47h-47z" />
<glyph unicode="b" d="M-14 49v103h49v90h-49v102h49v90h-49v105h49v90h-49v102h49v90h-49v103h49v49h102v-49h90v49h103v-49h92v49h102v-49h90v49h103v-49h49v-103h-49v-47h-103v47h-90v-47h-102v47h-92v-47h-103v47h-90v-90h49v-102h-49v-90h90v47h103v-47h92v47h102v-47h90v47h103v-47h49 v-105h-49v-47h-103v47h-90v-47h-102v47h-92v-47h-103v47h-90v-90h49v-102h-49v-90h90v47h103v-47h92v47h102v-47h90v47h103v-47h49v-103h-49v-49h-103v49h-90v-49h-102v49h-92v-49h-103v49h-90v-49h-102v49h-49zM760 242v102h49v49h102v-49h47v-102h-47v-49h-102v49h-49z M760 629v102h49v49h102v-49h47v-102h-47v-49h-102v49h-49z" />
<glyph unicode="c" d="M-14 242v102h49v90h-49v105h49v90h-49v102h49v49h102v-49h49v-102h-49v-90h49v-105h-49v-90h49v-102h-49v-49h-102v49h-49zM180 49v103h47v47h103v-47h92v47h102v-47h90v47h103v-47h49v-103h-49v-49h-103v49h-90v-49h-102v49h-92v-49h-103v49h-47zM180 821v103h47v49h103 v-49h92v49h102v-49h90v49h103v-49h49v-103h-49v-47h-103v47h-90v-47h-102v47h-92v-47h-103v47h-47zM760 242v102h49v49h102v-49h47v-102h-47v-49h-102v49h-49zM760 629v102h49v49h102v-49h47v-102h-47v-49h-102v49h-49z" />
<glyph unicode="d" d="M-14 49v103h49v90h-49v102h49v90h-49v105h49v90h-49v102h49v90h-49v103h49v49h102v-49h90v49h103v-49h92v49h102v-49h90v49h103v-49h49v-103h-49v-47h-103v47h-90v-47h-102v47h-92v-47h-103v47h-90v-90h49v-102h-49v-90h49v-105h-49v-90h49v-102h-49v-90h90v47h103v-47 h92v47h102v-47h90v47h103v-47h49v-103h-49v-49h-103v49h-90v-49h-102v49h-92v-49h-103v49h-90v-49h-102v49h-49zM760 242v102h49v90h-49v105h49v90h-49v102h49v49h102v-49h47v-102h-47v-90h47v-105h-47v-90h47v-102h-47v-49h-102v49h-49z" />
<glyph unicode="e" d="M-14 242v102h49v90h-49v105h49v90h-49v102h49v49h102v-49h49v-102h-49v-90h90v47h103v-47h92v47h102v-47h90v47h103v-47h92v90h-49v102h49v49h102v-49h47v-102h-47v-90h47v-105h-47v-47h-102v47h-92v-47h-103v47h-90v-47h-102v47h-92v-47h-103v47h-90v-90h49v-102h-49 v-49h-102v49h-49zM180 49v103h47v47h103v-47h92v47h102v-47h90v47h103v-47h92v47h102v-47h47v-103h-47v-49h-102v49h-92v-49h-103v49h-90v-49h-102v49h-92v-49h-103v49h-47zM180 821v103h47v49h103v-49h92v49h102v-49h90v49h103v-49h49v-103h-49v-47h-103v47h-90v-47h-102 v47h-92v-47h-103v47h-47z" />
<glyph unicode="f" d="M-14 49v103h49v90h-49v102h49v90h-49v105h49v90h-49v102h49v90h-49v103h49v49h102v-49h90v49h103v-49h92v49h102v-49h90v49h103v-49h92v49h102v-49h47v-103h-47v-47h-102v47h-92v-47h-103v47h-90v-47h-102v47h-92v-47h-103v47h-90v-90h49v-102h-49v-90h90v47h103v-47h92 v47h102v-47h90v47h103v-47h49v-105h-49v-47h-103v47h-90v-47h-102v47h-92v-47h-103v47h-90v-90h49v-102h-49v-90h49v-103h-49v-49h-102v49h-49z" />
<glyph unicode="g" d="M-14 242v102h49v90h-49v105h49v90h-49v102h49v49h102v-49h49v-102h-49v-90h49v-105h-49v-90h49v-102h-49v-49h-102v49h-49zM180 49v103h47v47h103v-47h92v47h102v-47h90v47h103v-47h92v90h-49v102h49v90h-92v-47h-103v47h-47v105h47v47h103v-47h92v47h102v-47h47v-105 h-47v-90h47v-102h-47v-90h47v-103h-47v-49h-102v49h-92v-49h-103v49h-90v-49h-102v49h-92v-49h-103v49h-47zM180 821v103h47v49h103v-49h92v49h102v-49h90v49h103v-49h92v49h102v-49h47v-103h-47v-47h-102v47h-92v-47h-103v47h-90v-47h-102v47h-92v-47h-103v47h-47z" />
<glyph unicode="h" d="M-14 49v103h49v90h-49v102h49v90h-49v105h49v90h-49v102h49v90h-49v103h49v49h102v-49h49v-103h-49v-90h49v-102h-49v-90h90v47h103v-47h92v47h102v-47h90v47h103v-47h92v90h-49v102h49v90h-49v103h49v49h102v-49h47v-103h-47v-90h47v-102h-47v-90h47v-105h-47v-90h47 v-102h-47v-90h47v-103h-47v-49h-102v49h-49v103h49v90h-49v102h49v90h-92v-47h-103v47h-90v-47h-102v47h-92v-47h-103v47h-90v-90h49v-102h-49v-90h49v-103h-49v-49h-102v49h-49z" />
<glyph unicode="i" d="M-14 49v103h49v47h102v-47h90v47h103v-47h92v90h-49v102h49v90h-49v105h49v90h-49v102h49v90h-92v-47h-103v47h-90v-47h-102v47h-49v103h49v49h102v-49h90v49h103v-49h92v49h102v-49h49v-103h-49v-90h49v-102h-49v-90h49v-105h-49v-90h49v-102h-49v-90h90v47h103v-47h92 v47h102v-47h47v-103h-47v-49h-102v49h-92v-49h-103v49h-90v-49h-102v49h-92v-49h-103v49h-90v-49h-102v49h-49zM373 1208v103h49v49h102v-49h49v-103h-49v-47h-102v47h-49z" />
<glyph unicode="j" d="M182 242v102h49v49h103v-49h47v-102h-47v-49h-103v49h-49zM182 821v103h49v49h103v-49h90v49h102v-49h92v49h103v-49h90v49h102v-49h50v-103h-50v-90h50v-102h-50v-90h50v-105h-50v-90h50v-102h-50v-49h-102v49h-47v102h47v90h-47v105h47v90h-47v102h47v90h-90v-47h-103 v47h-92v-47h-102v47h-90v-47h-103v47h-49zM377 49v103h47v47h102v-47h92v47h103v-47h47v-103h-47v-49h-103v49h-92v-49h-102v49h-47z" />
<glyph unicode="k" d="M-14 49v103h49v90h-49v102h49v90h-49v105h49v90h-49v102h49v90h-49v103h49v49h102v-49h49v-103h-49v-90h49v-102h-49v-90h90v47h103v-47h92v47h102v-47h90v47h103v-47h49v-105h-49v-47h-103v47h-90v-47h-102v47h-92v-47h-103v47h-90v-90h49v-102h-49v-90h49v-103h-49v-49 h-102v49h-49zM760 49v103h49v90h-49v102h49v49h102v-49h47v-102h-47v-90h47v-103h-47v-49h-102v49h-49zM760 629v102h49v90h-49v103h49v49h102v-49h47v-103h-47v-90h47v-102h-47v-49h-102v49h-49z" />
<glyph unicode="l" d="M-14 49v103h49v90h-49v102h49v90h-49v105h49v90h-49v102h49v90h-49v103h49v49h102v-49h49v-103h-49v-90h49v-102h-49v-90h49v-105h-49v-90h49v-102h-49v-90h90v47h103v-47h92v47h102v-47h90v47h103v-47h92v47h102v-47h47v-103h-47v-49h-102v49h-92v-49h-103v49h-90v-49 h-102v49h-92v-49h-103v49h-90v-49h-102v49h-49z" />
<glyph unicode="m" d="M-14 49v103h49v90h-49v102h49v90h-49v105h49v90h-49v102h49v90h-49v103h49v49h102v-49h49v-103h-49v-90h90v49h103v-49h92v90h-49v103h49v49h102v-49h49v-103h-49v-90h90v49h103v-49h92v90h-49v103h49v49h102v-49h47v-103h-47v-90h47v-102h-47v-90h47v-105h-47v-90h47 v-102h-47v-90h47v-103h-47v-49h-102v49h-49v103h49v90h-49v102h49v90h-49v105h49v90h-92v-49h-103v49h-90v-90h49v-105h-49v-90h49v-102h-49v-90h49v-103h-49v-49h-102v49h-49v103h49v90h-49v102h49v90h-49v105h49v90h-92v-49h-103v49h-90v-90h49v-105h-49v-90h49v-102h-49 v-90h49v-103h-49v-49h-102v49h-49z" />
<glyph unicode="n" d="M-14 49v103h49v90h-49v102h49v90h-49v105h49v90h-49v102h49v90h-49v103h49v49h102v-49h49v-103h-49v-90h90v49h103v-49h49v-102h-49v-49h-103v49h-90v-90h49v-105h-49v-90h49v-102h-49v-90h49v-103h-49v-49h-102v49h-49zM373 821v103h49v49h102v-49h90v49h103v-49h49 v-103h-49v-47h-103v47h-90v-47h-102v47h-49zM760 49v103h49v90h-49v102h49v90h-49v105h49v90h-49v102h49v49h102v-49h47v-102h-47v-90h47v-105h-47v-90h47v-102h-47v-90h47v-103h-47v-49h-102v49h-49z" />
<glyph unicode="o" d="M-14 242v102h49v90h-49v105h49v90h-49v102h49v49h102v-49h49v-102h-49v-90h49v-105h-49v-90h49v-102h-49v-49h-102v49h-49zM180 49v103h47v47h103v-47h92v47h102v-47h90v47h103v-47h49v-103h-49v-49h-103v49h-90v-49h-102v49h-92v-49h-103v49h-47zM180 821v103h47v49h103 v-49h92v49h102v-49h90v49h103v-49h49v-103h-49v-47h-103v47h-90v-47h-102v47h-92v-47h-103v47h-47zM760 242v102h49v90h-49v105h49v90h-49v102h49v49h102v-49h47v-102h-47v-90h47v-105h-47v-90h47v-102h-47v-49h-102v49h-49z" />
<glyph unicode="p" d="M-14 49v103h49v90h-49v102h49v90h-49v105h49v90h-49v102h49v90h-49v103h49v49h102v-49h90v49h103v-49h92v49h102v-49h90v49h103v-49h49v-103h-49v-47h-103v47h-90v-47h-102v47h-92v-47h-103v47h-90v-90h49v-102h-49v-90h90v47h103v-47h92v47h102v-47h90v47h103v-47h49 v-105h-49v-47h-103v47h-90v-47h-102v47h-92v-47h-103v47h-90v-90h49v-102h-49v-90h49v-103h-49v-49h-102v49h-49zM760 629v102h49v49h102v-49h47v-102h-47v-49h-102v49h-49z" />
<glyph unicode="q" d="M-14 242v102h49v90h-49v105h49v90h-49v102h49v49h102v-49h49v-102h-49v-90h49v-105h-49v-90h49v-102h-49v-49h-102v49h-49zM180 49v103h47v47h103v-47h92v90h-49v102h49v49h102v-49h49v-102h-49v-90h90v47h103v-47h49v-103h-49v-49h-103v49h-90v-92h49v-102h-49v-48h-102 v48h-49v102h49v92h-92v-49h-103v49h-47zM180 821v103h47v49h103v-49h92v49h102v-49h90v49h103v-49h49v-103h-49v-47h-103v47h-90v-47h-102v47h-92v-47h-103v47h-47zM567 -236h47v48h103v-48h49v-102h-49v-49h-103v49h-47v102zM760 242v102h49v90h-49v105h49v90h-49v102h49 v49h102v-49h47v-102h-47v-90h47v-105h-47v-90h47v-102h-47v-49h-102v49h-49z" />
<glyph unicode="r" d="M-14 49v103h49v47h102v-47h90v90h-47v102h47v90h-47v105h47v90h-47v102h47v90h-90v-47h-102v47h-49v103h49v49h102v-49h90v49h103v-49h49v-103h-49v-90h92v49h102v-49h49v-102h-49v-49h-102v49h-92v-90h49v-105h-49v-90h49v-102h-49v-90h92v47h102v-47h90v47h103v-47h49 v-103h-49v-49h-103v49h-90v-49h-102v49h-92v-49h-103v49h-90v-49h-102v49h-49zM567 821v103h47v49h103v-49h92v49h102v-49h47v-103h-47v-47h-102v47h-92v-47h-103v47h-47z" />
<glyph unicode="s" d="M-14 49v103h49v47h102v-47h90v47h103v-47h92v47h102v-47h90v47h103v-47h49v-103h-49v-49h-103v49h-90v-49h-102v49h-92v-49h-103v49h-90v-49h-102v49h-49zM-14 629v102h49v49h102v-49h49v-102h-49v-49h-102v49h-49zM180 434v105h47v47h103v-47h92v47h102v-47h90v47h103 v-47h49v-105h-49v-47h-103v47h-90v-47h-102v47h-92v-47h-103v47h-47zM180 821v103h47v49h103v-49h92v49h102v-49h90v49h103v-49h92v49h102v-49h47v-103h-47v-47h-102v47h-92v-47h-103v47h-90v-47h-102v47h-92v-47h-103v47h-47zM760 242v102h49v49h102v-49h47v-102h-47v-49 h-102v49h-49z" />
<glyph unicode="t" d="M-14 821v103h49v49h102v-49h90v49h103v-49h92v49h102v-49h90v49h103v-49h92v49h102v-49h47v-103h-47v-47h-102v47h-92v-47h-103v47h-90v-90h49v-102h-49v-90h49v-105h-49v-90h49v-102h-49v-90h49v-103h-49v-49h-102v49h-49v103h49v90h-49v102h49v90h-49v105h49v90h-49 v102h49v90h-92v-47h-103v47h-90v-47h-102v47h-49z" />
<glyph unicode="u" d="M-14 242v102h49v90h-49v105h49v90h-49v102h49v90h-49v103h49v49h102v-49h49v-103h-49v-90h49v-102h-49v-90h49v-105h-49v-90h49v-102h-49v-49h-102v49h-49zM180 49v103h47v47h103v-47h92v47h102v-47h49v-103h-49v-49h-102v49h-92v-49h-103v49h-47zM567 242v102h47v49h103 v-49h92v90h-49v105h49v90h-49v102h49v90h-49v103h49v49h102v-49h47v-103h-47v-90h47v-102h-47v-90h47v-105h-47v-90h47v-102h-47v-90h47v-103h-47v-49h-102v49h-49v103h49v90h-92v-49h-103v49h-47z" />
<glyph unicode="v" d="M-14 629v102h49v90h-49v103h49v49h102v-49h49v-103h-49v-90h49v-102h-49v-49h-102v49h-49zM180 242v102h47v90h-47v105h47v47h103v-47h49v-105h-49v-90h49v-102h-49v-49h-103v49h-47zM373 49v103h49v47h102v-47h49v-103h-49v-49h-102v49h-49zM567 242v102h47v90h-47v105 h47v47h103v-47h49v-105h-49v-90h49v-102h-49v-49h-103v49h-47zM760 629v102h49v90h-49v103h49v49h102v-49h47v-103h-47v-90h47v-102h-47v-49h-102v49h-49z" />
<glyph unicode="w" d="M-14 434v105h49v90h-49v102h49v90h-49v103h49v49h102v-49h49v-103h-49v-90h49v-102h-49v-90h49v-105h-49v-47h-102v47h-49zM180 49v103h47v90h-47v102h47v49h103v-49h49v-102h-49v-90h49v-103h-49v-49h-103v49h-47zM373 434v105h49v90h-49v102h49v49h102v-49h49v-102h-49 v-90h49v-105h-49v-47h-102v47h-49zM567 49v103h47v90h-47v102h47v49h103v-49h49v-102h-49v-90h49v-103h-49v-49h-103v49h-47zM760 434v105h49v90h-49v102h49v90h-49v103h49v49h102v-49h47v-103h-47v-90h47v-102h-47v-90h47v-105h-47v-47h-102v47h-49z" />
<glyph unicode="x" d="M-14 49v103h49v90h-49v102h49v49h102v-49h49v-102h-49v-90h49v-103h-49v-49h-102v49h-49zM-14 629v102h49v90h-49v103h49v49h102v-49h49v-103h-49v-90h49v-102h-49v-49h-102v49h-49zM180 434v105h47v47h103v-47h92v47h102v-47h90v47h103v-47h49v-105h-49v-47h-103v47h-90 v-47h-102v47h-92v-47h-103v47h-47zM760 49v103h49v90h-49v102h49v49h102v-49h47v-102h-47v-90h47v-103h-47v-49h-102v49h-49zM760 629v102h49v90h-49v103h49v49h102v-49h47v-103h-47v-90h47v-102h-47v-49h-102v49h-49z" />
<glyph unicode="y" d="M-14 629v102h49v90h-49v103h49v49h102v-49h49v-103h-49v-90h49v-102h-49v-49h-102v49h-49zM180 434v105h47v47h103v-47h49v-105h-49v-47h-103v47h-47zM373 49v103h49v90h-49v102h49v49h102v-49h49v-102h-49v-90h49v-103h-49v-49h-102v49h-49zM567 434v105h47v47h103v-47 h49v-105h-49v-47h-103v47h-47zM760 629v102h49v90h-49v103h49v49h102v-49h47v-103h-47v-90h47v-102h-47v-49h-102v49h-49z" />
<glyph unicode="z" d="M-14 49v103h49v47h102v-47h90v90h-47v102h47v49h103v-49h49v-102h-49v-90h92v47h102v-47h90v47h103v-47h92v47h102v-47h47v-103h-47v-49h-102v49h-92v-49h-103v49h-90v-49h-102v49h-92v-49h-103v49h-90v-49h-102v49h-49zM-14 821v103h49v49h102v-49h90v49h103v-49h92v49 h102v-49h90v49h103v-49h92v49h102v-49h47v-103h-47v-47h-102v47h-92v-90h49v-102h-49v-49h-103v49h-47v102h47v90h-90v-47h-102v47h-92v-47h-103v47h-90v-47h-102v47h-49zM373 434v105h49v47h102v-47h49v-105h-49v-47h-102v47h-49z" />
<glyph unicode="{" d="M180 434v105h47v47h103v-47h49v-105h-49v-47h-103v47h-47zM373 49v103h49v90h-49v102h49v49h102v-49h49v-102h-49v-90h49v-103h-49v-49h-102v49h-49zM373 629v102h49v90h-49v103h49v49h102v-49h49v-103h-49v-90h49v-102h-49v-49h-102v49h-49zM567 -43h47v49h103v-49h49 v-102h-49v-48h-103v48h-47v102zM567 1016v102h47v47h103v-47h49v-102h-49v-49h-103v49h-47z" />
<glyph unicode="|" d="M373 -43h49v92h-49v103h49v90h-49v102h49v90h-49v105h49v90h-49v102h49v90h-49v103h49v92h-49v102h49v47h102v-47h49v-102h-49v-92h49v-103h-49v-90h49v-102h-49v-90h49v-105h-49v-90h49v-102h-49v-90h49v-103h-49v-92h49v-102h-49v-48h-102v48h-49v102z" />
<glyph unicode="}" d="M180 -43h47v49h103v-49h49v-102h-49v-48h-103v48h-47v102zM180 1016v102h47v47h103v-47h49v-102h-49v-49h-103v49h-47zM373 49v103h49v90h-49v102h49v49h102v-49h49v-102h-49v-90h49v-103h-49v-49h-102v49h-49zM373 629v102h49v90h-49v103h49v49h102v-49h49v-103h-49v-90 h49v-102h-49v-49h-102v49h-49zM567 434v105h47v47h103v-47h49v-105h-49v-47h-103v47h-47z" />
<glyph unicode="~" d="M-14 629v102h49v49h102v-49h49v-102h-49v-49h-102v49h-49zM180 821v103h47v49h103v-49h49v-103h-49v-47h-103v47h-47zM373 629v102h49v49h102v-49h49v-102h-49v-49h-102v49h-49zM567 434v105h47v47h103v-47h49v-105h-49v-47h-103v47h-47zM760 629v102h49v49h102v-49h47 v-102h-47v-49h-102v49h-49z" />
<glyph unicode="&#xa0;" />
<glyph unicode="&#xa1;" d="M373 51v103h49v90h-49v102h49v90h-49v103h49v49h102v-49h49v-103h-49v-90h49v-102h-49v-90h49v-103h-49v-49h-102v49h-49zM373 823v103h49v49h102v-49h49v-103h-49v-47h-102v47h-49z" />
<glyph unicode="&#xa2;" d="M-14 242v102h49v90h-49v105h49v90h-49v102h49v49h102v-49h49v-102h-49v-90h49v-105h-49v-90h49v-102h-49v-49h-102v49h-49zM180 49v103h47v47h103v-47h92v90h-49v102h49v90h-49v105h49v90h-49v102h49v90h-92v-47h-103v47h-47v103h47v49h103v-49h92v92h-49v102h49v47h102 v-47h49v-102h-49v-92h90v49h103v-49h49v-103h-49v-47h-103v47h-90v-90h49v-102h-49v-90h49v-105h-49v-90h49v-102h-49v-90h90v47h103v-47h49v-103h-49v-49h-103v49h-90v-92h49v-102h-49v-48h-102v48h-49v102h49v92h-92v-49h-103v49h-47zM760 242v102h49v49h102v-49h47v-102 h-47v-49h-102v49h-49zM760 629v102h49v49h102v-49h47v-102h-47v-49h-102v49h-49z" />
<glyph unicode="&#xa3;" d="M-14 49v103h49v47h102v-47h90v90h-47v102h47v90h-90v-47h-102v47h-49v105h49v47h102v-47h90v90h-47v102h47v49h103v-49h49v-102h-49v-90h92v47h102v-47h90v47h103v-47h49v-105h-49v-47h-103v47h-90v-47h-102v47h-92v-90h49v-102h-49v-90h92v47h102v-47h90v47h103v-47h92 v47h102v-47h47v-103h-47v-49h-102v49h-92v-49h-103v49h-90v-49h-102v49h-92v-49h-103v49h-90v-49h-102v49h-49zM373 821v103h49v49h102v-49h90v49h103v-49h49v-103h-49v-47h-103v47h-90v-47h-102v47h-49z" />
<glyph unicode="&#xa4;" d="M-14 49v103h49v47h102v-47h49v-103h-49v-49h-102v49h-49zM-14 821v103h49v49h102v-49h49v-103h-49v-47h-102v47h-49zM180 242v102h47v90h-47v105h47v90h-47v102h47v49h103v-49h92v49h102v-49h90v49h103v-49h49v-102h-49v-90h49v-105h-49v-90h49v-102h-49v-49h-103v49h-90 v-49h-102v49h-92v-49h-103v49h-47zM330 344h92v49h102v-49h90v90h-47v105h47v90h-90v-49h-102v49h-92v-90h49v-105h-49v-90zM760 49v103h49v47h102v-47h47v-103h-47v-49h-102v49h-49zM760 821v103h49v49h102v-49h47v-103h-47v-47h-102v47h-49z" />
<glyph unicode="&#xa5;" d="M-14 242v102h49v49h102v-49h90v49h103v-49h92v90h-49v105h49v47h102v-47h49v-105h-49v-90h90v49h103v-49h92v49h102v-49h47v-102h-47v-49h-102v49h-92v-49h-103v49h-90v-90h49v-103h-49v-49h-102v49h-49v103h49v90h-92v-49h-103v49h-90v-49h-102v49h-49zM-14 821v103h49 v49h102v-49h49v-103h-49v-47h-102v47h-49zM180 629v102h47v49h103v-49h49v-102h-49v-49h-103v49h-47zM567 629v102h47v49h103v-49h49v-102h-49v-49h-103v49h-47zM760 821v103h49v49h102v-49h47v-103h-47v-47h-102v47h-49z" />
<glyph unicode="&#xa6;" d="M373 49v103h49v90h-49v102h49v49h102v-49h49v-102h-49v-90h49v-103h-49v-49h-102v49h-49zM373 629v102h49v90h-49v103h49v49h102v-49h49v-103h-49v-90h49v-102h-49v-49h-102v49h-49z" />
<glyph unicode="&#xa7;" d="M182 49v103h49v47h103v-47h90v47h102v-47h92v47h103v-47h47v-103h-47v-49h-103v49h-92v-49h-102v49h-90v-49h-103v49h-49zM182 629v102h49v49h103v-49h47v-102h-47v-49h-103v49h-49zM182 1016v102h49v47h103v-47h47v-102h-47v-49h-103v49h-49zM377 434v105h47v47h102v-47 h92v47h103v-47h47v-105h-47v-47h-103v47h-92v-47h-102v47h-47zM377 821v103h47v49h102v-49h92v49h103v-49h47v-103h-47v-47h-103v47h-92v-47h-102v47h-47zM377 1208v103h47v49h102v-49h92v49h103v-49h90v49h102v-49h50v-103h-50v-47h-102v47h-90v-47h-103v47h-92v-47h-102 v47h-47zM764 242v102h47v49h102v-49h50v-102h-50v-49h-102v49h-47zM764 629v102h47v49h102v-49h50v-102h-50v-49h-102v49h-47z" />
<glyph unicode="&#xa8;" d="M-14 1208v103h49v92h-49v102h49v47h102v-47h49v-102h-49v-92h49v-103h-49v-47h-102v47h-49zM760 1208v103h49v92h-49v102h49v47h102v-47h47v-102h-47v-92h47v-103h-47v-47h-102v47h-49z" />
<glyph unicode="&#xa9;" d="M-14 242v102h49v90h-49v105h49v90h-49v102h49v49h102v-49h49v-102h-49v-90h90v47h103v-47h49v-105h-49v-47h-103v47h-90v-90h49v-102h-49v-49h-102v49h-49zM180 49v103h47v47h103v-47h92v90h-49v102h49v49h102v-49h49v-102h-49v-90h90v47h103v-47h49v-103h-49v-49h-103 v49h-90v-49h-102v49h-92v-49h-103v49h-47zM180 821v103h47v49h103v-49h92v49h102v-49h90v49h103v-49h49v-103h-49v-47h-103v47h-90v-90h49v-102h-49v-49h-102v49h-49v102h49v90h-92v-47h-103v47h-47zM760 242v102h49v90h-49v105h49v90h-49v102h49v49h102v-49h47v-102h-47 v-90h47v-105h-47v-90h47v-102h-47v-49h-102v49h-49z" />
<glyph unicode="&#xaa;" d="M-18 629v102h47v49h102v-49h92v49h103v-49h90v90h-49v103h49v49h102v-49h49v-103h-49v-90h49v-102h-49v-90h49v-105h-49v-47h-102v47h-90v-47h-103v47h-49v105h49v90h-92v-49h-102v49h-47zM174 1016v102h49v47h103v-47h47v-102h-47v-49h-103v49h-49zM326 539h90v90h-90 v-90z" />
<glyph unicode="&#xab;" d="M-14 434v105h49v47h102v-47h49v-105h-49v-47h-102v47h-49zM180 242v102h47v49h103v-49h49v-102h-49v-49h-103v49h-47zM180 629v102h47v49h103v-49h49v-102h-49v-49h-103v49h-47zM373 49v103h49v47h102v-47h49v-103h-49v-49h-102v49h-49zM373 434v105h49v47h102v-47h49 v-105h-49v-47h-102v47h-49zM373 821v103h49v49h102v-49h49v-103h-49v-47h-102v47h-49zM567 242v102h47v49h103v-49h49v-102h-49v-49h-103v49h-47zM567 629v102h47v49h103v-49h49v-102h-49v-49h-103v49h-47zM760 49v103h49v47h102v-47h47v-103h-47v-49h-102v49h-49zM760 821 v103h49v49h102v-49h47v-103h-47v-47h-102v47h-49z" />
<glyph unicode="&#xac;" d="M-14 434v105h49v47h102v-47h90v47h103v-47h92v47h102v-47h90v47h103v-47h92v47h102v-47h47v-105h-47v-90h47v-102h-47v-90h47v-103h-47v-49h-102v49h-49v103h49v90h-49v102h49v90h-92v-47h-103v47h-90v-47h-102v47h-92v-47h-103v47h-90v-47h-102v47h-49z" />
<glyph unicode="&#xad;" d="M180 434v105h47v47h103v-47h92v47h102v-47h90v47h103v-47h49v-105h-49v-47h-103v47h-90v-47h-102v47h-92v-47h-103v47h-47z" />
<glyph unicode="&#xae;" d="M-14 434v105h49v90h-49v102h49v90h-49v103h49v49h102v-49h49v-103h-49v-90h49v-102h-49v-90h49v-105h-49v-47h-102v47h-49zM180 242v102h47v49h103v-49h92v49h102v-49h90v90h-47v105h47v47h103v-47h92v90h-49v102h49v90h-92v-47h-103v47h-90v-90h49v-102h-49v-49h-102v49 h-49v102h49v90h-49v103h49v92h-92v-49h-103v49h-47v102h47v47h103v-47h92v47h102v-47h90v47h103v-47h49v-102h-49v-92h92v49h102v-49h47v-103h-47v-90h47v-102h-47v-90h47v-105h-47v-47h-102v47h-92v-90h49v-102h-49v-49h-103v49h-90v-49h-102v49h-92v-49h-103v49h-47z M524 924h90v92h-90v-92z" />
<glyph unicode="&#xaf;" d="M180 1208v103h47v49h103v-49h92v49h102v-49h90v49h103v-49h49v-103h-49v-47h-103v47h-90v-47h-102v47h-92v-47h-103v47h-47z" />
<glyph unicode="&#xb0;" d="M-18 821v103h47v49h102v-49h49v-103h-49v-47h-102v47h-47zM174 629v102h49v49h103v-49h47v-102h-47v-49h-103v49h-49zM174 1016v102h49v47h103v-47h47v-102h-47v-49h-103v49h-49zM367 821v103h49v49h102v-49h49v-103h-49v-47h-102v47h-49z" />
<glyph unicode="&#xb1;" d="M-14 49v103h49v47h102v-47h90v47h103v-47h92v47h102v-47h90v47h103v-47h92v47h102v-47h47v-103h-47v-49h-102v49h-92v-49h-103v49h-90v-49h-102v49h-92v-49h-103v49h-90v-49h-102v49h-49zM-14 629v102h49v49h102v-49h90v49h103v-49h92v90h-49v103h49v49h102v-49h49v-103 h-49v-90h90v49h103v-49h92v49h102v-49h47v-102h-47v-49h-102v49h-92v-49h-103v49h-90v-90h49v-105h-49v-47h-102v47h-49v105h49v90h-92v-49h-103v49h-90v-49h-102v49h-49z" />
<glyph unicode="&#xb2;" d="M-23 434v105h50v90h-50v102h50v49h102v-49h47v-102h-47v-90h90v47h103v-47h49v-105h-49v-47h-103v47h-90v-47h-102v47h-50zM-23 1016v102h50v47h102v-47h47v-102h-47v-49h-102v49h-50zM172 821v103h47v49h103v-49h49v-103h-49v-47h-103v47h-47z" />
<glyph unicode="&#xb3;" d="M-23 434v105h50v47h102v-47h90v90h-47v102h47v90h-47v103h47v49h103v-49h49v-103h-49v-90h49v-102h-49v-90h49v-105h-49v-47h-103v47h-90v-47h-102v47h-50zM-23 1016v102h50v47h102v-47h47v-102h-47v-49h-102v49h-50z" />
<glyph unicode="&#xb4;" d="M180 1208v103h47v49h103v-49h92v49h102v-49h49v-103h-49v-47h-102v47h-92v-47h-103v47h-47zM567 1403v102h47v47h103v-47h49v-102h-49v-49h-103v49h-47z" />
<glyph unicode="&#xb5;" d="M-14 49v103h49v90h-49v102h49v90h-49v105h49v90h-49v102h49v90h-49v103h49v49h102v-49h49v-103h-49v-90h90v49h103v-49h49v-102h-49v-49h-103v49h-90v-90h49v-105h-49v-90h49v-102h-49v-90h49v-103h-49v-49h-102v49h-49zM373 242v102h49v90h-49v105h49v47h102v-47h49 v-105h-49v-90h49v-102h-49v-49h-102v49h-49zM567 629v102h47v49h103v-49h92v90h-49v103h49v49h102v-49h47v-103h-47v-90h47v-102h-47v-90h47v-105h-47v-90h47v-102h-47v-90h47v-103h-47v-49h-102v49h-49v103h49v90h-49v102h49v90h-49v105h49v90h-92v-49h-103v49h-47z" />
<glyph unicode="&#xb6;" d="M-14 629v102h49v49h102v-49h90v90h-47v103h47v49h103v-49h92v49h102v-49h49v-103h-49v-90h49v-102h-49v-90h49v-105h-49v-90h49v-102h-49v-90h49v-103h-49v-49h-102v49h-49v103h49v90h-49v102h49v90h-92v-47h-103v47h-47v105h47v90h-90v-49h-102v49h-49zM330 539h92v90 h-92v-90zM330 731h92v90h-92v-90zM760 49v103h49v90h-49v102h49v90h-49v105h49v90h-49v102h49v90h-49v103h49v49h102v-49h47v-103h-47v-90h47v-102h-47v-90h47v-105h-47v-90h47v-102h-47v-90h47v-103h-47v-49h-102v49h-49z" />
<glyph unicode="&#xb7;" d="M174 434v105h49v90h-49v102h49v49h103v-49h47v-102h-47v-90h47v-105h-47v-47h-103v47h-49z" />
<glyph unicode="&#xb8;" d="M176 -236h49v48h103v-48h49v-102h-49v-49h-103v49h-49v102zM371 -43h47v49h104v-49h47v-102h-47v-48h-104v48h-47v102z" />
<glyph unicode="&#xb9;" d="M-18 434v105h47v47h102v-47h92v90h-49v102h49v90h-49v103h49v92h-92v-49h-102v49h-47v102h47v47h102v-47h92v47h103v-47h47v-102h-47v-92h47v-103h-47v-90h47v-102h-47v-90h90v47h102v-47h49v-105h-49v-47h-102v47h-90v-47h-103v47h-92v-47h-102v47h-47z" />
<glyph unicode="&#xba;" d="M-18 821v103h47v49h102v-49h49v-103h-49v-47h-102v47h-47zM174 629v102h49v49h103v-49h47v-102h-47v-49h-103v49h-49zM174 1016v102h49v47h103v-47h47v-102h-47v-49h-103v49h-49zM367 821v103h49v49h102v-49h49v-103h-49v-47h-102v47h-49z" />
<glyph unicode="&#xbb;" d="M-14 49v103h49v47h102v-47h49v-103h-49v-49h-102v49h-49zM-14 821v103h49v49h102v-49h49v-103h-49v-47h-102v47h-49zM180 242v102h47v49h103v-49h49v-102h-49v-49h-103v49h-47zM180 629v102h47v49h103v-49h49v-102h-49v-49h-103v49h-47zM373 49v103h49v47h102v-47h49 v-103h-49v-49h-102v49h-49zM373 434v105h49v47h102v-47h49v-105h-49v-47h-102v47h-49zM373 821v103h49v49h102v-49h49v-103h-49v-47h-102v47h-49zM567 242v102h47v49h103v-49h49v-102h-49v-49h-103v49h-47zM567 629v102h47v49h103v-49h49v-102h-49v-49h-103v49h-47zM760 434 v105h49v47h102v-47h47v-105h-47v-47h-102v47h-49z" />
<glyph unicode="&#xbc;" d="M-10 821v103h47v49h102v-49h92v49h103v-49h47v-103h-47v-90h47v-102h-47v-90h90v47h102v-47h49v-105h-49v-90h49v-102h-49v-49h-102v49h-47v102h47v90h-90v-47h-103v47h-49v105h49v90h-49v102h49v90h-92v-47h-102v47h-47zM182 49v103h49v47h103v-47h47v-103h-47v-49h-103 v49h-49zM569 629v102h49v90h-49v103h49v49h103v-49h47v-103h-47v-90h47v-102h-47v-49h-103v49h-49zM764 434v105h47v47h102v-47h93v90h-50v102h50v49h102v-49h47v-102h-47v-90h47v-105h-47v-90h47v-102h-47v-90h47v-103h-47v-49h-102v49h-50v103h50v90h-50v102h50v90h-93 v-47h-102v47h-47z" />
<glyph unicode="&#xbd;" d="M-10 821v103h47v49h102v-49h92v49h103v-49h47v-103h-47v-90h47v-102h-47v-90h90v47h102v-47h49v-105h-49v-90h49v-102h-49v-49h-102v49h-47v102h47v90h-90v-47h-103v47h-49v105h49v90h-49v102h49v90h-92v-47h-102v47h-47zM182 49v103h49v47h103v-47h47v-103h-47v-49h-103 v49h-49zM569 629v102h49v90h-49v103h49v49h103v-49h47v-103h-47v-90h90v49h102v-49h50v-102h-50v-49h-102v49h-90v-49h-103v49h-49zM764 49v103h47v90h-47v102h47v49h102v-49h50v-102h-50v-90h93v47h102v-47h47v-103h-47v-49h-102v49h-93v-49h-102v49h-47zM956 434v105h50 v47h102v-47h47v-105h-47v-47h-102v47h-50z" />
<glyph unicode="&#xbe;" d="M-10 242v102h47v49h102v-49h49v-102h-49v-49h-102v49h-47zM-10 821v103h47v49h102v-49h49v-103h-49v-47h-102v47h-47zM182 49v103h49v47h103v-47h47v-103h-47v-49h-103v49h-49zM182 434v105h49v90h-49v102h49v49h103v-49h47v-102h-47v-90h90v47h102v-47h49v-105h-49v-90 h49v-102h-49v-49h-102v49h-47v102h47v90h-90v-47h-103v47h-49zM569 629v102h49v90h-49v103h49v49h103v-49h47v-103h-47v-90h47v-102h-47v-49h-103v49h-49zM764 434v105h47v47h102v-47h93v90h-50v102h50v49h102v-49h47v-102h-47v-90h47v-105h-47v-90h47v-102h-47v-90h47v-103 h-47v-49h-102v49h-50v103h50v90h-50v102h50v90h-93v-47h-102v47h-47z" />
<glyph unicode="&#xbf;" d="M135 244v102h49v49h103v-49h49v-102h-49v-49h-103v49h-49zM330 51v103h47v47h102v-47h92v47h103v-47h90v47h102v-47h49v-103h-49v-49h-102v49h-90v-49h-103v49h-92v-49h-102v49h-47zM330 436v103h47v49h102v-49h92v49h103v-49h47v-103h-47v-47h-103v47h-92v-47h-102v47 h-47zM522 823v103h49v49h103v-49h47v-103h-47v-47h-103v47h-49zM909 244v102h49v49h103v-49h47v-102h-47v-49h-103v49h-49z" />
<glyph unicode="&#xc0;" d="M-18 49v105h49v92h-49v104h49v92h-49v105h49v92h-49v104h49v50h104v-50h49v-104h-49v-92h92v49h105v-49h92v49h104v-49h95v49h104v-49h92v92h-49v104h49v50h105v-50h49v-104h-49v-92h49v-105h-49v-92h49v-104h-49v-92h49v-105h-49v-49h-105v49h-49v105h49v92h-49v104h49 v92h-92v-49h-104v49h-95v-49h-104v49h-92v-49h-105v49h-92v-92h49v-104h-49v-92h49v-105h-49v-49h-104v49h-49zM178 838v104h49v49h105v-49h92v49h104v-49h95v49h104v-49h49v-104h-49v-50h-104v50h-95v-50h-104v50h-92v-50h-105v50h-49zM178 1427v105h49v49h105v-49h49v-105 h-49v-49h-105v49h-49zM375 1231v104h49v49h104v-49h95v49h104v-49h49v-104h-49v-49h-104v49h-95v-49h-104v49h-49z" />
<glyph unicode="&#xc1;" d="M-18 49v105h49v92h-49v104h49v92h-49v105h49v92h-49v104h49v50h104v-50h49v-104h-49v-92h92v49h105v-49h92v49h104v-49h95v49h104v-49h92v92h-49v104h49v50h105v-50h49v-104h-49v-92h49v-105h-49v-92h49v-104h-49v-92h49v-105h-49v-49h-105v49h-49v105h49v92h-49v104h49 v92h-92v-49h-104v49h-95v-49h-104v49h-92v-49h-105v49h-92v-92h49v-104h-49v-92h49v-105h-49v-49h-104v49h-49zM178 838v104h49v49h105v-49h92v49h104v-49h95v49h104v-49h49v-104h-49v-50h-104v50h-95v-50h-104v50h-92v-50h-105v50h-49zM178 1231v104h49v49h105v-49h92v49 h104v-49h50v-104h-50v-49h-104v49h-92v-49h-105v49h-49zM573 1427v105h50v49h104v-49h49v-105h-49v-49h-104v49h-50z" />
<glyph unicode="&#xc2;" d="M-18 49v105h49v92h-49v104h49v92h-49v105h49v92h-49v104h49v50h104v-50h49v-104h-49v-92h92v49h105v-49h92v49h104v-49h95v49h104v-49h92v92h-49v104h49v50h105v-50h49v-104h-49v-92h49v-105h-49v-92h49v-104h-49v-92h49v-105h-49v-49h-105v49h-49v105h49v92h-49v104h49 v92h-92v-49h-104v49h-95v-49h-104v49h-92v-49h-105v49h-92v-92h49v-104h-49v-92h49v-105h-49v-49h-104v49h-49zM178 838v104h49v49h105v-49h92v49h104v-49h95v49h104v-49h49v-104h-49v-50h-104v50h-95v-50h-104v50h-92v-50h-105v50h-49zM178 1231v104h49v49h105v-49h49v-104 h-49v-49h-105v49h-49zM375 1427v105h49v49h104v-49h50v-105h-50v-49h-104v49h-49zM573 1231v104h50v49h104v-49h49v-104h-49v-49h-104v49h-50z" />
<glyph unicode="&#xc3;" d="M-18 49v105h49v92h-49v104h49v92h-49v105h49v92h-49v104h49v50h104v-50h49v-104h-49v-92h92v49h105v-49h92v49h104v-49h95v49h104v-49h92v92h-49v104h49v50h105v-50h49v-104h-49v-92h49v-105h-49v-92h49v-104h-49v-92h49v-105h-49v-49h-105v49h-49v105h49v92h-49v104h49 v92h-92v-49h-104v49h-95v-49h-104v49h-92v-49h-105v49h-92v-92h49v-104h-49v-92h49v-105h-49v-49h-104v49h-49zM-18 1231v104h49v49h104v-49h49v-104h-49v-49h-104v49h-49zM178 838v104h49v49h105v-49h92v49h104v-49h95v49h104v-49h49v-104h-49v-50h-104v50h-95v-50h-104v50 h-92v-50h-105v50h-49zM178 1427v105h49v49h105v-49h49v-105h-49v-49h-105v49h-49zM375 1231v104h49v49h104v-49h95v49h104v-49h49v-104h-49v-49h-104v49h-95v-49h-104v49h-49zM770 1427v105h49v49h105v-49h49v-105h-49v-49h-105v49h-49z" />
<glyph unicode="&#xc4;" d="M-18 49v105h49v92h-49v104h49v92h-49v105h49v92h-49v104h49v50h104v-50h49v-104h-49v-92h92v49h105v-49h92v49h104v-49h95v49h104v-49h92v92h-49v104h49v50h105v-50h49v-104h-49v-92h49v-105h-49v-92h49v-104h-49v-92h49v-105h-49v-49h-105v49h-49v105h49v92h-49v104h49 v92h-92v-49h-104v49h-95v-49h-104v49h-92v-49h-105v49h-92v-92h49v-104h-49v-92h49v-105h-49v-49h-104v49h-49zM-18 1231v104h49v92h-49v105h49v49h104v-49h49v-105h-49v-92h49v-104h-49v-49h-104v49h-49zM178 838v104h49v49h105v-49h92v49h104v-49h95v49h104v-49h49v-104 h-49v-50h-104v50h-95v-50h-104v50h-92v-50h-105v50h-49zM770 1231v104h49v92h-49v105h49v49h105v-49h49v-105h-49v-92h49v-104h-49v-49h-105v49h-49z" />
<glyph unicode="&#xc5;" d="M-18 49v105h49v92h-49v104h49v92h-49v105h49v92h-49v104h49v50h104v-50h49v-104h-49v-92h92v49h105v-49h92v49h104v-49h95v49h104v-49h92v92h-49v104h49v50h105v-50h49v-104h-49v-92h49v-105h-49v-92h49v-104h-49v-92h49v-105h-49v-49h-105v49h-49v105h49v92h-49v104h49 v92h-92v-49h-104v49h-95v-49h-104v49h-92v-49h-105v49h-92v-92h49v-104h-49v-92h49v-105h-49v-49h-104v49h-49zM178 838v104h49v49h105v-49h92v49h104v-49h95v49h104v-49h49v-104h-49v-50h-104v50h-95v-50h-104v50h-92v-50h-105v50h-49zM178 1427v105h49v49h105v-49h49v-105 h-49v-49h-105v49h-49zM375 1231v104h49v49h104v-49h50v-104h-50v-49h-104v49h-49zM375 1624v105h49v49h104v-49h50v-105h-50v-49h-104v49h-49zM573 1427v105h50v49h104v-49h49v-105h-49v-49h-104v49h-50z" />
<glyph unicode="&#xc6;" d="M-18 49v105h49v92h-49v104h49v92h-49v105h49v92h-49v104h49v50h104v-50h49v-104h-49v-92h49v-105h-49v-92h92v49h105v-49h92v92h-49v105h49v92h-49v104h49v95h-92v-50h-105v50h-49v104h49v49h105v-49h92v49h104v-49h95v49h104v-49h92v49h105v-49h49v-104h-49v-50h-105v50 h-92v-50h-104v50h-95v-95h50v-104h-50v-92h95v49h104v-49h49v-105h-49v-49h-104v49h-95v-92h50v-104h-50v-92h95v49h104v-49h92v49h105v-49h49v-105h-49v-49h-105v49h-92v-49h-104v49h-95v-49h-104v49h-49v105h49v92h-92v-49h-105v49h-92v-92h49v-105h-49v-49h-104v49h-49z " />
<glyph unicode="&#xc7;" d="M-18 246v104h49v92h-49v105h49v92h-49v104h49v50h104v-50h49v-104h-49v-92h49v-105h-49v-92h49v-104h-49v-49h-104v49h-49zM178 49v105h49v49h105v-49h92v49h104v-49h95v49h104v-49h92v49h105v-49h49v-105h-49v-49h-105v49h-92v-49h-104v49h-95v-92h50v-104h-50v-50h-104 v50h-49v104h49v92h-92v-49h-105v49h-49zM178 -240h49v50h105v-50h49v-104h-49v-49h-105v49h-49v104zM178 838v104h49v49h105v-49h92v49h104v-49h95v49h104v-49h92v49h105v-49h49v-104h-49v-50h-105v50h-92v-50h-104v50h-95v-50h-104v50h-92v-50h-105v50h-49z" />
<glyph unicode="&#xc8;" d="M-18 49v105h49v92h-49v104h49v92h-49v105h49v92h-49v104h49v95h-49v104h49v49h104v-49h92v49h105v-49h92v49h104v-49h95v49h104v-49h92v49h105v-49h49v-104h-49v-50h-105v50h-92v-50h-104v50h-95v-50h-104v50h-92v-50h-105v50h-92v-95h49v-104h-49v-92h92v49h105v-49h92 v49h104v-49h95v49h104v-49h49v-105h-49v-49h-104v49h-95v-49h-104v49h-92v-49h-105v49h-92v-92h49v-104h-49v-92h92v49h105v-49h92v49h104v-49h95v49h104v-49h92v49h105v-49h49v-105h-49v-49h-105v49h-92v-49h-104v49h-95v-49h-104v49h-92v-49h-105v49h-92v-49h-104v49h-49z M178 1427v105h49v49h105v-49h49v-105h-49v-49h-105v49h-49zM375 1231v104h49v49h104v-49h95v49h104v-49h49v-104h-49v-49h-104v49h-95v-49h-104v49h-49z" />
<glyph unicode="&#xc9;" d="M-18 49v105h49v92h-49v104h49v92h-49v105h49v92h-49v104h49v95h-49v104h49v49h104v-49h92v49h105v-49h92v49h104v-49h95v49h104v-49h92v49h105v-49h49v-104h-49v-50h-105v50h-92v-50h-104v50h-95v-50h-104v50h-92v-50h-105v50h-92v-95h49v-104h-49v-92h92v49h105v-49h92 v49h104v-49h95v49h104v-49h49v-105h-49v-49h-104v49h-95v-49h-104v49h-92v-49h-105v49h-92v-92h49v-104h-49v-92h92v49h105v-49h92v49h104v-49h95v49h104v-49h92v49h105v-49h49v-105h-49v-49h-105v49h-92v-49h-104v49h-95v-49h-104v49h-92v-49h-105v49h-92v-49h-104v49h-49z M178 1231v104h49v49h105v-49h92v49h104v-49h50v-104h-50v-49h-104v49h-92v-49h-105v49h-49zM573 1427v105h50v49h104v-49h49v-105h-49v-49h-104v49h-50z" />
<glyph unicode="&#xca;" d="M-18 49v105h49v92h-49v104h49v92h-49v105h49v92h-49v104h49v95h-49v104h49v49h104v-49h92v49h105v-49h92v49h104v-49h95v49h104v-49h92v49h105v-49h49v-104h-49v-50h-105v50h-92v-50h-104v50h-95v-50h-104v50h-92v-50h-105v50h-92v-95h49v-104h-49v-92h92v49h105v-49h92 v49h104v-49h95v49h104v-49h49v-105h-49v-49h-104v49h-95v-49h-104v49h-92v-49h-105v49h-92v-92h49v-104h-49v-92h92v49h105v-49h92v49h104v-49h95v49h104v-49h92v49h105v-49h49v-105h-49v-49h-105v49h-92v-49h-104v49h-95v-49h-104v49h-92v-49h-105v49h-92v-49h-104v49h-49z M178 1231v104h49v49h105v-49h49v-104h-49v-49h-105v49h-49zM375 1427v105h49v49h104v-49h50v-105h-50v-49h-104v49h-49zM573 1231v104h50v49h104v-49h49v-104h-49v-49h-104v49h-50z" />
<glyph unicode="&#xcb;" d="M-18 49v105h49v92h-49v104h49v92h-49v105h49v92h-49v104h49v95h-49v104h49v49h104v-49h92v49h105v-49h92v49h104v-49h95v49h104v-49h92v49h105v-49h49v-104h-49v-50h-105v50h-92v-50h-104v50h-95v-50h-104v50h-92v-50h-105v50h-92v-95h49v-104h-49v-92h92v49h105v-49h92 v49h104v-49h95v49h104v-49h49v-105h-49v-49h-104v49h-95v-49h-104v49h-92v-49h-105v49h-92v-92h49v-104h-49v-92h92v49h105v-49h92v49h104v-49h95v49h104v-49h92v49h105v-49h49v-105h-49v-49h-105v49h-92v-49h-104v49h-95v-49h-104v49h-92v-49h-105v49h-92v-49h-104v49h-49z M-18 1231v104h49v92h-49v105h49v49h104v-49h49v-105h-49v-92h49v-104h-49v-49h-104v49h-49zM770 1231v104h49v92h-49v105h49v49h105v-49h49v-105h-49v-92h49v-104h-49v-49h-105v49h-49z" />
<glyph unicode="&#xcc;" d="M-18 49v105h49v49h104v-49h92v49h105v-49h92v92h-49v104h49v92h-49v105h49v92h-49v104h49v95h-92v-50h-105v50h-92v-50h-104v50h-49v104h49v49h104v-49h92v49h105v-49h92v49h104v-49h95v49h104v-49h92v49h105v-49h49v-104h-49v-50h-105v50h-92v-50h-104v50h-95v-95h50 v-104h-50v-92h50v-105h-50v-92h50v-104h-50v-92h95v49h104v-49h92v49h105v-49h49v-105h-49v-49h-105v49h-92v-49h-104v49h-95v-49h-104v49h-92v-49h-105v49h-92v-49h-104v49h-49zM178 1427v105h49v49h105v-49h49v-105h-49v-49h-105v49h-49zM375 1231v104h49v49h104v-49h95 v49h104v-49h49v-104h-49v-49h-104v49h-95v-49h-104v49h-49z" />
<glyph unicode="&#xcd;" d="M-18 49v105h49v49h104v-49h92v49h105v-49h92v92h-49v104h49v92h-49v105h49v92h-49v104h49v95h-92v-50h-105v50h-92v-50h-104v50h-49v104h49v49h104v-49h92v49h105v-49h92v49h104v-49h95v49h104v-49h92v49h105v-49h49v-104h-49v-50h-105v50h-92v-50h-104v50h-95v-95h50 v-104h-50v-92h50v-105h-50v-92h50v-104h-50v-92h95v49h104v-49h92v49h105v-49h49v-105h-49v-49h-105v49h-92v-49h-104v49h-95v-49h-104v49h-92v-49h-105v49h-92v-49h-104v49h-49zM178 1231v104h49v49h105v-49h92v49h104v-49h50v-104h-50v-49h-104v49h-92v-49h-105v49h-49z M573 1427v105h50v49h104v-49h49v-105h-49v-49h-104v49h-50z" />
<glyph unicode="&#xce;" d="M-18 49v105h49v49h104v-49h92v49h105v-49h92v92h-49v104h49v92h-49v105h49v92h-49v104h49v95h-92v-50h-105v50h-92v-50h-104v50h-49v104h49v49h104v-49h92v49h105v-49h92v49h104v-49h95v49h104v-49h92v49h105v-49h49v-104h-49v-50h-105v50h-92v-50h-104v50h-95v-95h50 v-104h-50v-92h50v-105h-50v-92h50v-104h-50v-92h95v49h104v-49h92v49h105v-49h49v-105h-49v-49h-105v49h-92v-49h-104v49h-95v-49h-104v49h-92v-49h-105v49h-92v-49h-104v49h-49zM178 1231v104h49v49h105v-49h49v-104h-49v-49h-105v49h-49zM375 1427v105h49v49h104v-49h50 v-105h-50v-49h-104v49h-49zM573 1231v104h50v49h104v-49h49v-104h-49v-49h-104v49h-50z" />
<glyph unicode="&#xcf;" d="M-18 49v105h49v49h104v-49h92v49h105v-49h92v92h-49v104h49v92h-49v105h49v92h-49v104h49v95h-92v-50h-105v50h-92v-50h-104v50h-49v104h49v49h104v-49h92v49h105v-49h92v49h104v-49h95v49h104v-49h92v49h105v-49h49v-104h-49v-50h-105v50h-92v-50h-104v50h-95v-95h50 v-104h-50v-92h50v-105h-50v-92h50v-104h-50v-92h95v49h104v-49h92v49h105v-49h49v-105h-49v-49h-105v49h-92v-49h-104v49h-95v-49h-104v49h-92v-49h-105v49h-92v-49h-104v49h-49zM-18 1231v104h49v92h-49v105h49v49h104v-49h49v-105h-49v-92h49v-104h-49v-49h-104v49h-49z M770 1231v104h49v92h-49v105h49v49h105v-49h49v-105h-49v-92h49v-104h-49v-49h-105v49h-49z" />
<glyph unicode="&#xd0;" d="M-18 442v105h49v49h104v-49h92v92h-49v104h49v95h-49v104h49v49h105v-49h92v49h104v-49h95v49h104v-49h49v-104h-49v-50h-104v50h-95v-50h-104v50h-92v-95h49v-104h-49v-92h92v49h104v-49h50v-105h-50v-49h-104v49h-92v-92h49v-104h-49v-92h92v49h104v-49h95v49h104v-49 h49v-105h-49v-49h-104v49h-95v-49h-104v49h-92v-49h-105v49h-49v105h49v92h-49v104h49v92h-92v-49h-104v49h-49zM770 246v104h49v92h-49v105h49v92h-49v104h49v50h105v-50h49v-104h-49v-92h49v-105h-49v-92h49v-104h-49v-49h-105v49h-49z" />
<glyph unicode="&#xd1;" d="M-18 49v105h49v92h-49v104h49v92h-49v105h49v92h-49v104h49v95h-49v104h49v49h104v-49h49v-104h-49v-95h92v50h105v-50h49v-104h-49v-49h-105v49h-92v-92h49v-105h-49v-92h49v-104h-49v-92h49v-105h-49v-49h-104v49h-49zM-18 1231v104h49v49h104v-49h49v-104h-49v-49 h-104v49h-49zM178 1427v105h49v49h105v-49h49v-105h-49v-49h-105v49h-49zM375 442v105h49v49h104v-49h50v-105h-50v-49h-104v49h-49zM375 1231v104h49v49h104v-49h95v49h104v-49h49v-104h-49v-49h-104v49h-95v-49h-104v49h-49zM573 246v104h50v49h104v-49h92v92h-49v105h49 v92h-49v104h49v95h-49v104h49v49h105v-49h49v-104h-49v-95h49v-104h-49v-92h49v-105h-49v-92h49v-104h-49v-92h49v-105h-49v-49h-105v49h-49v105h49v92h-92v-49h-104v49h-50zM770 1427v105h49v49h105v-49h49v-105h-49v-49h-105v49h-49z" />
<glyph unicode="&#xd2;" d="M-18 246v104h49v92h-49v105h49v92h-49v104h49v50h104v-50h49v-104h-49v-92h49v-105h-49v-92h49v-104h-49v-49h-104v49h-49zM178 49v105h49v49h105v-49h92v49h104v-49h95v49h104v-49h49v-105h-49v-49h-104v49h-95v-49h-104v49h-92v-49h-105v49h-49zM178 838v104h49v49h105 v-49h92v49h104v-49h95v49h104v-49h49v-104h-49v-50h-104v50h-95v-50h-104v50h-92v-50h-105v50h-49zM178 1427v105h49v49h105v-49h49v-105h-49v-49h-105v49h-49zM375 1231v104h49v49h104v-49h95v49h104v-49h49v-104h-49v-49h-104v49h-95v-49h-104v49h-49zM770 246v104h49v92 h-49v105h49v92h-49v104h49v50h105v-50h49v-104h-49v-92h49v-105h-49v-92h49v-104h-49v-49h-105v49h-49z" />
<glyph unicode="&#xd3;" d="M-18 246v104h49v92h-49v105h49v92h-49v104h49v50h104v-50h49v-104h-49v-92h49v-105h-49v-92h49v-104h-49v-49h-104v49h-49zM178 49v105h49v49h105v-49h92v49h104v-49h95v49h104v-49h49v-105h-49v-49h-104v49h-95v-49h-104v49h-92v-49h-105v49h-49zM178 838v104h49v49h105 v-49h92v49h104v-49h95v49h104v-49h49v-104h-49v-50h-104v50h-95v-50h-104v50h-92v-50h-105v50h-49zM178 1231v104h49v49h105v-49h92v49h104v-49h50v-104h-50v-49h-104v49h-92v-49h-105v49h-49zM573 1427v105h50v49h104v-49h49v-105h-49v-49h-104v49h-50zM770 246v104h49v92 h-49v105h49v92h-49v104h49v50h105v-50h49v-104h-49v-92h49v-105h-49v-92h49v-104h-49v-49h-105v49h-49z" />
<glyph unicode="&#xd4;" d="M-18 246v104h49v92h-49v105h49v92h-49v104h49v50h104v-50h49v-104h-49v-92h49v-105h-49v-92h49v-104h-49v-49h-104v49h-49zM178 49v105h49v49h105v-49h92v49h104v-49h95v49h104v-49h49v-105h-49v-49h-104v49h-95v-49h-104v49h-92v-49h-105v49h-49zM178 838v104h49v49h105 v-49h92v49h104v-49h95v49h104v-49h49v-104h-49v-50h-104v50h-95v-50h-104v50h-92v-50h-105v50h-49zM178 1231v104h49v49h105v-49h49v-104h-49v-49h-105v49h-49zM375 1427v105h49v49h104v-49h50v-105h-50v-49h-104v49h-49zM573 1231v104h50v49h104v-49h49v-104h-49v-49h-104 v49h-50zM770 246v104h49v92h-49v105h49v92h-49v104h49v50h105v-50h49v-104h-49v-92h49v-105h-49v-92h49v-104h-49v-49h-105v49h-49z" />
<glyph unicode="&#xd5;" d="M-18 246v104h49v92h-49v105h49v92h-49v104h49v50h104v-50h49v-104h-49v-92h49v-105h-49v-92h49v-104h-49v-49h-104v49h-49zM-18 1231v104h49v49h104v-49h49v-104h-49v-49h-104v49h-49zM178 49v105h49v49h105v-49h92v49h104v-49h95v49h104v-49h49v-105h-49v-49h-104v49 h-95v-49h-104v49h-92v-49h-105v49h-49zM178 838v104h49v49h105v-49h92v49h104v-49h95v49h104v-49h49v-104h-49v-50h-104v50h-95v-50h-104v50h-92v-50h-105v50h-49zM178 1427v105h49v49h105v-49h49v-105h-49v-49h-105v49h-49zM375 1231v104h49v49h104v-49h95v49h104v-49h49 v-104h-49v-49h-104v49h-95v-49h-104v49h-49zM770 246v104h49v92h-49v105h49v92h-49v104h49v50h105v-50h49v-104h-49v-92h49v-105h-49v-92h49v-104h-49v-49h-105v49h-49zM770 1427v105h49v49h105v-49h49v-105h-49v-49h-105v49h-49z" />
<glyph unicode="&#xd6;" d="M-18 246v104h49v92h-49v105h49v92h-49v104h49v50h104v-50h49v-104h-49v-92h49v-105h-49v-92h49v-104h-49v-49h-104v49h-49zM-18 1231v104h49v92h-49v105h49v49h104v-49h49v-105h-49v-92h49v-104h-49v-49h-104v49h-49zM178 49v105h49v49h105v-49h92v49h104v-49h95v49h104 v-49h49v-105h-49v-49h-104v49h-95v-49h-104v49h-92v-49h-105v49h-49zM178 838v104h49v49h105v-49h92v49h104v-49h95v49h104v-49h49v-104h-49v-50h-104v50h-95v-50h-104v50h-92v-50h-105v50h-49zM770 246v104h49v92h-49v105h49v92h-49v104h49v50h105v-50h49v-104h-49v-92h49 v-105h-49v-92h49v-104h-49v-49h-105v49h-49zM770 1231v104h49v92h-49v105h49v49h105v-49h49v-105h-49v-92h49v-104h-49v-49h-105v49h-49z" />
<glyph unicode="&#xd7;" d="M-14 49v103h49v47h102v-47h49v-103h-49v-49h-102v49h-49zM-14 821v103h49v49h102v-49h49v-103h-49v-47h-102v47h-49zM180 242v102h47v49h103v-49h49v-102h-49v-49h-103v49h-47zM180 629v102h47v49h103v-49h49v-102h-49v-49h-103v49h-47zM373 434v105h49v47h102v-47h49 v-105h-49v-47h-102v47h-49zM567 242v102h47v49h103v-49h49v-102h-49v-49h-103v49h-47zM567 629v102h47v49h103v-49h49v-102h-49v-49h-103v49h-47zM760 49v103h49v47h102v-47h47v-103h-47v-49h-102v49h-49zM760 821v103h49v49h102v-49h47v-103h-47v-47h-102v47h-49z" />
<glyph unicode="&#xd8;" d="M-18 246v104h49v92h-49v105h49v92h-49v104h49v50h104v-50h49v-104h-49v-92h49v-105h-49v-92h96v49h105v-49h49v-104h-49v-49h-4v-43h92v49h104v-49h95v49h104v-49h49v-105h-49v-49h-104v49h-95v-49h-104v49h-92v-49h-105v49h-49v105h49v49h4v43h-96v-49h-104v49h-49z M178 838v104h49v49h105v-49h92v49h108v-49h91v49h4v43h-52v105h52v49h102v-49h51v-105h-51v-49h-2v-43h49v-104h-49v-50h-104v50h-91v-95h50v-104h-50v-92h50v-105h-50v-49h-104v49h-49v105h49v92h-49v104h49v45h-4v50h-92v-50h-105v50h-49zM770 246v104h49v92h-49v105h49 v92h-49v104h49v50h105v-50h49v-104h-49v-92h49v-105h-49v-92h49v-104h-49v-49h-105v49h-49z" />
<glyph unicode="&#xd9;" d="M-18 246v104h49v92h-49v105h49v92h-49v104h49v95h-49v104h49v49h104v-49h49v-104h-49v-95h49v-104h-49v-92h49v-105h-49v-92h49v-104h-49v-49h-104v49h-49zM178 49v105h49v49h105v-49h92v49h104v-49h95v49h104v-49h49v-105h-49v-49h-104v49h-95v-49h-104v49h-92v-49h-105 v49h-49zM178 1427v105h49v49h105v-49h49v-105h-49v-49h-105v49h-49zM375 1231v104h49v49h104v-49h95v49h104v-49h49v-104h-49v-49h-104v49h-95v-49h-104v49h-49zM770 246v104h49v92h-49v105h49v92h-49v104h49v95h-49v104h49v49h105v-49h49v-104h-49v-95h49v-104h-49v-92h49 v-105h-49v-92h49v-104h-49v-49h-105v49h-49z" />
<glyph unicode="&#xda;" d="M-18 246v104h49v92h-49v105h49v92h-49v104h49v95h-49v104h49v49h104v-49h49v-104h-49v-95h49v-104h-49v-92h49v-105h-49v-92h49v-104h-49v-49h-104v49h-49zM178 49v105h49v49h105v-49h92v49h104v-49h95v49h104v-49h49v-105h-49v-49h-104v49h-95v-49h-104v49h-92v-49h-105 v49h-49zM178 1231v104h49v49h105v-49h92v49h104v-49h50v-104h-50v-49h-104v49h-92v-49h-105v49h-49zM573 1427v105h50v49h104v-49h49v-105h-49v-49h-104v49h-50zM770 246v104h49v92h-49v105h49v92h-49v104h49v95h-49v104h49v49h105v-49h49v-104h-49v-95h49v-104h-49v-92h49 v-105h-49v-92h49v-104h-49v-49h-105v49h-49z" />
<glyph unicode="&#xdb;" d="M-18 246v104h49v92h-49v105h49v92h-49v104h49v95h-49v104h49v49h104v-49h49v-104h-49v-95h49v-104h-49v-92h49v-105h-49v-92h49v-104h-49v-49h-104v49h-49zM178 49v105h49v49h105v-49h92v49h104v-49h95v49h104v-49h49v-105h-49v-49h-104v49h-95v-49h-104v49h-92v-49h-105 v49h-49zM178 1231v104h49v49h105v-49h49v-104h-49v-49h-105v49h-49zM375 1427v105h49v49h104v-49h50v-105h-50v-49h-104v49h-49zM573 1231v104h50v49h104v-49h49v-104h-49v-49h-104v49h-50zM770 246v104h49v92h-49v105h49v92h-49v104h49v95h-49v104h49v49h105v-49h49v-104 h-49v-95h49v-104h-49v-92h49v-105h-49v-92h49v-104h-49v-49h-105v49h-49z" />
<glyph unicode="&#xdc;" d="M-18 246v104h49v92h-49v105h49v92h-49v104h49v95h-49v104h49v49h104v-49h49v-104h-49v-95h49v-104h-49v-92h49v-105h-49v-92h49v-104h-49v-49h-104v49h-49zM-18 1231v104h49v92h-49v105h49v49h104v-49h49v-105h-49v-92h49v-104h-49v-49h-104v49h-49zM178 49v105h49v49 h105v-49h92v49h104v-49h95v49h104v-49h49v-105h-49v-49h-104v49h-95v-49h-104v49h-92v-49h-105v49h-49zM770 246v104h49v92h-49v105h49v92h-49v104h49v95h-49v104h49v49h105v-49h49v-104h-49v-95h49v-104h-49v-92h49v-105h-49v-92h49v-104h-49v-49h-105v49h-49zM770 1231 v104h49v92h-49v105h49v49h105v-49h49v-105h-49v-92h49v-104h-49v-49h-105v49h-49z" />
<glyph unicode="&#xdd;" d="M-18 639v104h49v95h-49v104h49v49h104v-49h49v-104h-49v-95h49v-104h-49v-49h-104v49h-49zM178 442v105h49v49h105v-49h49v-105h-49v-49h-105v49h-49zM178 1231v104h49v49h105v-49h92v49h104v-49h50v-104h-50v-49h-104v49h-92v-49h-105v49h-49zM375 49v105h49v92h-49v104 h49v49h104v-49h50v-104h-50v-92h50v-105h-50v-49h-104v49h-49zM573 442v105h50v49h104v-49h49v-105h-49v-49h-104v49h-50zM573 1427v105h50v49h104v-49h49v-105h-49v-49h-104v49h-50zM770 639v104h49v95h-49v104h49v49h105v-49h49v-104h-49v-95h49v-104h-49v-49h-105v49h-49 z" />
<glyph unicode="&#xde;" d="M-18 49v105h49v92h-49v104h49v92h-49v105h49v92h-49v104h49v95h-49v104h49v49h104v-49h49v-104h-49v-95h92v50h105v-50h92v50h104v-50h95v50h104v-50h49v-104h-49v-49h-104v49h-95v-49h-104v49h-92v-49h-105v49h-92v-92h49v-105h-49v-92h92v49h105v-49h92v49h104v-49h95 v49h104v-49h49v-104h-49v-49h-104v49h-95v-49h-104v49h-92v-49h-105v49h-92v-92h49v-105h-49v-49h-104v49h-49zM770 442v105h49v49h105v-49h49v-105h-49v-49h-105v49h-49z" />
<glyph unicode="&#xdf;" d="M-16 49v103h49v90h-49v102h49v90h-49v105h49v90h-49v102h49v49h102v-49h47v-102h-47v-90h47v-105h-47v-90h47v-102h-47v-90h47v-103h-47v-49h-102v49h-49zM176 821v103h49v49h103v-49h90v49h104v-49h47v-103h-47v-47h-104v47h-90v-47h-103v47h-49zM371 49v103h47v47h104 v-47h47v-103h-47v-49h-104v49h-47zM371 434v105h47v47h104v-47h47v-105h-47v-47h-104v47h-47zM563 242v102h49v49h103v-49h49v-102h-49v-49h-103v49h-49zM563 629v102h49v49h103v-49h49v-102h-49v-49h-103v49h-49z" />
<glyph unicode="&#xe0;" d="M-14 242v102h49v49h102v-49h49v-102h-49v-49h-102v49h-49zM180 49v103h47v47h103v-47h92v47h102v-47h90v47h103v-47h92v90h-49v102h49v90h-92v-47h-103v47h-90v-47h-102v47h-92v-47h-103v47h-47v105h47v47h103v-47h92v47h102v-47h90v47h103v-47h92v90h-49v102h49v49h102 v-49h47v-102h-47v-90h47v-105h-47v-90h47v-102h-47v-90h47v-103h-47v-49h-102v49h-92v-49h-103v49h-90v-49h-102v49h-92v-49h-103v49h-47zM180 821v103h47v49h103v-49h92v49h102v-49h90v49h103v-49h49v-103h-49v-47h-103v47h-90v-47h-102v47h-92v-47h-103v47h-47zM180 1403 v102h47v47h103v-47h49v-102h-49v-49h-103v49h-47zM373 1208v103h49v49h102v-49h90v49h103v-49h49v-103h-49v-47h-103v47h-90v-47h-102v47h-49z" />
<glyph unicode="&#xe1;" d="M-14 242v102h49v49h102v-49h49v-102h-49v-49h-102v49h-49zM180 49v103h47v47h103v-47h92v47h102v-47h90v47h103v-47h92v90h-49v102h49v90h-92v-47h-103v47h-90v-47h-102v47h-92v-47h-103v47h-47v105h47v47h103v-47h92v47h102v-47h90v47h103v-47h92v90h-49v102h49v49h102 v-49h47v-102h-47v-90h47v-105h-47v-90h47v-102h-47v-90h47v-103h-47v-49h-102v49h-92v-49h-103v49h-90v-49h-102v49h-92v-49h-103v49h-47zM180 821v103h47v49h103v-49h92v49h102v-49h90v49h103v-49h49v-103h-49v-47h-103v47h-90v-47h-102v47h-92v-47h-103v47h-47zM180 1208 v103h47v49h103v-49h92v49h102v-49h49v-103h-49v-47h-102v47h-92v-47h-103v47h-47zM567 1403v102h47v47h103v-47h49v-102h-49v-49h-103v49h-47z" />
<glyph unicode="&#xe2;" d="M-14 242v102h49v49h102v-49h49v-102h-49v-49h-102v49h-49zM180 49v103h47v47h103v-47h92v47h102v-47h90v47h103v-47h92v90h-49v102h49v90h-92v-47h-103v47h-90v-47h-102v47h-92v-47h-103v47h-47v105h47v47h103v-47h92v47h102v-47h90v47h103v-47h92v90h-49v102h49v49h102 v-49h47v-102h-47v-90h47v-105h-47v-90h47v-102h-47v-90h47v-103h-47v-49h-102v49h-92v-49h-103v49h-90v-49h-102v49h-92v-49h-103v49h-47zM180 821v103h47v49h103v-49h92v49h102v-49h90v49h103v-49h49v-103h-49v-47h-103v47h-90v-47h-102v47h-92v-47h-103v47h-47z" />
<glyph unicode="&#xe3;" d="M-14 242v102h49v49h102v-49h49v-102h-49v-49h-102v49h-49zM-14 1208v103h49v49h102v-49h49v-103h-49v-47h-102v47h-49zM180 49v103h47v47h103v-47h92v47h102v-47h90v47h103v-47h92v90h-49v102h49v90h-92v-47h-103v47h-90v-47h-102v47h-92v-47h-103v47h-47v105h47v47h103 v-47h92v47h102v-47h90v47h103v-47h92v90h-49v102h49v49h102v-49h47v-102h-47v-90h47v-105h-47v-90h47v-102h-47v-90h47v-103h-47v-49h-102v49h-92v-49h-103v49h-90v-49h-102v49h-92v-49h-103v49h-47zM180 821v103h47v49h103v-49h92v49h102v-49h90v49h103v-49h49v-103h-49 v-47h-103v47h-90v-47h-102v47h-92v-47h-103v47h-47zM180 1403v102h47v47h103v-47h49v-102h-49v-49h-103v49h-47zM373 1208v103h49v49h102v-49h90v49h103v-49h49v-103h-49v-47h-103v47h-90v-47h-102v47h-49zM760 1403v102h49v47h102v-47h47v-102h-47v-49h-102v49h-49z" />
<glyph unicode="&#xe4;" d="M-14 242v102h49v49h102v-49h49v-102h-49v-49h-102v49h-49zM-14 1208v103h49v92h-49v102h49v47h102v-47h49v-102h-49v-92h49v-103h-49v-47h-102v47h-49zM180 49v103h47v47h103v-47h92v47h102v-47h90v47h103v-47h92v90h-49v102h49v90h-92v-47h-103v47h-90v-47h-102v47h-92 v-47h-103v47h-47v105h47v47h103v-47h92v47h102v-47h90v47h103v-47h92v90h-49v102h49v49h102v-49h47v-102h-47v-90h47v-105h-47v-90h47v-102h-47v-90h47v-103h-47v-49h-102v49h-92v-49h-103v49h-90v-49h-102v49h-92v-49h-103v49h-47zM180 821v103h47v49h103v-49h92v49h102 v-49h90v49h103v-49h49v-103h-49v-47h-103v47h-90v-47h-102v47h-92v-47h-103v47h-47zM760 1208v103h49v92h-49v102h49v47h102v-47h47v-102h-47v-92h47v-103h-47v-47h-102v47h-49z" />
<glyph unicode="&#xe5;" d="M-14 242v102h49v49h102v-49h49v-102h-49v-49h-102v49h-49zM180 49v103h47v47h103v-47h92v47h102v-47h90v47h103v-47h92v90h-49v102h49v90h-92v-47h-103v47h-90v-47h-102v47h-92v-47h-103v47h-47v105h47v47h103v-47h92v47h102v-47h90v47h103v-47h92v90h-49v102h49v49h102 v-49h47v-102h-47v-90h47v-105h-47v-90h47v-102h-47v-90h47v-103h-47v-49h-102v49h-92v-49h-103v49h-90v-49h-102v49h-92v-49h-103v49h-47zM180 821v103h47v49h103v-49h92v49h102v-49h90v49h103v-49h49v-103h-49v-47h-103v47h-90v-47h-102v47h-92v-47h-103v47h-47zM180 1403 v102h47v47h103v-47h49v-102h-49v-49h-103v49h-47zM373 1208v103h49v49h102v-49h49v-103h-49v-47h-102v47h-49zM373 1595v103h49v49h102v-49h49v-103h-49v-49h-102v49h-49zM567 1403v102h47v47h103v-47h49v-102h-49v-49h-103v49h-47z" />
<glyph unicode="&#xe6;" d="M-14 242v102h49v49h102v-49h49v-102h-49v-49h-102v49h-49zM180 49v103h47v47h103v-47h92v90h-49v102h49v90h-92v-47h-103v47h-47v105h47v47h103v-47h92v90h-49v102h49v49h102v-49h49v-102h-49v-90h90v47h103v-47h49v-105h-49v-47h-103v47h-90v-90h49v-102h-49v-90h90v47 h103v-47h92v47h102v-47h47v-103h-47v-49h-102v49h-92v-49h-103v49h-90v-49h-102v49h-92v-49h-103v49h-47zM180 821v103h47v49h103v-49h49v-103h-49v-47h-103v47h-47zM567 821v103h47v49h103v-49h49v-103h-49v-47h-103v47h-47zM760 629v102h49v49h102v-49h47v-102h-47v-49 h-102v49h-49z" />
<glyph unicode="&#xe7;" d="M-14 242v102h49v90h-49v105h49v90h-49v102h49v49h102v-49h49v-102h-49v-90h49v-105h-49v-90h49v-102h-49v-49h-102v49h-49zM180 49v103h47v47h103v-47h92v47h102v-47h90v47h103v-47h49v-103h-49v-49h-103v49h-90v-92h49v-102h-49v-48h-102v48h-49v102h49v92h-92v-49h-103 v49h-47zM180 -236h47v48h103v-48h49v-102h-49v-49h-103v49h-47v102zM180 821v103h47v49h103v-49h92v49h102v-49h90v49h103v-49h49v-103h-49v-47h-103v47h-90v-47h-102v47h-92v-47h-103v47h-47zM760 242v102h49v49h102v-49h47v-102h-47v-49h-102v49h-49zM760 629v102h49v49 h102v-49h47v-102h-47v-49h-102v49h-49z" />
<glyph unicode="&#xe8;" d="M-14 242v102h49v90h-49v105h49v90h-49v102h49v49h102v-49h49v-102h-49v-90h90v47h103v-47h92v47h102v-47h90v47h103v-47h92v90h-49v102h49v49h102v-49h47v-102h-47v-90h47v-105h-47v-47h-102v47h-92v-47h-103v47h-90v-47h-102v47h-92v-47h-103v47h-90v-90h49v-102h-49 v-49h-102v49h-49zM180 49v103h47v47h103v-47h92v47h102v-47h90v47h103v-47h92v47h102v-47h47v-103h-47v-49h-102v49h-92v-49h-103v49h-90v-49h-102v49h-92v-49h-103v49h-47zM180 821v103h47v49h103v-49h92v49h102v-49h90v49h103v-49h49v-103h-49v-47h-103v47h-90v-47h-102 v47h-92v-47h-103v47h-47zM180 1403v102h47v47h103v-47h49v-102h-49v-49h-103v49h-47zM373 1208v103h49v49h102v-49h90v49h103v-49h49v-103h-49v-47h-103v47h-90v-47h-102v47h-49z" />
<glyph unicode="&#xe9;" d="M-14 242v102h49v90h-49v105h49v90h-49v102h49v49h102v-49h49v-102h-49v-90h90v47h103v-47h92v47h102v-47h90v47h103v-47h92v90h-49v102h49v49h102v-49h47v-102h-47v-90h47v-105h-47v-47h-102v47h-92v-47h-103v47h-90v-47h-102v47h-92v-47h-103v47h-90v-90h49v-102h-49 v-49h-102v49h-49zM180 49v103h47v47h103v-47h92v47h102v-47h90v47h103v-47h92v47h102v-47h47v-103h-47v-49h-102v49h-92v-49h-103v49h-90v-49h-102v49h-92v-49h-103v49h-47zM180 821v103h47v49h103v-49h92v49h102v-49h90v49h103v-49h49v-103h-49v-47h-103v47h-90v-47h-102 v47h-92v-47h-103v47h-47zM180 1208v103h47v49h103v-49h92v49h102v-49h49v-103h-49v-47h-102v47h-92v-47h-103v47h-47zM567 1403v102h47v47h103v-47h49v-102h-49v-49h-103v49h-47z" />
<glyph unicode="&#xea;" d="M-14 242v102h49v90h-49v105h49v90h-49v102h49v49h102v-49h49v-102h-49v-90h90v47h103v-47h92v47h102v-47h90v47h103v-47h92v90h-49v102h49v49h102v-49h47v-102h-47v-90h47v-105h-47v-47h-102v47h-92v-47h-103v47h-90v-47h-102v47h-92v-47h-103v47h-90v-90h49v-102h-49 v-49h-102v49h-49zM180 49v103h47v47h103v-47h92v47h102v-47h90v47h103v-47h92v47h102v-47h47v-103h-47v-49h-102v49h-92v-49h-103v49h-90v-49h-102v49h-92v-49h-103v49h-47zM180 821v103h47v49h103v-49h92v49h102v-49h90v49h103v-49h49v-103h-49v-47h-103v47h-90v-47h-102 v47h-92v-47h-103v47h-47zM180 1208v103h47v49h103v-49h49v-103h-49v-47h-103v47h-47zM373 1403v102h49v47h102v-47h49v-102h-49v-49h-102v49h-49zM567 1208v103h47v49h103v-49h49v-103h-49v-47h-103v47h-47z" />
<glyph unicode="&#xeb;" d="M-14 242v102h49v90h-49v105h49v90h-49v102h49v49h102v-49h49v-102h-49v-90h90v47h103v-47h92v47h102v-47h90v47h103v-47h92v90h-49v102h49v49h102v-49h47v-102h-47v-90h47v-105h-47v-47h-102v47h-92v-47h-103v47h-90v-47h-102v47h-92v-47h-103v47h-90v-90h49v-102h-49 v-49h-102v49h-49zM-14 1208v103h49v92h-49v102h49v47h102v-47h49v-102h-49v-92h49v-103h-49v-47h-102v47h-49zM180 49v103h47v47h103v-47h92v47h102v-47h90v47h103v-47h92v47h102v-47h47v-103h-47v-49h-102v49h-92v-49h-103v49h-90v-49h-102v49h-92v-49h-103v49h-47z M180 821v103h47v49h103v-49h92v49h102v-49h90v49h103v-49h49v-103h-49v-47h-103v47h-90v-47h-102v47h-92v-47h-103v47h-47zM760 1208v103h49v92h-49v102h49v47h102v-47h47v-102h-47v-92h47v-103h-47v-47h-102v47h-49z" />
<glyph unicode="&#xec;" d="M-14 49v103h49v47h102v-47h90v47h103v-47h92v90h-49v102h49v90h-49v105h49v90h-49v102h49v90h-92v-47h-103v47h-90v-47h-102v47h-49v103h49v49h102v-49h90v49h103v-49h92v49h102v-49h49v-103h-49v-90h49v-102h-49v-90h49v-105h-49v-90h49v-102h-49v-90h90v47h103v-47h92 v47h102v-47h47v-103h-47v-49h-102v49h-92v-49h-103v49h-90v-49h-102v49h-92v-49h-103v49h-90v-49h-102v49h-49zM180 1403v102h47v47h103v-47h49v-102h-49v-49h-103v49h-47zM373 1208v103h49v49h102v-49h90v49h103v-49h49v-103h-49v-47h-103v47h-90v-47h-102v47h-49z" />
<glyph unicode="&#xed;" d="M-14 49v103h49v47h102v-47h90v47h103v-47h92v90h-49v102h49v90h-49v105h49v90h-49v102h49v90h-92v-47h-103v47h-90v-47h-102v47h-49v103h49v49h102v-49h90v49h103v-49h92v49h102v-49h49v-103h-49v-90h49v-102h-49v-90h49v-105h-49v-90h49v-102h-49v-90h90v47h103v-47h92 v47h102v-47h47v-103h-47v-49h-102v49h-92v-49h-103v49h-90v-49h-102v49h-92v-49h-103v49h-90v-49h-102v49h-49zM180 1208v103h47v49h103v-49h92v49h102v-49h49v-103h-49v-47h-102v47h-92v-47h-103v47h-47zM567 1403v102h47v47h103v-47h49v-102h-49v-49h-103v49h-47z" />
<glyph unicode="&#xee;" d="M-14 49v103h49v47h102v-47h90v47h103v-47h92v90h-49v102h49v90h-49v105h49v90h-49v102h49v90h-92v-47h-103v47h-90v-47h-102v47h-49v103h49v49h102v-49h90v49h103v-49h92v49h102v-49h49v-103h-49v-90h49v-102h-49v-90h49v-105h-49v-90h49v-102h-49v-90h90v47h103v-47h92 v47h102v-47h47v-103h-47v-49h-102v49h-92v-49h-103v49h-90v-49h-102v49h-92v-49h-103v49h-90v-49h-102v49h-49zM180 1208v103h47v49h103v-49h49v-103h-49v-47h-103v47h-47zM373 1403v102h49v47h102v-47h49v-102h-49v-49h-102v49h-49zM567 1208v103h47v49h103v-49h49v-103 h-49v-47h-103v47h-47z" />
<glyph unicode="&#xef;" d="M-14 49v103h49v47h102v-47h90v47h103v-47h92v90h-49v102h49v90h-49v105h49v90h-49v102h49v90h-92v-47h-103v47h-90v-47h-102v47h-49v103h49v49h102v-49h90v49h103v-49h92v49h102v-49h49v-103h-49v-90h49v-102h-49v-90h49v-105h-49v-90h49v-102h-49v-90h90v47h103v-47h92 v47h102v-47h47v-103h-47v-49h-102v49h-92v-49h-103v49h-90v-49h-102v49h-92v-49h-103v49h-90v-49h-102v49h-49zM-14 1208v103h49v92h-49v102h49v47h102v-47h49v-102h-49v-92h49v-103h-49v-47h-102v47h-49zM760 1208v103h49v92h-49v102h49v47h102v-47h47v-102h-47v-92h47 v-103h-47v-47h-102v47h-49z" />
<glyph unicode="&#xf0;" d="M135 242v102h49v49h103v-49h49v-102h-49v-49h-103v49h-49zM330 49v103h47v47h102v-47h92v47h103v-47h90v47h102v-47h49v-103h-49v-49h-102v49h-90v-49h-103v49h-92v-49h-102v49h-47zM330 434v105h47v47h102v-47h92v47h103v-47h90v90h-47v102h47v49h102v-49h49v-102h-49 v-90h92v47h103v-47h47v-105h-47v-90h47v-102h-47v-49h-103v49h-49v102h49v90h-92v-47h-102v47h-90v-47h-103v47h-92v-47h-102v47h-47zM330 821v103h47v49h102v-49h92v49h103v-49h47v-103h-47v-47h-103v47h-92v-47h-102v47h-47zM909 821v103h49v49h103v-49h47v-103h-47v-47 h-103v47h-49z" />
<glyph unicode="&#xf1;" d="M-14 49v103h49v90h-49v102h49v90h-49v105h49v90h-49v102h49v90h-49v103h49v49h102v-49h49v-103h-49v-90h90v49h103v-49h49v-102h-49v-49h-103v49h-90v-90h49v-105h-49v-90h49v-102h-49v-90h49v-103h-49v-49h-102v49h-49zM-14 1208v103h49v49h102v-49h49v-103h-49v-47 h-102v47h-49zM180 1403v102h47v47h103v-47h49v-102h-49v-49h-103v49h-47zM373 821v103h49v49h102v-49h90v49h103v-49h49v-103h-49v-47h-103v47h-90v-47h-102v47h-49zM373 1208v103h49v49h102v-49h90v49h103v-49h49v-103h-49v-47h-103v47h-90v-47h-102v47h-49zM760 49v103h49 v90h-49v102h49v90h-49v105h49v90h-49v102h49v49h102v-49h47v-102h-47v-90h47v-105h-47v-90h47v-102h-47v-90h47v-103h-47v-49h-102v49h-49zM760 1403v102h49v47h102v-47h47v-102h-47v-49h-102v49h-49z" />
<glyph unicode="&#xf2;" d="M-14 242v102h49v90h-49v105h49v90h-49v102h49v49h102v-49h49v-102h-49v-90h49v-105h-49v-90h49v-102h-49v-49h-102v49h-49zM180 49v103h47v47h103v-47h92v47h102v-47h90v47h103v-47h49v-103h-49v-49h-103v49h-90v-49h-102v49h-92v-49h-103v49h-47zM180 821v103h47v49h103 v-49h92v49h102v-49h90v49h103v-49h49v-103h-49v-47h-103v47h-90v-47h-102v47h-92v-47h-103v47h-47zM180 1403v102h47v47h103v-47h49v-102h-49v-49h-103v49h-47zM373 1208v103h49v49h102v-49h90v49h103v-49h49v-103h-49v-47h-103v47h-90v-47h-102v47h-49zM760 242v102h49v90 h-49v105h49v90h-49v102h49v49h102v-49h47v-102h-47v-90h47v-105h-47v-90h47v-102h-47v-49h-102v49h-49z" />
<glyph unicode="&#xf3;" d="M-14 242v102h49v90h-49v105h49v90h-49v102h49v49h102v-49h49v-102h-49v-90h49v-105h-49v-90h49v-102h-49v-49h-102v49h-49zM180 49v103h47v47h103v-47h92v47h102v-47h90v47h103v-47h49v-103h-49v-49h-103v49h-90v-49h-102v49h-92v-49h-103v49h-47zM180 821v103h47v49h103 v-49h92v49h102v-49h90v49h103v-49h49v-103h-49v-47h-103v47h-90v-47h-102v47h-92v-47h-103v47h-47zM180 1208v103h47v49h103v-49h92v49h102v-49h49v-103h-49v-47h-102v47h-92v-47h-103v47h-47zM567 1403v102h47v47h103v-47h49v-102h-49v-49h-103v49h-47zM760 242v102h49v90 h-49v105h49v90h-49v102h49v49h102v-49h47v-102h-47v-90h47v-105h-47v-90h47v-102h-47v-49h-102v49h-49z" />
<glyph unicode="&#xf4;" d="M-14 242v102h49v90h-49v105h49v90h-49v102h49v49h102v-49h49v-102h-49v-90h49v-105h-49v-90h49v-102h-49v-49h-102v49h-49zM180 49v103h47v47h103v-47h92v47h102v-47h90v47h103v-47h49v-103h-49v-49h-103v49h-90v-49h-102v49h-92v-49h-103v49h-47zM180 821v103h47v49h103 v-49h92v49h102v-49h90v49h103v-49h49v-103h-49v-47h-103v47h-90v-47h-102v47h-92v-47h-103v47h-47zM180 1208v103h47v49h103v-49h49v-103h-49v-47h-103v47h-47zM373 1403v102h49v47h102v-47h49v-102h-49v-49h-102v49h-49zM567 1208v103h47v49h103v-49h49v-103h-49v-47h-103 v47h-47zM760 242v102h49v90h-49v105h49v90h-49v102h49v49h102v-49h47v-102h-47v-90h47v-105h-47v-90h47v-102h-47v-49h-102v49h-49z" />
<glyph unicode="&#xf5;" d="M-14 242v102h49v90h-49v105h49v90h-49v102h49v49h102v-49h49v-102h-49v-90h49v-105h-49v-90h49v-102h-49v-49h-102v49h-49zM-14 1208v103h49v49h102v-49h49v-103h-49v-47h-102v47h-49zM180 49v103h47v47h103v-47h92v47h102v-47h90v47h103v-47h49v-103h-49v-49h-103v49 h-90v-49h-102v49h-92v-49h-103v49h-47zM180 821v103h47v49h103v-49h92v49h102v-49h90v49h103v-49h49v-103h-49v-47h-103v47h-90v-47h-102v47h-92v-47h-103v47h-47zM180 1403v102h47v47h103v-47h49v-102h-49v-49h-103v49h-47zM373 1208v103h49v49h102v-49h90v49h103v-49h49 v-103h-49v-47h-103v47h-90v-47h-102v47h-49zM760 242v102h49v90h-49v105h49v90h-49v102h49v49h102v-49h47v-102h-47v-90h47v-105h-47v-90h47v-102h-47v-49h-102v49h-49zM760 1403v102h49v47h102v-47h47v-102h-47v-49h-102v49h-49z" />
<glyph unicode="&#xf6;" d="M-14 242v102h49v90h-49v105h49v90h-49v102h49v49h102v-49h49v-102h-49v-90h49v-105h-49v-90h49v-102h-49v-49h-102v49h-49zM-14 1208v103h49v92h-49v102h49v47h102v-47h49v-102h-49v-92h49v-103h-49v-47h-102v47h-49zM180 49v103h47v47h103v-47h92v47h102v-47h90v47h103 v-47h49v-103h-49v-49h-103v49h-90v-49h-102v49h-92v-49h-103v49h-47zM180 821v103h47v49h103v-49h92v49h102v-49h90v49h103v-49h49v-103h-49v-47h-103v47h-90v-47h-102v47h-92v-47h-103v47h-47zM760 242v102h49v90h-49v105h49v90h-49v102h49v49h102v-49h47v-102h-47v-90h47 v-105h-47v-90h47v-102h-47v-49h-102v49h-49zM760 1208v103h49v92h-49v102h49v47h102v-47h47v-102h-47v-92h47v-103h-47v-47h-102v47h-49z" />
<glyph unicode="&#xf7;" d="M-14 434v105h49v47h102v-47h90v47h103v-47h92v47h102v-47h90v47h103v-47h92v47h102v-47h47v-105h-47v-47h-102v47h-92v-47h-103v47h-90v-47h-102v47h-92v-47h-103v47h-90v-47h-102v47h-49zM373 49v103h49v47h102v-47h49v-103h-49v-49h-102v49h-49zM373 821v103h49v49h102 v-49h49v-103h-49v-47h-102v47h-49z" />
<glyph unicode="&#xf8;" d="M-14 242v102h49v90h-49v105h49v90h-49v102h49v49h102v-49h49v-102h-49v-90h49v-105h-49v-90h90v49h103v-49h49v-102h-49v-90h92v47h102v-47h90v47h103v-47h49v-103h-49v-49h-103v49h-90v-49h-102v49h-92v-49h-103v49h-47v103h47v90h-90v-49h-102v49h-49zM-12 -43h49v49 h102v-49h49v-102h-49v-48h-102v48h-49v102zM180 821v103h47v49h103v-49h92v49h102v-49h90v49h103v-49h49v-103h-49v-90h92v49h102v-49h47v-102h-47v-90h47v-105h-47v-90h47v-102h-47v-49h-102v49h-49v102h49v90h-49v105h49v90h-92v-49h-103v49h-47v102h47v90h-90v-47h-102 v47h-92v-47h-103v47h-47zM373 434v105h49v47h102v-47h49v-105h-49v-47h-102v47h-49zM760 1016v102h49v47h102v-47h47v-102h-47v-49h-102v49h-49z" />
<glyph unicode="&#xf9;" d="M-14 242v102h49v90h-49v105h49v90h-49v102h49v90h-49v103h49v49h102v-49h49v-103h-49v-90h49v-102h-49v-90h49v-105h-49v-90h49v-102h-49v-49h-102v49h-49zM180 49v103h47v47h103v-47h92v47h102v-47h49v-103h-49v-49h-102v49h-92v-49h-103v49h-47zM180 1403v102h47v47 h103v-47h49v-102h-49v-49h-103v49h-47zM373 1208v103h49v49h102v-49h90v49h103v-49h49v-103h-49v-47h-103v47h-90v-47h-102v47h-49zM567 242v102h47v49h103v-49h92v90h-49v105h49v90h-49v102h49v90h-49v103h49v49h102v-49h47v-103h-47v-90h47v-102h-47v-90h47v-105h-47v-90 h47v-102h-47v-90h47v-103h-47v-49h-102v49h-49v103h49v90h-92v-49h-103v49h-47z" />
<glyph unicode="&#xfa;" d="M-14 242v102h49v90h-49v105h49v90h-49v102h49v90h-49v103h49v49h102v-49h49v-103h-49v-90h49v-102h-49v-90h49v-105h-49v-90h49v-102h-49v-49h-102v49h-49zM180 49v103h47v47h103v-47h92v47h102v-47h49v-103h-49v-49h-102v49h-92v-49h-103v49h-47zM180 1208v103h47v49 h103v-49h92v49h102v-49h49v-103h-49v-47h-102v47h-92v-47h-103v47h-47zM567 242v102h47v49h103v-49h92v90h-49v105h49v90h-49v102h49v90h-49v103h49v49h102v-49h47v-103h-47v-90h47v-102h-47v-90h47v-105h-47v-90h47v-102h-47v-90h47v-103h-47v-49h-102v49h-49v103h49v90 h-92v-49h-103v49h-47zM567 1403v102h47v47h103v-47h49v-102h-49v-49h-103v49h-47z" />
<glyph unicode="&#xfb;" d="M-14 242v102h49v90h-49v105h49v90h-49v102h49v90h-49v103h49v49h102v-49h49v-103h-49v-90h49v-102h-49v-90h49v-105h-49v-90h49v-102h-49v-49h-102v49h-49zM180 49v103h47v47h103v-47h92v47h102v-47h49v-103h-49v-49h-102v49h-92v-49h-103v49h-47zM180 1208v103h47v49 h103v-49h49v-103h-49v-47h-103v47h-47zM373 1403v102h49v47h102v-47h49v-102h-49v-49h-102v49h-49zM567 242v102h47v49h103v-49h92v90h-49v105h49v90h-49v102h49v90h-49v103h49v49h102v-49h47v-103h-47v-90h47v-102h-47v-90h47v-105h-47v-90h47v-102h-47v-90h47v-103h-47 v-49h-102v49h-49v103h49v90h-92v-49h-103v49h-47zM567 1208v103h47v49h103v-49h49v-103h-49v-47h-103v47h-47z" />
<glyph unicode="&#xfc;" d="M-14 242v102h49v90h-49v105h49v90h-49v102h49v90h-49v103h49v49h102v-49h49v-103h-49v-90h49v-102h-49v-90h49v-105h-49v-90h49v-102h-49v-49h-102v49h-49zM-14 1208v103h49v92h-49v102h49v47h102v-47h49v-102h-49v-92h49v-103h-49v-47h-102v47h-49zM180 49v103h47v47 h103v-47h92v47h102v-47h49v-103h-49v-49h-102v49h-92v-49h-103v49h-47zM567 242v102h47v49h103v-49h92v90h-49v105h49v90h-49v102h49v90h-49v103h49v49h102v-49h47v-103h-47v-90h47v-102h-47v-90h47v-105h-47v-90h47v-102h-47v-90h47v-103h-47v-49h-102v49h-49v103h49v90 h-92v-49h-103v49h-47zM760 1208v103h49v92h-49v102h49v47h102v-47h47v-102h-47v-92h47v-103h-47v-47h-102v47h-49z" />
<glyph unicode="&#xfd;" d="M-14 629v102h49v90h-49v103h49v49h102v-49h49v-103h-49v-90h49v-102h-49v-49h-102v49h-49zM180 434v105h47v47h103v-47h49v-105h-49v-47h-103v47h-47zM180 1208v103h47v49h103v-49h92v49h102v-49h49v-103h-49v-47h-102v47h-92v-47h-103v47h-47zM373 49v103h49v90h-49v102 h49v49h102v-49h49v-102h-49v-90h49v-103h-49v-49h-102v49h-49zM567 434v105h47v47h103v-47h49v-105h-49v-47h-103v47h-47zM567 1403v102h47v47h103v-47h49v-102h-49v-49h-103v49h-47zM760 629v102h49v90h-49v103h49v49h102v-49h47v-103h-47v-90h47v-102h-47v-49h-102v49h-49 z" />
<glyph unicode="&#xfe;" d="M-14 49v103h49v90h-49v102h49v90h-49v105h49v90h-49v102h49v90h-49v103h49v49h102v-49h49v-103h-49v-90h90v49h103v-49h92v49h102v-49h90v49h103v-49h49v-102h-49v-49h-103v49h-90v-49h-102v49h-92v-49h-103v49h-90v-90h49v-105h-49v-90h90v49h103v-49h92v49h102v-49h90 v49h103v-49h49v-102h-49v-49h-103v49h-90v-49h-102v49h-92v-49h-103v49h-90v-90h49v-103h-49v-49h-102v49h-49zM760 434v105h49v47h102v-47h47v-105h-47v-47h-102v47h-49z" />
<glyph unicode="&#xff;" d="M-14 629v102h49v90h-49v103h49v49h102v-49h49v-103h-49v-90h49v-102h-49v-49h-102v49h-49zM-14 1208v103h49v92h-49v102h49v47h102v-47h49v-102h-49v-92h49v-103h-49v-47h-102v47h-49zM180 434v105h47v47h103v-47h49v-105h-49v-47h-103v47h-47zM373 49v103h49v90h-49v102 h49v49h102v-49h49v-102h-49v-90h49v-103h-49v-49h-102v49h-49zM567 434v105h47v47h103v-47h49v-105h-49v-47h-103v47h-47zM760 629v102h49v90h-49v103h49v49h102v-49h47v-103h-47v-90h47v-102h-47v-49h-102v49h-49zM760 1208v103h49v92h-49v102h49v47h102v-47h47v-102h-47 v-92h47v-103h-47v-47h-102v47h-49z" />
<glyph unicode="&#x152;" d="M-18 246v104h49v92h-49v105h49v92h-49v104h49v50h104v-50h49v-104h-49v-92h49v-105h-49v-92h49v-104h-49v-49h-104v49h-49zM178 49v105h49v49h105v-49h92v92h-49v104h49v92h-49v105h49v92h-49v104h49v95h-92v-50h-105v50h-49v104h49v49h105v-49h92v49h104v-49h95v49h104 v-49h92v49h105v-49h49v-104h-49v-50h-105v50h-92v-50h-104v50h-95v-95h50v-104h-50v-92h95v49h104v-49h49v-105h-49v-49h-104v49h-95v-92h50v-104h-50v-92h95v49h104v-49h92v49h105v-49h49v-105h-49v-49h-105v49h-92v-49h-104v49h-95v-49h-104v49h-92v-49h-105v49h-49z" />
<glyph unicode="&#x153;" d="M-14 242v102h49v90h-49v105h49v90h-49v102h49v49h102v-49h49v-102h-49v-90h49v-105h-49v-90h49v-102h-49v-49h-102v49h-49zM180 49v103h47v47h103v-47h49v-103h-49v-49h-103v49h-47zM180 821v103h47v49h103v-49h49v-103h-49v-47h-103v47h-47zM373 242v102h49v90h-49v105 h49v90h-49v102h49v49h102v-49h49v-102h-49v-90h90v47h103v-47h92v90h-49v102h49v49h102v-49h47v-102h-47v-90h47v-105h-47v-47h-102v47h-92v-47h-103v47h-90v-90h49v-102h-49v-49h-102v49h-49zM567 49v103h47v47h103v-47h92v47h102v-47h47v-103h-47v-49h-102v49h-92v-49 h-103v49h-47zM567 821v103h47v49h103v-49h49v-103h-49v-47h-103v47h-47z" />
<glyph unicode="&#x178;" d="M-18 639v104h49v95h-49v104h49v49h104v-49h49v-104h-49v-95h49v-104h-49v-49h-104v49h-49zM-18 1231v104h49v92h-49v105h49v49h104v-49h49v-105h-49v-92h49v-104h-49v-49h-104v49h-49zM178 442v105h49v49h105v-49h49v-105h-49v-49h-105v49h-49zM375 49v105h49v92h-49v104 h49v49h104v-49h50v-104h-50v-92h50v-105h-50v-49h-104v49h-49zM573 442v105h50v49h104v-49h49v-105h-49v-49h-104v49h-50zM770 639v104h49v95h-49v104h49v49h105v-49h49v-104h-49v-95h49v-104h-49v-49h-105v49h-49zM770 1231v104h49v92h-49v105h49v49h105v-49h49v-105h-49 v-92h49v-104h-49v-49h-105v49h-49z" />
<glyph unicode="&#x2c6;" d="M180 1208v103h47v49h103v-49h49v-103h-49v-47h-103v47h-47zM373 1403v102h49v47h102v-47h49v-102h-49v-49h-102v49h-49zM567 1208v103h47v49h103v-49h49v-103h-49v-47h-103v47h-47z" />
<glyph unicode="&#x2dc;" d="M-14 1208v103h49v49h102v-49h49v-103h-49v-47h-102v47h-49zM180 1403v102h47v47h103v-47h49v-102h-49v-49h-103v49h-47zM373 1208v103h49v49h102v-49h90v49h103v-49h49v-103h-49v-47h-103v47h-90v-47h-102v47h-49zM760 1403v102h49v47h102v-47h47v-102h-47v-49h-102v49 h-49z" />
<glyph unicode="&#x2000;" horiz-adv-x="888" />
<glyph unicode="&#x2001;" horiz-adv-x="1777" />
<glyph unicode="&#x2002;" horiz-adv-x="888" />
<glyph unicode="&#x2003;" horiz-adv-x="1777" />
<glyph unicode="&#x2004;" horiz-adv-x="591" />
<glyph unicode="&#x2005;" horiz-adv-x="444" />
<glyph unicode="&#x2006;" horiz-adv-x="294" />
<glyph unicode="&#x2007;" horiz-adv-x="294" />
<glyph unicode="&#x2008;" horiz-adv-x="221" />
<glyph unicode="&#x2009;" horiz-adv-x="354" />
<glyph unicode="&#x200a;" horiz-adv-x="98" />
<glyph unicode="&#x2010;" d="M180 434v105h47v47h103v-47h92v47h102v-47h90v47h103v-47h49v-105h-49v-47h-103v47h-90v-47h-102v47h-92v-47h-103v47h-47z" />
<glyph unicode="&#x2011;" d="M180 434v105h47v47h103v-47h92v47h102v-47h90v47h103v-47h49v-105h-49v-47h-103v47h-90v-47h-102v47h-92v-47h-103v47h-47z" />
<glyph unicode="&#x2012;" d="M180 434v105h47v47h103v-47h92v47h102v-47h90v47h103v-47h49v-105h-49v-47h-103v47h-90v-47h-102v47h-92v-47h-103v47h-47z" />
<glyph unicode="&#x2013;" d="M180 434v105h47v47h103v-47h92v47h102v-47h90v47h103v-47h49v-105h-49v-47h-103v47h-90v-47h-102v47h-92v-47h-103v47h-47z" />
<glyph unicode="&#x2014;" d="M-14 434v105h49v47h102v-47h90v47h103v-47h92v47h102v-47h90v47h103v-47h92v47h102v-47h47v-105h-47v-47h-102v47h-92v-47h-103v47h-90v-47h-102v47h-92v-47h-103v47h-90v-47h-102v47h-49z" />
<glyph unicode="&#x2018;" d="M377 629v102h47v90h-47v103h47v49h102v-49h49v-103h-49v-90h49v-102h-49v-49h-102v49h-47zM569 1016v102h49v47h103v-47h47v-102h-47v-49h-103v49h-49z" />
<glyph unicode="&#x2019;" d="M377 629v102h47v49h102v-49h49v-102h-49v-49h-102v49h-47zM569 821v103h49v92h-49v102h49v47h103v-47h47v-102h-47v-92h47v-103h-47v-47h-103v47h-49z" />
<glyph unicode="&#x201a;" d="M377 -43h47v49h102v-49h49v-102h-49v-48h-102v48h-47v102zM569 49v103h49v90h-49v102h49v49h103v-49h47v-102h-47v-90h47v-103h-47v-49h-103v49h-49z" />
<glyph unicode="&#x201c;" d="M182 629v102h49v90h-49v103h49v49h103v-49h47v-103h-47v-90h47v-102h-47v-49h-103v49h-49zM377 1016v102h47v47h102v-47h49v-102h-49v-49h-102v49h-47zM569 629v102h49v90h-49v103h49v49h103v-49h47v-103h-47v-90h47v-102h-47v-49h-103v49h-49zM764 1016v102h47v47h102 v-47h50v-102h-50v-49h-102v49h-47z" />
<glyph unicode="&#x201d;" d="M182 629v102h49v49h103v-49h47v-102h-47v-49h-103v49h-49zM377 821v103h47v92h-47v102h47v47h102v-47h49v-102h-49v-92h49v-103h-49v-47h-102v47h-47zM569 629v102h49v49h103v-49h47v-102h-47v-49h-103v49h-49zM764 821v103h47v92h-47v102h47v47h102v-47h50v-102h-50v-92 h50v-103h-50v-47h-102v47h-47z" />
<glyph unicode="&#x201e;" d="M182 -43h49v49h103v-49h47v-102h-47v-48h-103v48h-49v102zM377 49v103h47v90h-47v102h47v49h102v-49h49v-102h-49v-90h49v-103h-49v-49h-102v49h-47zM569 -43h49v49h103v-49h47v-102h-47v-48h-103v48h-49v102zM764 49v103h47v90h-47v102h47v49h102v-49h50v-102h-50v-90 h50v-103h-50v-49h-102v49h-47z" />
<glyph unicode="&#x2022;" d="M-18 434v105h47v90h-47v102h47v90h-47v103h47v49h102v-49h92v49h103v-49h90v49h102v-49h49v-103h-49v-90h49v-102h-49v-90h49v-105h-49v-47h-102v47h-90v-47h-103v47h-92v-47h-102v47h-47zM131 539h92v90h-92v-90zM131 731h92v90h-92v-90zM326 539h90v90h-90v-90z M326 731h90v90h-90v-90z" />
<glyph unicode="&#x2026;" d="M-14 49v103h49v90h-49v102h49v49h102v-49h49v-102h-49v-90h49v-103h-49v-49h-102v49h-49zM373 49v103h49v90h-49v102h49v49h102v-49h49v-102h-49v-90h49v-103h-49v-49h-102v49h-49zM760 49v103h49v90h-49v102h49v49h102v-49h47v-102h-47v-90h47v-103h-47v-49h-102v49h-49 z" />
<glyph unicode="&#x202f;" horiz-adv-x="354" />
<glyph unicode="&#x2039;" d="M180 434v105h47v47h103v-47h49v-105h-49v-47h-103v47h-47zM373 242v102h49v49h102v-49h49v-102h-49v-49h-102v49h-49zM373 629v102h49v49h102v-49h49v-102h-49v-49h-102v49h-49zM567 49v103h47v47h103v-47h49v-103h-49v-49h-103v49h-47zM567 821v103h47v49h103v-49h49 v-103h-49v-47h-103v47h-47z" />
<glyph unicode="&#x203a;" d="M379 49v103h49v47h102v-47h48v-103h-48v-49h-102v49h-49zM379 821v103h49v49h102v-49h48v-103h-48v-47h-102v47h-49zM571 242v102h50v49h102v-49h49v-102h-49v-49h-102v49h-50zM571 629v102h50v49h102v-49h49v-102h-49v-49h-102v49h-50zM766 434v105h49v47h103v-47h47 v-105h-47v-47h-103v47h-49z" />
<glyph unicode="&#x205f;" horiz-adv-x="444" />
<glyph unicode="&#x20ac;" d="M-14 434v105h49v47h102v-47h90v90h-47v102h47v49h103v-49h49v-102h-49v-90h92v47h102v-47h90v47h103v-47h49v-105h-49v-47h-103v47h-90v-47h-102v47h-92v-90h49v-102h-49v-49h-103v49h-47v102h47v90h-90v-47h-102v47h-49zM373 49v103h49v47h102v-47h90v47h103v-47h92v47 h102v-47h47v-103h-47v-49h-102v49h-92v-49h-103v49h-90v-49h-102v49h-49zM373 821v103h49v49h102v-49h90v49h103v-49h92v49h102v-49h47v-103h-47v-47h-102v47h-92v-47h-103v47h-90v-47h-102v47h-49z" />
<glyph unicode="&#x2122;" d="M-10 1016v102h47v47h102v-47h92v47h103v-47h90v47h102v-47h92v47h103v-47h47v-102h-47v-92h90v49h102v-49h93v92h-50v102h50v47h102v-47h47v-102h-47v-92h47v-103h-47v-90h47v-102h-47v-49h-102v49h-50v102h50v90h-93v-47h-102v47h-90v-90h47v-102h-47v-49h-103v49h-49 v102h49v90h-49v103h49v92h-92v-49h-102v49h-90v-92h47v-103h-47v-90h47v-102h-47v-49h-103v49h-49v102h49v90h-49v103h49v92h-92v-49h-102v49h-47z" />
<glyph unicode="&#xe000;" horiz-adv-x="975" d="M0 975h975v-975h-975v975z" />
<glyph unicode="&#xfb01;" horiz-adv-x="2457" d="M1215 49v103h49v47h102v-47h90v47h103v-47h92v90h-49v102h49v90h-49v105h49v90h-49v102h49v90h-92v-47h-103v47h-90v-47h-102v47h-49v103h49v49h102v-49h90v49h103v-49h92v49h102v-49h49v-103h-49v-90h49v-102h-49v-90h49v-105h-49v-90h49v-102h-49v-90h90v47h103v-47h92 v47h102v-47h47v-103h-47v-49h-102v49h-92v-49h-103v49h-90v-49h-102v49h-92v-49h-103v49h-90v-49h-102v49h-49zM1602 1208v103h49v49h102v-49h49v-103h-49v-47h-102v47h-49zM-14 49v103h49v90h-49v102h49v90h-49v105h49v90h-49v102h49v90h-49v103h49v49h102v-49h90v49h103 v-49h92v49h102v-49h90v49h103v-49h92v49h102v-49h47v-103h-47v-47h-102v47h-92v-47h-103v47h-90v-47h-102v47h-92v-47h-103v47h-90v-90h49v-102h-49v-90h90v47h103v-47h92v47h102v-47h90v47h103v-47h49v-105h-49v-47h-103v47h-90v-47h-102v47h-92v-47h-103v47h-90v-90h49 v-102h-49v-90h49v-103h-49v-49h-102v49h-49z" />
<glyph unicode="&#xfb02;" horiz-adv-x="2457" d="M1215 49v103h49v90h-49v102h49v90h-49v105h49v90h-49v102h49v90h-49v103h49v49h102v-49h49v-103h-49v-90h49v-102h-49v-90h49v-105h-49v-90h49v-102h-49v-90h90v47h103v-47h92v47h102v-47h90v47h103v-47h92v47h102v-47h47v-103h-47v-49h-102v49h-92v-49h-103v49h-90v-49 h-102v49h-92v-49h-103v49h-90v-49h-102v49h-49zM-14 49v103h49v90h-49v102h49v90h-49v105h49v90h-49v102h49v90h-49v103h49v49h102v-49h90v49h103v-49h92v49h102v-49h90v49h103v-49h92v49h102v-49h47v-103h-47v-47h-102v47h-92v-47h-103v47h-90v-47h-102v47h-92v-47h-103v47 h-90v-90h49v-102h-49v-90h90v47h103v-47h92v47h102v-47h90v47h103v-47h49v-105h-49v-47h-103v47h-90v-47h-102v47h-92v-47h-103v47h-90v-90h49v-102h-49v-90h49v-103h-49v-49h-102v49h-49z" />
<glyph unicode="&#xfb03;" horiz-adv-x="3686" d="M2444 49v103h49v47h102v-47h90v47h103v-47h92v90h-49v102h49v90h-49v105h49v90h-49v102h49v90h-92v-47h-103v47h-90v-47h-102v47h-49v103h49v49h102v-49h90v49h103v-49h92v49h102v-49h49v-103h-49v-90h49v-102h-49v-90h49v-105h-49v-90h49v-102h-49v-90h90v47h103v-47h92 v47h102v-47h47v-103h-47v-49h-102v49h-92v-49h-103v49h-90v-49h-102v49h-92v-49h-103v49h-90v-49h-102v49h-49zM2831 1208v103h49v49h102v-49h49v-103h-49v-47h-102v47h-49zM1215 49v103h49v90h-49v102h49v90h-49v105h49v90h-49v102h49v90h-49v103h49v49h102v-49h90v49h103 v-49h92v49h102v-49h90v49h103v-49h92v49h102v-49h47v-103h-47v-47h-102v47h-92v-47h-103v47h-90v-47h-102v47h-92v-47h-103v47h-90v-90h49v-102h-49v-90h90v47h103v-47h92v47h102v-47h90v47h103v-47h49v-105h-49v-47h-103v47h-90v-47h-102v47h-92v-47h-103v47h-90v-90h49 v-102h-49v-90h49v-103h-49v-49h-102v49h-49zM-14 49v103h49v90h-49v102h49v90h-49v105h49v90h-49v102h49v90h-49v103h49v49h102v-49h90v49h103v-49h92v49h102v-49h90v49h103v-49h92v49h102v-49h47v-103h-47v-47h-102v47h-92v-47h-103v47h-90v-47h-102v47h-92v-47h-103v47 h-90v-90h49v-102h-49v-90h90v47h103v-47h92v47h102v-47h90v47h103v-47h49v-105h-49v-47h-103v47h-90v-47h-102v47h-92v-47h-103v47h-90v-90h49v-102h-49v-90h49v-103h-49v-49h-102v49h-49z" />
<glyph unicode="&#xfb04;" horiz-adv-x="3686" d="M2444 49v103h49v90h-49v102h49v90h-49v105h49v90h-49v102h49v90h-49v103h49v49h102v-49h49v-103h-49v-90h49v-102h-49v-90h49v-105h-49v-90h49v-102h-49v-90h90v47h103v-47h92v47h102v-47h90v47h103v-47h92v47h102v-47h47v-103h-47v-49h-102v49h-92v-49h-103v49h-90v-49 h-102v49h-92v-49h-103v49h-90v-49h-102v49h-49zM1215 49v103h49v90h-49v102h49v90h-49v105h49v90h-49v102h49v90h-49v103h49v49h102v-49h90v49h103v-49h92v49h102v-49h90v49h103v-49h92v49h102v-49h47v-103h-47v-47h-102v47h-92v-47h-103v47h-90v-47h-102v47h-92v-47h-103 v47h-90v-90h49v-102h-49v-90h90v47h103v-47h92v47h102v-47h90v47h103v-47h49v-105h-49v-47h-103v47h-90v-47h-102v47h-92v-47h-103v47h-90v-90h49v-102h-49v-90h49v-103h-49v-49h-102v49h-49zM-14 49v103h49v90h-49v102h49v90h-49v105h49v90h-49v102h49v90h-49v103h49v49 h102v-49h90v49h103v-49h92v49h102v-49h90v49h103v-49h92v49h102v-49h47v-103h-47v-47h-102v47h-92v-47h-103v47h-90v-47h-102v47h-92v-47h-103v47h-90v-90h49v-102h-49v-90h90v47h103v-47h92v47h102v-47h90v47h103v-47h49v-105h-49v-47h-103v47h-90v-47h-102v47h-92v-47 h-103v47h-90v-90h49v-102h-49v-90h49v-103h-49v-49h-102v49h-49z" />
</font>
</defs>
</svg>
