<?xml version="1.0" standalone="no"?>
<!DOCTYPE svg PUBLIC "-//W3C//DTD SVG 1.1//EN" "http://www.w3.org/Graphics/SVG/1.1/DTD/svg11.dtd" >
<svg xmlns="http://www.w3.org/2000/svg">
<metadata>
This is a custom SVG webfont generated by Font Squirrel.
Copyright   : Copyright c 2007 by George Triantafyllakos All rights reserved
Designer    : George Triantafyllakos
Foundry     : George Triantafyllakos
Foundry URL : httpwwwbackpackergr
</metadata>
<defs>
<font id="webfont29x1CQOc" horiz-adv-x="1228" >
<font-face units-per-em="2048" ascent="1638" descent="-410" />
<missing-glyph horiz-adv-x="500" />
<glyph unicode=" " />
<glyph unicode="!" d="M446 51l54 55l53 -55l-53 -51zM446 485l54 54l53 -54l-53 -51zM446 702l54 54l53 -54l-53 -53zM446 920l54 53l53 -53l-53 -54z" />
<glyph unicode="&#x22;" d="M227 702l54 54l53 -54l-53 -53zM444 920l52 53l55 -53l-55 -54zM444 1135l52 55l55 -55l-55 -52zM662 702l51 54l55 -54l-55 -53zM879 920l51 53l53 -53l-53 -54zM879 1135l51 55l53 -55l-53 -52z" />
<glyph unicode="#" d="M14 268l52 56l55 -56l-55 -51zM14 702l52 54l55 -54l-55 -53zM231 51l52 55l55 -55l-55 -51zM231 268l52 56l55 -56l-55 -51zM231 485l52 54l55 -54l-55 -51zM231 702l52 54l55 -54l-55 -53zM231 920l52 53l55 -53l-55 -54zM446 268l54 56l53 -56l-53 -51zM446 702l54 54 l53 -54l-53 -53zM664 51l53 55l53 -55l-53 -51zM664 268l53 56l53 -56l-53 -51zM664 485l53 54l53 -54l-53 -51zM664 702l53 54l53 -54l-53 -53zM664 920l53 53l53 -53l-53 -54zM881 268l51 56l55 -56l-55 -51zM881 702l51 54l55 -54l-55 -53z" />
<glyph unicode="$" d="M14 51l52 55l55 -55l-55 -51zM14 702l52 54l55 -54l-55 -53zM231 51l52 55l55 -55l-55 -51zM231 485l52 54l55 -54l-55 -51zM231 920l52 53l55 -53l-55 -54zM446 51l54 55l53 -55l-53 -51zM446 -164l54 53l53 -53l-53 -53zM446 268l54 56l53 -56l-53 -51zM446 485l54 54 l53 -54l-53 -51zM446 702l54 54l53 -54l-53 -53zM446 920l54 53l53 -53l-53 -54zM446 1135l54 55l53 -55l-53 -52zM664 51l53 55l53 -55l-53 -51zM664 485l53 54l53 -54l-53 -51zM664 920l53 53l53 -53l-53 -54zM881 268l51 56l55 -56l-55 -51zM881 920l51 53l55 -53 l-55 -54z" />
<glyph unicode="%" d="M16 51l54 55l53 -55l-53 -51zM16 702l54 54l53 -54l-53 -53zM16 920l54 53l53 -53l-53 -54zM233 268l54 56l53 -56l-53 -51zM233 485l54 54l53 -54l-53 -51zM233 702l54 54l53 -54l-53 -53zM233 920l54 53l53 -53l-53 -54zM451 51l51 55l55 -55l-55 -51zM451 268l51 56 l55 -56l-55 -51zM451 702l51 54l55 -54l-55 -53zM668 51l51 55l55 -55l-55 -51zM668 268l51 56l55 -56l-55 -51zM668 920l51 53l55 -53l-55 -54z" />
<glyph unicode="&#x26;" d="M14 268l52 56l55 -56l-55 -51zM14 702l52 54l55 -54l-55 -53zM231 51l52 55l55 -55l-55 -51zM231 485l52 54l55 -54l-55 -51zM231 920l52 53l55 -53l-55 -54zM446 51l54 55l53 -55l-53 -51zM446 485l54 54l53 -54l-53 -51zM446 920l54 53l53 -53l-53 -54zM664 268l53 56 l53 -56l-53 -51zM664 485l53 54l53 -54l-53 -51zM881 485l51 54l55 -54l-55 -51z" />
<glyph unicode="'" d="M444 702l52 54l55 -54l-55 -53zM662 920l51 53l55 -53l-55 -54zM662 1135l51 55l55 -55l-55 -52z" />
<glyph unicode="(" d="M444 51l52 55l55 -55l-55 -51zM444 268l52 56l55 -56l-55 -51zM444 485l52 54l55 -54l-55 -51zM444 702l52 54l55 -54l-55 -53zM444 920l52 53l55 -53l-55 -54zM662 -164l51 53l55 -53l-55 -53zM662 1135l51 55l55 -55l-55 -52z" />
<glyph unicode=")" d="M444 -164l52 53l55 -53l-55 -53zM444 1135l52 55l55 -55l-55 -52zM662 51l51 55l55 -55l-55 -51zM662 268l51 56l55 -56l-55 -51zM662 485l51 54l55 -54l-55 -51zM662 702l51 54l55 -54l-55 -53zM662 920l51 53l55 -53l-55 -54z" />
<glyph unicode="*" d="M20 702l52 54l55 -54l-55 -53zM20 1135l52 55l55 -55l-55 -52zM238 920l51 53l53 -53l-53 -54zM453 702l53 54l53 -54l-53 -53zM453 1135l53 55l53 -55l-53 -52z" />
<glyph unicode="+" d="M14 485l52 54l55 -54l-55 -51zM231 485l52 54l55 -54l-55 -51zM446 51l54 55l53 -55l-53 -51zM446 268l54 56l53 -56l-53 -51zM446 485l54 54l53 -54l-53 -51zM446 702l54 54l53 -54l-53 -53zM446 920l54 53l53 -53l-53 -54zM664 485l53 54l53 -54l-53 -51zM881 485 l51 54l55 -54l-55 -51z" />
<glyph unicode="," d="M233 -164l54 53l53 -53l-53 -53zM451 51l51 55l55 -55l-55 -51zM451 268l51 56l55 -56l-55 -51z" />
<glyph unicode="-" d="M231 485l52 54l55 -54l-55 -51zM446 485l54 54l53 -54l-53 -51zM664 485l53 54l53 -54l-53 -51z" />
<glyph unicode="." d="M446 51l54 55l53 -55l-53 -51zM446 268l54 56l53 -56l-53 -51z" />
<glyph unicode="/" d="M227 51l54 55l53 -55l-53 -51zM227 -164l54 53l53 -53l-53 -53zM444 268l52 56l55 -56l-55 -51zM662 485l51 54l55 -54l-55 -51zM662 702l51 54l55 -54l-55 -53zM879 920l51 53l53 -53l-53 -54zM879 1135l51 55l53 -55l-53 -52z" />
<glyph unicode="0" d="M14 268l52 56l55 -56l-55 -51zM14 485l52 54l55 -54l-55 -51zM14 702l52 54l55 -54l-55 -53zM231 51l52 55l55 -55l-55 -51zM231 268l52 56l55 -56l-55 -51zM231 920l52 53l55 -53l-55 -54zM446 51l54 55l53 -55l-53 -51zM446 485l54 54l53 -54l-53 -51zM446 920l54 53 l53 -53l-53 -54zM664 51l53 55l53 -55l-53 -51zM664 702l53 54l53 -54l-53 -53zM664 920l53 53l53 -53l-53 -54zM881 268l51 56l55 -56l-55 -51zM881 485l51 54l55 -54l-55 -51zM881 702l51 54l55 -54l-55 -53z" />
<glyph unicode="1" d="M14 51l52 55l55 -55l-55 -51zM14 920l52 53l55 -53l-55 -54zM231 51l52 55l55 -55l-55 -51zM231 920l52 53l55 -53l-55 -54zM446 51l54 55l53 -55l-53 -51zM446 268l54 56l53 -56l-53 -51zM446 485l54 54l53 -54l-53 -51zM446 702l54 54l53 -54l-53 -53zM446 920l54 53 l53 -53l-53 -54zM664 51l53 55l53 -55l-53 -51zM881 51l51 55l55 -55l-55 -51z" />
<glyph unicode="2" d="M14 51l52 55l55 -55l-55 -51zM14 702l52 54l55 -54l-55 -53zM231 51l52 55l55 -55l-55 -51zM231 268l52 56l55 -56l-55 -51zM231 920l52 53l55 -53l-55 -54zM446 51l54 55l53 -55l-53 -51zM446 485l54 54l53 -54l-53 -51zM446 920l54 53l53 -53l-53 -54zM664 51l53 55 l53 -55l-53 -51zM664 485l53 54l53 -54l-53 -51zM664 920l53 53l53 -53l-53 -54zM881 51l51 55l55 -55l-55 -51zM881 702l51 54l55 -54l-55 -53z" />
<glyph unicode="3" d="M14 51l52 55l55 -55l-55 -51zM14 920l52 53l55 -53l-55 -54zM231 51l52 55l55 -55l-55 -51zM231 485l52 54l55 -54l-55 -51zM231 920l52 53l55 -53l-55 -54zM446 51l54 55l53 -55l-53 -51zM446 485l54 54l53 -54l-53 -51zM446 920l54 53l53 -53l-53 -54zM664 51l53 55 l53 -55l-53 -51zM664 485l53 54l53 -54l-53 -51zM664 920l53 53l53 -53l-53 -54zM881 268l51 56l55 -56l-55 -51zM881 702l51 54l55 -54l-55 -53z" />
<glyph unicode="4" d="M14 268l52 56l55 -56l-55 -51zM231 268l52 56l55 -56l-55 -51zM231 485l52 54l55 -54l-55 -51zM446 268l54 56l53 -56l-53 -51zM446 702l54 54l53 -54l-53 -53zM664 51l53 55l53 -55l-53 -51zM664 268l53 56l53 -56l-53 -51zM664 485l53 54l53 -54l-53 -51zM664 702 l53 54l53 -54l-53 -53zM664 920l53 53l53 -53l-53 -54zM881 268l51 56l55 -56l-55 -51z" />
<glyph unicode="5" d="M14 51l52 55l55 -55l-55 -51zM14 485l52 54l55 -54l-55 -51zM14 702l52 54l55 -54l-55 -53zM14 920l52 53l55 -53l-55 -54zM231 51l52 55l55 -55l-55 -51zM231 485l52 54l55 -54l-55 -51zM231 920l52 53l55 -53l-55 -54zM446 51l54 55l53 -55l-53 -51zM446 485l54 54 l53 -54l-53 -51zM446 920l54 53l53 -53l-53 -54zM664 51l53 55l53 -55l-53 -51zM664 485l53 54l53 -54l-53 -51zM664 920l53 53l53 -53l-53 -54zM881 268l51 56l55 -56l-55 -51zM881 920l51 53l55 -53l-55 -54z" />
<glyph unicode="6" d="M14 268l52 56l55 -56l-55 -51zM14 485l52 54l55 -54l-55 -51zM14 702l52 54l55 -54l-55 -53zM231 51l52 55l55 -55l-55 -51zM231 485l52 54l55 -54l-55 -51zM231 920l52 53l55 -53l-55 -54zM446 51l54 55l53 -55l-53 -51zM446 485l54 54l53 -54l-53 -51zM446 920l54 53 l53 -53l-53 -54zM664 51l53 55l53 -55l-53 -51zM664 485l53 54l53 -54l-53 -51zM664 920l53 53l53 -53l-53 -54zM881 268l51 56l55 -56l-55 -51z" />
<glyph unicode="7" d="M14 920l52 53l55 -53l-55 -54zM231 51l52 55l55 -55l-55 -51zM231 920l52 53l55 -53l-55 -54zM446 268l54 56l53 -56l-53 -51zM446 920l54 53l53 -53l-53 -54zM664 485l53 54l53 -54l-53 -51zM664 920l53 53l53 -53l-53 -54zM881 702l51 54l55 -54l-55 -53zM881 920 l51 53l55 -53l-55 -54z" />
<glyph unicode="8" d="M14 268l52 56l55 -56l-55 -51zM14 702l52 54l55 -54l-55 -53zM231 51l52 55l55 -55l-55 -51zM231 485l52 54l55 -54l-55 -51zM231 920l52 53l55 -53l-55 -54zM446 51l54 55l53 -55l-53 -51zM446 485l54 54l53 -54l-53 -51zM446 920l54 53l53 -53l-53 -54zM664 51l53 55 l53 -55l-53 -51zM664 485l53 54l53 -54l-53 -51zM664 920l53 53l53 -53l-53 -54zM881 268l51 56l55 -56l-55 -51zM881 702l51 54l55 -54l-55 -53z" />
<glyph unicode="9" d="M14 702l52 54l55 -54l-55 -53zM231 51l52 55l55 -55l-55 -51zM231 485l52 54l55 -54l-55 -51zM231 920l52 53l55 -53l-55 -54zM446 51l54 55l53 -55l-53 -51zM446 485l54 54l53 -54l-53 -51zM446 920l54 53l53 -53l-53 -54zM664 51l53 55l53 -55l-53 -51zM664 485l53 54 l53 -54l-53 -51zM664 920l53 53l53 -53l-53 -54zM881 268l51 56l55 -56l-55 -51zM881 485l51 54l55 -54l-55 -51zM881 702l51 54l55 -54l-55 -53z" />
<glyph unicode=":" d="M446 51l54 55l53 -55l-53 -51zM446 268l54 56l53 -56l-53 -51zM446 702l54 54l53 -54l-53 -53zM446 920l54 53l53 -53l-53 -54z" />
<glyph unicode=";" d="M233 -164l54 53l53 -53l-53 -53zM451 51l51 55l55 -55l-55 -51zM451 268l51 56l55 -56l-55 -51zM451 702l51 54l55 -54l-55 -53zM451 920l51 53l55 -53l-55 -54z" />
<glyph unicode="&#x3c;" d="M231 485l52 54l55 -54l-55 -51zM446 268l54 56l53 -56l-53 -51zM446 702l54 54l53 -54l-53 -53zM664 51l53 55l53 -55l-53 -51zM664 920l53 53l53 -53l-53 -54z" />
<glyph unicode="=" d="M14 268l52 56l55 -56l-55 -51zM14 702l52 54l55 -54l-55 -53zM231 268l52 56l55 -56l-55 -51zM231 702l52 54l55 -54l-55 -53zM446 268l54 56l53 -56l-53 -51zM446 702l54 54l53 -54l-53 -53zM664 268l53 56l53 -56l-53 -51zM664 702l53 54l53 -54l-53 -53zM881 268 l51 56l55 -56l-55 -51zM881 702l51 54l55 -54l-55 -53z" />
<glyph unicode="&#x3e;" d="M442 51l52 55l53 -55l-53 -51zM442 920l52 53l53 -53l-53 -54zM657 268l54 56l53 -56l-53 -51zM657 702l54 54l53 -54l-53 -53zM874 485l54 54l53 -54l-53 -51z" />
<glyph unicode="?" d="M14 702l52 54l55 -54l-55 -53zM231 920l52 53l55 -53l-55 -54zM446 51l54 55l53 -55l-53 -51zM446 485l54 54l53 -54l-53 -51zM446 920l54 53l53 -53l-53 -54zM664 485l53 54l53 -54l-53 -51zM664 920l53 53l53 -53l-53 -54zM881 702l51 54l55 -54l-55 -53z" />
<glyph unicode="@" d="M14 51l52 55l55 -55l-55 -51zM14 268l52 56l55 -56l-55 -51zM14 485l52 54l55 -54l-55 -51zM14 702l52 54l55 -54l-55 -53zM14 920l52 53l55 -53l-55 -54zM231 -164l52 53l55 -53l-55 -53zM231 268l52 56l55 -56l-55 -51zM231 485l52 54l55 -54l-55 -51zM231 1135l52 55 l55 -55l-55 -52zM446 -164l54 53l53 -53l-53 -53zM446 268l54 56l53 -56l-53 -51zM446 702l54 54l53 -54l-53 -53zM446 1135l54 55l53 -55l-53 -52zM664 -164l53 53l53 -53l-53 -53zM664 268l53 56l53 -56l-53 -51zM664 485l53 54l53 -54l-53 -51zM664 702l53 54l53 -54 l-53 -53zM664 1135l53 55l53 -55l-53 -52zM881 -164l51 53l55 -53l-55 -53zM881 268l51 56l55 -56l-55 -51zM881 485l51 54l55 -54l-55 -51zM881 702l51 54l55 -54l-55 -53zM881 920l51 53l55 -53l-55 -54z" />
<glyph unicode="A" d="M18 51l52 53l53 -53l-53 -51zM18 264l52 53l53 -53l-53 -51zM18 477l52 53l53 -53l-53 -51zM18 688l52 53l53 -53l-53 -49zM231 477l52 53l53 -53l-53 -51zM231 901l52 53l53 -53l-53 -51zM444 477l52 53l53 -53l-53 -51zM444 901l52 53l53 -53l-53 -51zM657 477l50 53 l53 -53l-53 -51zM657 901l50 53l53 -53l-53 -51zM868 51l52 53l53 -53l-53 -51zM868 264l52 53l53 -53l-53 -51zM868 477l52 53l53 -53l-53 -51zM868 688l52 53l53 -53l-53 -49z" />
<glyph unicode="B" d="M18 51l52 53l53 -53l-53 -51zM18 264l52 53l53 -53l-53 -51zM18 477l52 53l53 -53l-53 -51zM18 688l52 53l53 -53l-53 -49zM18 901l52 53l53 -53l-53 -51zM231 51l52 53l53 -53l-53 -51zM231 477l52 53l53 -53l-53 -51zM231 901l52 53l53 -53l-53 -51zM444 51l52 53 l53 -53l-53 -51zM444 477l52 53l53 -53l-53 -51zM444 901l52 53l53 -53l-53 -51zM657 51l50 53l53 -53l-53 -51zM657 477l50 53l53 -53l-53 -51zM657 901l50 53l53 -53l-53 -51zM868 264l52 53l53 -53l-53 -51zM868 688l52 53l53 -53l-53 -49z" />
<glyph unicode="C" d="M18 264l52 53l53 -53l-53 -51zM18 477l52 53l53 -53l-53 -51zM18 688l52 53l53 -53l-53 -49zM231 51l52 53l53 -53l-53 -51zM231 901l52 53l53 -53l-53 -51zM444 51l52 53l53 -53l-53 -51zM444 901l52 53l53 -53l-53 -51zM657 51l50 53l53 -53l-53 -51zM657 901l50 53 l53 -53l-53 -51zM868 51l52 53l53 -53l-53 -51zM868 901l52 53l53 -53l-53 -51z" />
<glyph unicode="D" d="M18 51l52 53l53 -53l-53 -51zM18 264l52 53l53 -53l-53 -51zM18 477l52 53l53 -53l-53 -51zM18 688l52 53l53 -53l-53 -49zM18 901l52 53l53 -53l-53 -51zM231 51l52 53l53 -53l-53 -51zM231 901l52 53l53 -53l-53 -51zM444 51l52 53l53 -53l-53 -51zM444 901l52 53 l53 -53l-53 -51zM657 51l50 53l53 -53l-53 -51zM657 901l50 53l53 -53l-53 -51zM868 264l52 53l53 -53l-53 -51zM868 477l52 53l53 -53l-53 -51zM868 688l52 53l53 -53l-53 -49z" />
<glyph unicode="E" d="M18 51l52 53l53 -53l-53 -51zM18 264l52 53l53 -53l-53 -51zM18 477l52 53l53 -53l-53 -51zM18 688l52 53l53 -53l-53 -49zM18 901l52 53l53 -53l-53 -51zM231 51l52 53l53 -53l-53 -51zM231 477l52 53l53 -53l-53 -51zM231 901l52 53l53 -53l-53 -51zM444 51l52 53 l53 -53l-53 -51zM444 477l52 53l53 -53l-53 -51zM444 901l52 53l53 -53l-53 -51zM657 51l50 53l53 -53l-53 -51zM657 477l50 53l53 -53l-53 -51zM657 901l50 53l53 -53l-53 -51zM868 51l52 53l53 -53l-53 -51zM868 901l52 53l53 -53l-53 -51z" />
<glyph unicode="F" d="M18 51l52 53l53 -53l-53 -51zM18 264l52 53l53 -53l-53 -51zM18 477l52 53l53 -53l-53 -51zM18 688l52 53l53 -53l-53 -49zM18 901l52 53l53 -53l-53 -51zM231 477l52 53l53 -53l-53 -51zM231 901l52 53l53 -53l-53 -51zM444 477l52 53l53 -53l-53 -51zM444 901l52 53 l53 -53l-53 -51zM657 477l50 53l53 -53l-53 -51zM657 901l50 53l53 -53l-53 -51zM868 901l52 53l53 -53l-53 -51z" />
<glyph unicode="G" d="M18 264l52 53l53 -53l-53 -51zM18 477l52 53l53 -53l-53 -51zM18 688l52 53l53 -53l-53 -49zM231 51l52 53l53 -53l-53 -51zM231 901l52 53l53 -53l-53 -51zM444 51l52 53l53 -53l-53 -51zM444 901l52 53l53 -53l-53 -51zM657 51l50 53l53 -53l-53 -51zM657 477l50 53 l53 -53l-53 -51zM657 901l50 53l53 -53l-53 -51zM868 51l52 53l53 -53l-53 -51zM868 264l52 53l53 -53l-53 -51zM868 477l52 53l53 -53l-53 -51zM868 901l52 53l53 -53l-53 -51z" />
<glyph unicode="H" d="M18 51l52 53l53 -53l-53 -51zM18 264l52 53l53 -53l-53 -51zM18 477l52 53l53 -53l-53 -51zM18 688l52 53l53 -53l-53 -49zM18 901l52 53l53 -53l-53 -51zM231 477l52 53l53 -53l-53 -51zM444 477l52 53l53 -53l-53 -51zM657 477l50 53l53 -53l-53 -51zM868 51l52 53 l53 -53l-53 -51zM868 264l52 53l53 -53l-53 -51zM868 477l52 53l53 -53l-53 -51zM868 688l52 53l53 -53l-53 -49zM868 901l52 53l53 -53l-53 -51z" />
<glyph unicode="I" d="M18 51l52 53l53 -53l-53 -51zM18 901l52 53l53 -53l-53 -51zM231 51l52 53l53 -53l-53 -51zM231 901l52 53l53 -53l-53 -51zM444 51l52 53l53 -53l-53 -51zM444 264l52 53l53 -53l-53 -51zM444 477l52 53l53 -53l-53 -51zM444 688l52 53l53 -53l-53 -49zM444 901l52 53 l53 -53l-53 -51zM657 51l50 53l53 -53l-53 -51zM657 901l50 53l53 -53l-53 -51zM868 51l52 53l53 -53l-53 -51zM868 901l52 53l53 -53l-53 -51z" />
<glyph unicode="J" d="M20 264l52 53l53 -53l-53 -51zM20 901l52 53l53 -53l-53 -51zM233 51l52 53l53 -53l-53 -51zM233 901l52 53l53 -53l-53 -51zM446 51l52 53l51 -53l-51 -51zM446 901l52 53l51 -53l-51 -51zM657 264l52 53l53 -53l-53 -51zM657 477l52 53l53 -53l-53 -51zM657 688l52 53 l53 -53l-53 -49zM657 901l52 53l53 -53l-53 -51z" />
<glyph unicode="K" d="M18 51l52 53l53 -53l-53 -51zM18 264l52 53l53 -53l-53 -51zM18 477l52 53l53 -53l-53 -51zM18 688l52 53l53 -53l-53 -49zM18 901l52 53l53 -53l-53 -51zM231 477l52 53l53 -53l-53 -51zM444 477l52 53l53 -53l-53 -51zM657 477l50 53l53 -53l-53 -51zM868 51l52 53 l53 -53l-53 -51zM868 264l52 53l53 -53l-53 -51zM868 688l52 53l53 -53l-53 -49zM868 901l52 53l53 -53l-53 -51z" />
<glyph unicode="L" d="M18 51l52 53l53 -53l-53 -51zM18 264l52 53l53 -53l-53 -51zM18 477l52 53l53 -53l-53 -51zM18 688l52 53l53 -53l-53 -49zM18 901l52 53l53 -53l-53 -51zM231 51l52 53l53 -53l-53 -51zM444 51l52 53l53 -53l-53 -51zM657 51l50 53l53 -53l-53 -51zM868 51l52 53l53 -53 l-53 -51z" />
<glyph unicode="M" d="M18 51l52 53l53 -53l-53 -51zM18 264l52 53l53 -53l-53 -51zM18 477l52 53l53 -53l-53 -51zM18 688l52 53l53 -53l-53 -49zM18 901l52 53l53 -53l-53 -51zM231 688l52 53l53 -53l-53 -49zM444 264l52 53l53 -53l-53 -51zM444 477l52 53l53 -53l-53 -51zM657 688l50 53 l53 -53l-53 -49zM868 51l52 53l53 -53l-53 -51zM868 264l52 53l53 -53l-53 -51zM868 477l52 53l53 -53l-53 -51zM868 688l52 53l53 -53l-53 -49zM868 901l52 53l53 -53l-53 -51z" />
<glyph unicode="N" d="M18 51l52 53l53 -53l-53 -51zM18 264l52 53l53 -53l-53 -51zM18 477l52 53l53 -53l-53 -51zM18 688l52 53l53 -53l-53 -49zM18 901l52 53l53 -53l-53 -51zM231 688l52 53l53 -53l-53 -49zM444 477l52 53l53 -53l-53 -51zM657 264l50 53l53 -53l-53 -51zM868 51l52 53 l53 -53l-53 -51zM868 264l52 53l53 -53l-53 -51zM868 477l52 53l53 -53l-53 -51zM868 688l52 53l53 -53l-53 -49zM868 901l52 53l53 -53l-53 -51z" />
<glyph unicode="O" d="M18 264l52 53l53 -53l-53 -51zM18 477l52 53l53 -53l-53 -51zM18 688l52 53l53 -53l-53 -49zM231 51l52 53l53 -53l-53 -51zM231 901l52 53l53 -53l-53 -51zM444 51l52 53l53 -53l-53 -51zM444 901l52 53l53 -53l-53 -51zM657 51l50 53l53 -53l-53 -51zM657 901l50 53 l53 -53l-53 -51zM868 264l52 53l53 -53l-53 -51zM868 477l52 53l53 -53l-53 -51zM868 688l52 53l53 -53l-53 -49z" />
<glyph unicode="P" d="M18 51l52 53l53 -53l-53 -51zM18 264l52 53l53 -53l-53 -51zM18 477l52 53l53 -53l-53 -51zM18 688l52 53l53 -53l-53 -49zM18 901l52 53l53 -53l-53 -51zM231 477l52 53l53 -53l-53 -51zM231 901l52 53l53 -53l-53 -51zM444 477l52 53l53 -53l-53 -51zM444 901l52 53 l53 -53l-53 -51zM657 477l50 53l53 -53l-53 -51zM657 901l50 53l53 -53l-53 -51zM868 688l52 53l53 -53l-53 -49z" />
<glyph unicode="Q" d="M18 264l52 53l53 -53l-53 -51zM18 477l52 53l53 -53l-53 -51zM18 688l52 53l53 -53l-53 -49zM231 51l52 53l53 -53l-53 -51zM231 901l52 53l53 -53l-53 -51zM444 51l52 53l53 -53l-53 -51zM444 -162l52 53l53 -53l-53 -51zM444 264l52 53l53 -53l-53 -51zM444 901l52 53 l53 -53l-53 -51zM657 51l50 53l53 -53l-53 -51zM657 -375l50 53l53 -53l-53 -51zM657 901l50 53l53 -53l-53 -51zM868 264l52 53l53 -53l-53 -51zM868 477l52 53l53 -53l-53 -51zM868 688l52 53l53 -53l-53 -49z" />
<glyph unicode="R" d="M18 51l52 53l53 -53l-53 -51zM18 264l52 53l53 -53l-53 -51zM18 477l52 53l53 -53l-53 -51zM18 688l52 53l53 -53l-53 -49zM18 901l52 53l53 -53l-53 -51zM231 477l52 53l53 -53l-53 -51zM231 901l52 53l53 -53l-53 -51zM444 477l52 53l53 -53l-53 -51zM444 901l52 53 l53 -53l-53 -51zM657 264l50 53l53 -53l-53 -51zM657 477l50 53l53 -53l-53 -51zM657 901l50 53l53 -53l-53 -51zM868 51l52 53l53 -53l-53 -51zM868 688l52 53l53 -53l-53 -49z" />
<glyph unicode="S" d="M18 51l52 53l53 -53l-53 -51zM18 688l52 53l53 -53l-53 -49zM231 51l52 53l53 -53l-53 -51zM231 477l52 53l53 -53l-53 -51zM231 901l52 53l53 -53l-53 -51zM444 51l52 53l53 -53l-53 -51zM444 477l52 53l53 -53l-53 -51zM444 901l52 53l53 -53l-53 -51zM657 51l50 53 l53 -53l-53 -51zM657 477l50 53l53 -53l-53 -51zM657 901l50 53l53 -53l-53 -51zM868 264l52 53l53 -53l-53 -51zM868 901l52 53l53 -53l-53 -51z" />
<glyph unicode="T" d="M18 901l52 53l53 -53l-53 -51zM231 901l52 53l53 -53l-53 -51zM444 51l52 53l53 -53l-53 -51zM444 264l52 53l53 -53l-53 -51zM444 477l52 53l53 -53l-53 -51zM444 688l52 53l53 -53l-53 -49zM444 901l52 53l53 -53l-53 -51zM657 901l50 53l53 -53l-53 -51zM868 901 l52 53l53 -53l-53 -51z" />
<glyph unicode="U" d="M18 264l52 53l53 -53l-53 -51zM18 477l52 53l53 -53l-53 -51zM18 688l52 53l53 -53l-53 -49zM18 901l52 53l53 -53l-53 -51zM231 51l52 53l53 -53l-53 -51zM444 51l52 53l53 -53l-53 -51zM657 51l50 53l53 -53l-53 -51zM868 264l52 53l53 -53l-53 -51zM868 477l52 53 l53 -53l-53 -51zM868 688l52 53l53 -53l-53 -49zM868 901l52 53l53 -53l-53 -51z" />
<glyph unicode="V" d="M18 477l52 53l53 -53l-53 -51zM18 688l52 53l53 -53l-53 -49zM18 901l52 53l53 -53l-53 -51zM231 264l52 53l53 -53l-53 -51zM444 51l52 53l53 -53l-53 -51zM657 264l50 53l53 -53l-53 -51zM868 477l52 53l53 -53l-53 -51zM868 688l52 53l53 -53l-53 -49zM868 901l52 53 l53 -53l-53 -51z" />
<glyph unicode="W" d="M18 264l52 53l53 -53l-53 -51zM18 477l52 53l53 -53l-53 -51zM18 688l52 53l53 -53l-53 -49zM18 901l52 53l53 -53l-53 -51zM231 51l52 53l53 -53l-53 -51zM444 264l52 53l53 -53l-53 -51zM444 477l52 53l53 -53l-53 -51zM444 688l52 53l53 -53l-53 -49zM657 51l50 53 l53 -53l-53 -51zM868 264l52 53l53 -53l-53 -51zM868 477l52 53l53 -53l-53 -51zM868 688l52 53l53 -53l-53 -49zM868 901l52 53l53 -53l-53 -51z" />
<glyph unicode="X" d="M18 51l52 53l53 -53l-53 -51zM18 264l52 53l53 -53l-53 -51zM18 688l52 53l53 -53l-53 -49zM18 901l52 53l53 -53l-53 -51zM231 477l52 53l53 -53l-53 -51zM444 477l52 53l53 -53l-53 -51zM657 477l50 53l53 -53l-53 -51zM868 51l52 53l53 -53l-53 -51zM868 264l52 53 l53 -53l-53 -51zM868 688l52 53l53 -53l-53 -49zM868 901l52 53l53 -53l-53 -51z" />
<glyph unicode="Y" d="M18 688l52 53l53 -53l-53 -49zM18 901l52 53l53 -53l-53 -51zM231 477l52 53l53 -53l-53 -51zM444 51l52 53l53 -53l-53 -51zM444 264l52 53l53 -53l-53 -51zM657 477l50 53l53 -53l-53 -51zM868 688l52 53l53 -53l-53 -49zM868 901l52 53l53 -53l-53 -51z" />
<glyph unicode="Z" d="M18 51l52 53l53 -53l-53 -51zM18 901l52 53l53 -53l-53 -51zM231 51l52 53l53 -53l-53 -51zM231 264l52 53l53 -53l-53 -51zM231 901l52 53l53 -53l-53 -51zM444 51l52 53l53 -53l-53 -51zM444 477l52 53l53 -53l-53 -51zM444 901l52 53l53 -53l-53 -51zM657 51l50 53 l53 -53l-53 -51zM657 688l50 53l53 -53l-53 -49zM657 901l50 53l53 -53l-53 -51zM868 51l52 53l53 -53l-53 -51zM868 901l52 53l53 -53l-53 -51z" />
<glyph unicode="[" d="M444 51l52 55l55 -55l-55 -51zM444 -164l52 53l55 -53l-55 -53zM444 268l52 56l55 -56l-55 -51zM444 485l52 54l55 -54l-55 -51zM444 702l52 54l55 -54l-55 -53zM444 920l52 53l55 -53l-55 -54zM444 1135l52 55l55 -55l-55 -52zM662 -164l51 53l55 -53l-55 -53zM662 1135 l51 55l55 -55l-55 -52z" />
<glyph unicode="\" d="M227 920l54 53l53 -53l-53 -54zM227 1135l54 55l53 -55l-53 -52zM444 485l52 54l55 -54l-55 -51zM444 702l52 54l55 -54l-55 -53zM662 268l51 56l55 -56l-55 -51zM879 51l51 55l53 -55l-53 -51zM879 -164l51 53l53 -53l-53 -53z" />
<glyph unicode="]" d="M444 -164l52 53l55 -53l-55 -53zM444 1135l52 55l55 -55l-55 -52zM662 51l51 55l55 -55l-55 -51zM662 -164l51 53l55 -53l-55 -53zM662 268l51 56l55 -56l-55 -51zM662 485l51 54l55 -54l-55 -51zM662 702l51 54l55 -54l-55 -53zM662 920l51 53l55 -53l-55 -54zM662 1135 l51 55l55 -55l-55 -52z" />
<glyph unicode="^" d="M231 1352l52 55l55 -55l-55 -52zM446 1569l54 53l53 -53l-53 -51zM664 1352l53 55l53 -55l-53 -52z" />
<glyph unicode="_" d="M14 51l52 55l55 -55l-55 -51zM231 51l52 55l55 -55l-55 -51zM446 51l54 55l53 -55l-53 -51zM664 51l53 55l53 -55l-53 -51zM881 51l51 55l55 -55l-55 -51z" />
<glyph unicode="`" d="M20 1569l52 53l55 -53l-55 -51zM238 1352l51 55l53 -55l-53 -52zM453 1352l53 55l53 -55l-53 -52z" />
<glyph unicode="a" d="M14 268l52 56l55 -56l-55 -51zM231 51l52 55l55 -55l-55 -51zM231 485l52 54l55 -54l-55 -51zM231 920l52 53l55 -53l-55 -54zM446 51l54 55l53 -55l-53 -51zM446 485l54 54l53 -54l-53 -51zM446 920l54 53l53 -53l-53 -54zM664 51l53 55l53 -55l-53 -51zM664 485l53 54 l53 -54l-53 -51zM664 920l53 53l53 -53l-53 -54zM881 51l51 55l55 -55l-55 -51zM881 268l51 56l55 -56l-55 -51zM881 485l51 54l55 -54l-55 -51zM881 702l51 54l55 -54l-55 -53z" />
<glyph unicode="b" d="M14 51l52 55l55 -55l-55 -51zM14 268l52 56l55 -56l-55 -51zM14 485l52 54l55 -54l-55 -51zM14 702l52 54l55 -54l-55 -53zM14 920l52 53l55 -53l-55 -54zM231 51l52 55l55 -55l-55 -51zM231 485l52 54l55 -54l-55 -51zM231 920l52 53l55 -53l-55 -54zM446 51l54 55 l53 -55l-53 -51zM446 485l54 54l53 -54l-53 -51zM446 920l54 53l53 -53l-53 -54zM664 51l53 55l53 -55l-53 -51zM664 485l53 54l53 -54l-53 -51zM664 920l53 53l53 -53l-53 -54zM881 268l51 56l55 -56l-55 -51zM881 702l51 54l55 -54l-55 -53z" />
<glyph unicode="c" d="M14 268l52 56l55 -56l-55 -51zM14 485l52 54l55 -54l-55 -51zM14 702l52 54l55 -54l-55 -53zM231 51l52 55l55 -55l-55 -51zM231 920l52 53l55 -53l-55 -54zM446 51l54 55l53 -55l-53 -51zM446 920l54 53l53 -53l-53 -54zM664 51l53 55l53 -55l-53 -51zM664 920l53 53 l53 -53l-53 -54zM881 268l51 56l55 -56l-55 -51zM881 702l51 54l55 -54l-55 -53z" />
<glyph unicode="d" d="M14 51l52 55l55 -55l-55 -51zM14 268l52 56l55 -56l-55 -51zM14 485l52 54l55 -54l-55 -51zM14 702l52 54l55 -54l-55 -53zM14 920l52 53l55 -53l-55 -54zM231 51l52 55l55 -55l-55 -51zM231 920l52 53l55 -53l-55 -54zM446 51l54 55l53 -55l-53 -51zM446 920l54 53 l53 -53l-53 -54zM664 51l53 55l53 -55l-53 -51zM664 920l53 53l53 -53l-53 -54zM881 268l51 56l55 -56l-55 -51zM881 485l51 54l55 -54l-55 -51zM881 702l51 54l55 -54l-55 -53z" />
<glyph unicode="e" d="M14 268l52 56l55 -56l-55 -51zM14 485l52 54l55 -54l-55 -51zM14 702l52 54l55 -54l-55 -53zM231 51l52 55l55 -55l-55 -51zM231 485l52 54l55 -54l-55 -51zM231 920l52 53l55 -53l-55 -54zM446 51l54 55l53 -55l-53 -51zM446 485l54 54l53 -54l-53 -51zM446 920l54 53 l53 -53l-53 -54zM664 51l53 55l53 -55l-53 -51zM664 485l53 54l53 -54l-53 -51zM664 920l53 53l53 -53l-53 -54zM881 51l51 55l55 -55l-55 -51zM881 485l51 54l55 -54l-55 -51zM881 702l51 54l55 -54l-55 -53z" />
<glyph unicode="f" d="M14 51l52 55l55 -55l-55 -51zM14 268l52 56l55 -56l-55 -51zM14 485l52 54l55 -54l-55 -51zM14 702l52 54l55 -54l-55 -53zM14 920l52 53l55 -53l-55 -54zM231 485l52 54l55 -54l-55 -51zM231 920l52 53l55 -53l-55 -54zM446 485l54 54l53 -54l-53 -51zM446 920l54 53 l53 -53l-53 -54zM664 485l53 54l53 -54l-53 -51zM664 920l53 53l53 -53l-53 -54zM881 920l51 53l55 -53l-55 -54z" />
<glyph unicode="g" d="M14 268l52 56l55 -56l-55 -51zM14 485l52 54l55 -54l-55 -51zM14 702l52 54l55 -54l-55 -53zM231 51l52 55l55 -55l-55 -51zM231 920l52 53l55 -53l-55 -54zM446 51l54 55l53 -55l-53 -51zM446 920l54 53l53 -53l-53 -54zM664 51l53 55l53 -55l-53 -51zM664 485l53 54 l53 -54l-53 -51zM664 920l53 53l53 -53l-53 -54zM881 51l51 55l55 -55l-55 -51zM881 268l51 56l55 -56l-55 -51zM881 485l51 54l55 -54l-55 -51zM881 920l51 53l55 -53l-55 -54z" />
<glyph unicode="h" d="M14 51l52 55l55 -55l-55 -51zM14 268l52 56l55 -56l-55 -51zM14 485l52 54l55 -54l-55 -51zM14 702l52 54l55 -54l-55 -53zM14 920l52 53l55 -53l-55 -54zM231 485l52 54l55 -54l-55 -51zM446 485l54 54l53 -54l-53 -51zM664 485l53 54l53 -54l-53 -51zM881 51l51 55 l55 -55l-55 -51zM881 268l51 56l55 -56l-55 -51zM881 485l51 54l55 -54l-55 -51zM881 702l51 54l55 -54l-55 -53zM881 920l51 53l55 -53l-55 -54z" />
<glyph unicode="i" d="M14 51l52 55l55 -55l-55 -51zM14 920l52 53l55 -53l-55 -54zM231 51l52 55l55 -55l-55 -51zM231 920l52 53l55 -53l-55 -54zM446 51l54 55l53 -55l-53 -51zM446 268l54 56l53 -56l-53 -51zM446 485l54 54l53 -54l-53 -51zM446 702l54 54l53 -54l-53 -53zM446 920l54 53 l53 -53l-53 -54zM446 1352l54 55l53 -55l-53 -52zM664 51l53 55l53 -55l-53 -51zM881 51l51 55l55 -55l-55 -51z" />
<glyph unicode="j" d="M227 268l54 56l53 -56l-53 -51zM227 920l54 53l53 -53l-53 -54zM444 51l52 55l55 -55l-55 -51zM444 920l52 53l55 -53l-55 -54zM662 51l51 55l55 -55l-55 -51zM662 920l51 53l55 -53l-55 -54zM879 268l51 56l53 -56l-53 -51zM879 485l51 54l53 -54l-53 -51zM879 702 l51 54l53 -54l-53 -53zM879 920l51 53l53 -53l-53 -54z" />
<glyph unicode="k" d="M14 51l52 55l55 -55l-55 -51zM14 268l52 56l55 -56l-55 -51zM14 485l52 54l55 -54l-55 -51zM14 702l52 54l55 -54l-55 -53zM14 920l52 53l55 -53l-55 -54zM231 485l52 54l55 -54l-55 -51zM446 485l54 54l53 -54l-53 -51zM664 485l53 54l53 -54l-53 -51zM881 51l51 55 l55 -55l-55 -51zM881 268l51 56l55 -56l-55 -51zM881 702l51 54l55 -54l-55 -53zM881 920l51 53l55 -53l-55 -54z" />
<glyph unicode="l" d="M14 51l52 55l55 -55l-55 -51zM14 268l52 56l55 -56l-55 -51zM14 485l52 54l55 -54l-55 -51zM14 702l52 54l55 -54l-55 -53zM14 920l52 53l55 -53l-55 -54zM231 51l52 55l55 -55l-55 -51zM446 51l54 55l53 -55l-53 -51zM664 51l53 55l53 -55l-53 -51zM881 51l51 55l55 -55 l-55 -51z" />
<glyph unicode="m" d="M14 51l52 55l55 -55l-55 -51zM14 268l52 56l55 -56l-55 -51zM14 485l52 54l55 -54l-55 -51zM14 702l52 54l55 -54l-55 -53zM14 920l52 53l55 -53l-55 -54zM231 702l52 54l55 -54l-55 -53zM446 51l54 55l53 -55l-53 -51zM446 268l54 56l53 -56l-53 -51zM446 485l54 54 l53 -54l-53 -51zM446 702l54 54l53 -54l-53 -53zM446 920l54 53l53 -53l-53 -54zM664 702l53 54l53 -54l-53 -53zM881 51l51 55l55 -55l-55 -51zM881 268l51 56l55 -56l-55 -51zM881 485l51 54l55 -54l-55 -51zM881 702l51 54l55 -54l-55 -53zM881 920l51 53l55 -53l-55 -54 z" />
<glyph unicode="n" d="M14 51l52 55l55 -55l-55 -51zM14 268l52 56l55 -56l-55 -51zM14 485l52 54l55 -54l-55 -51zM14 702l52 54l55 -54l-55 -53zM14 920l52 53l55 -53l-55 -54zM231 702l52 54l55 -54l-55 -53zM446 920l54 53l53 -53l-53 -54zM664 920l53 53l53 -53l-53 -54zM881 51l51 55 l55 -55l-55 -51zM881 268l51 56l55 -56l-55 -51zM881 485l51 54l55 -54l-55 -51zM881 702l51 54l55 -54l-55 -53z" />
<glyph unicode="o" d="M14 268l52 56l55 -56l-55 -51zM14 485l52 54l55 -54l-55 -51zM14 702l52 54l55 -54l-55 -53zM231 51l52 55l55 -55l-55 -51zM231 920l52 53l55 -53l-55 -54zM446 51l54 55l53 -55l-53 -51zM446 920l54 53l53 -53l-53 -54zM664 51l53 55l53 -55l-53 -51zM664 920l53 53 l53 -53l-53 -54zM881 268l51 56l55 -56l-55 -51zM881 485l51 54l55 -54l-55 -51zM881 702l51 54l55 -54l-55 -53z" />
<glyph unicode="p" d="M14 51l52 55l55 -55l-55 -51zM14 268l52 56l55 -56l-55 -51zM14 485l52 54l55 -54l-55 -51zM14 702l52 54l55 -54l-55 -53zM14 920l52 53l55 -53l-55 -54zM231 485l52 54l55 -54l-55 -51zM231 920l52 53l55 -53l-55 -54zM446 485l54 54l53 -54l-53 -51zM446 920l54 53 l53 -53l-53 -54zM664 485l53 54l53 -54l-53 -51zM664 920l53 53l53 -53l-53 -54zM881 702l51 54l55 -54l-55 -53z" />
<glyph unicode="q" d="M14 268l52 56l55 -56l-55 -51zM14 485l52 54l55 -54l-55 -51zM14 702l52 54l55 -54l-55 -53zM231 51l52 55l55 -55l-55 -51zM231 920l52 53l55 -53l-55 -54zM446 51l54 55l53 -55l-53 -51zM446 -164l54 53l53 -53l-53 -53zM446 268l54 56l53 -56l-53 -51zM446 920l54 53 l53 -53l-53 -54zM664 51l53 55l53 -55l-53 -51zM664 -381l53 53l53 -53l-53 -53zM664 920l53 53l53 -53l-53 -54zM881 268l51 56l55 -56l-55 -51zM881 485l51 54l55 -54l-55 -51zM881 702l51 54l55 -54l-55 -53z" />
<glyph unicode="r" d="M14 51l52 55l55 -55l-55 -51zM14 920l52 53l55 -53l-55 -54zM231 51l52 55l55 -55l-55 -51zM231 268l52 56l55 -56l-55 -51zM231 485l52 54l55 -54l-55 -51zM231 702l52 54l55 -54l-55 -53zM231 920l52 53l55 -53l-55 -54zM446 51l54 55l53 -55l-53 -51zM446 702l54 54 l53 -54l-53 -53zM664 51l53 55l53 -55l-53 -51zM664 920l53 53l53 -53l-53 -54zM881 920l51 53l55 -53l-55 -54z" />
<glyph unicode="s" d="M14 51l52 55l55 -55l-55 -51zM14 702l52 54l55 -54l-55 -53zM231 51l52 55l55 -55l-55 -51zM231 485l52 54l55 -54l-55 -51zM231 920l52 53l55 -53l-55 -54zM446 51l54 55l53 -55l-53 -51zM446 485l54 54l53 -54l-53 -51zM446 920l54 53l53 -53l-53 -54zM664 51l53 55 l53 -55l-53 -51zM664 485l53 54l53 -54l-53 -51zM664 920l53 53l53 -53l-53 -54zM881 268l51 56l55 -56l-55 -51zM881 920l51 53l55 -53l-55 -54z" />
<glyph unicode="t" d="M14 920l52 53l55 -53l-55 -54zM231 920l52 53l55 -53l-55 -54zM446 51l54 55l53 -55l-53 -51zM446 268l54 56l53 -56l-53 -51zM446 485l54 54l53 -54l-53 -51zM446 702l54 54l53 -54l-53 -53zM446 920l54 53l53 -53l-53 -54zM664 920l53 53l53 -53l-53 -54zM881 920 l51 53l55 -53l-55 -54z" />
<glyph unicode="u" d="M14 268l52 56l55 -56l-55 -51zM14 485l52 54l55 -54l-55 -51zM14 702l52 54l55 -54l-55 -53zM14 920l52 53l55 -53l-55 -54zM231 51l52 55l55 -55l-55 -51zM446 51l54 55l53 -55l-53 -51zM664 268l53 56l53 -56l-53 -51zM881 51l51 55l55 -55l-55 -51zM881 268l51 56 l55 -56l-55 -51zM881 485l51 54l55 -54l-55 -51zM881 702l51 54l55 -54l-55 -53zM881 920l51 53l55 -53l-55 -54z" />
<glyph unicode="v" d="M14 702l52 54l55 -54l-55 -53zM14 920l52 53l55 -53l-55 -54zM231 268l52 56l55 -56l-55 -51zM231 485l52 54l55 -54l-55 -51zM446 51l54 55l53 -55l-53 -51zM664 268l53 56l53 -56l-53 -51zM664 485l53 54l53 -54l-53 -51zM881 702l51 54l55 -54l-55 -53zM881 920l51 53 l55 -53l-55 -54z" />
<glyph unicode="w" d="M14 485l52 54l55 -54l-55 -51zM14 702l52 54l55 -54l-55 -53zM14 920l52 53l55 -53l-55 -54zM231 51l52 55l55 -55l-55 -51zM231 268l52 56l55 -56l-55 -51zM446 485l54 54l53 -54l-53 -51zM446 702l54 54l53 -54l-53 -53zM664 51l53 55l53 -55l-53 -51zM664 268l53 56 l53 -56l-53 -51zM881 485l51 54l55 -54l-55 -51zM881 702l51 54l55 -54l-55 -53zM881 920l51 53l55 -53l-55 -54z" />
<glyph unicode="x" d="M14 51l52 55l55 -55l-55 -51zM14 268l52 56l55 -56l-55 -51zM14 702l52 54l55 -54l-55 -53zM14 920l52 53l55 -53l-55 -54zM231 485l52 54l55 -54l-55 -51zM446 485l54 54l53 -54l-53 -51zM664 485l53 54l53 -54l-53 -51zM881 51l51 55l55 -55l-55 -51zM881 268l51 56 l55 -56l-55 -51zM881 702l51 54l55 -54l-55 -53zM881 920l51 53l55 -53l-55 -54z" />
<glyph unicode="y" d="M14 702l52 54l55 -54l-55 -53zM14 920l52 53l55 -53l-55 -54zM231 485l52 54l55 -54l-55 -51zM446 51l54 55l53 -55l-53 -51zM446 268l54 56l53 -56l-53 -51zM664 485l53 54l53 -54l-53 -51zM881 702l51 54l55 -54l-55 -53zM881 920l51 53l55 -53l-55 -54z" />
<glyph unicode="z" d="M14 51l52 55l55 -55l-55 -51zM14 920l52 53l55 -53l-55 -54zM231 51l52 55l55 -55l-55 -51zM231 268l52 56l55 -56l-55 -51zM231 920l52 53l55 -53l-55 -54zM446 51l54 55l53 -55l-53 -51zM446 485l54 54l53 -54l-53 -51zM446 920l54 53l53 -53l-53 -54zM664 51l53 55 l53 -55l-53 -51zM664 702l53 54l53 -54l-53 -53zM664 920l53 53l53 -53l-53 -54zM881 51l51 55l55 -55l-55 -51zM881 920l51 53l55 -53l-55 -54z" />
<glyph unicode="{" d="M231 485l52 54l55 -54l-55 -51zM446 51l54 55l53 -55l-53 -51zM446 268l54 56l53 -56l-53 -51zM446 702l54 54l53 -54l-53 -53zM446 920l54 53l53 -53l-53 -54zM664 -164l53 53l53 -53l-53 -53zM664 1135l53 55l53 -55l-53 -52z" />
<glyph unicode="|" d="M446 51l54 55l53 -55l-53 -51zM446 -164l54 53l53 -53l-53 -53zM446 268l54 56l53 -56l-53 -51zM446 485l54 54l53 -54l-53 -51zM446 702l54 54l53 -54l-53 -53zM446 920l54 53l53 -53l-53 -54zM446 1135l54 55l53 -55l-53 -52z" />
<glyph unicode="}" d="M231 -164l52 53l55 -53l-55 -53zM231 1135l52 55l55 -55l-55 -52zM446 51l54 55l53 -55l-53 -51zM446 268l54 56l53 -56l-53 -51zM446 702l54 54l53 -54l-53 -53zM446 920l54 53l53 -53l-53 -54zM664 485l53 54l53 -54l-53 -51z" />
<glyph unicode="~" d="M14 702l52 54l55 -54l-55 -53zM231 920l52 53l55 -53l-55 -54zM446 702l54 54l53 -54l-53 -53zM664 485l53 54l53 -54l-53 -51zM881 702l51 54l55 -54l-55 -53z" />
<glyph unicode="&#xa0;" />
<glyph unicode="&#xa1;" d="M522 43l53 53l54 -53l-54 -53zM522 260l53 53l54 -53l-54 -53zM522 477l53 51l54 -51l-54 -53zM522 911l53 52l54 -52l-54 -55z" />
<glyph unicode="&#xa2;" d="M14 268l52 56l55 -56l-55 -51zM14 485l52 54l55 -54l-55 -51zM14 702l52 54l55 -54l-55 -53zM231 51l52 55l55 -55l-55 -51zM231 920l52 53l55 -53l-55 -54zM446 51l54 55l53 -55l-53 -51zM446 -164l54 53l53 -53l-53 -53zM446 268l54 56l53 -56l-53 -51zM446 485l54 54 l53 -54l-53 -51zM446 702l54 54l53 -54l-53 -53zM446 920l54 53l53 -53l-53 -54zM446 1135l54 55l53 -55l-53 -52zM664 51l53 55l53 -55l-53 -51zM664 920l53 53l53 -53l-53 -54zM881 268l51 56l55 -56l-55 -51zM881 702l51 54l55 -54l-55 -53z" />
<glyph unicode="&#xa3;" d="M14 51l52 55l55 -55l-55 -51zM14 485l52 54l55 -54l-55 -51zM231 51l52 55l55 -55l-55 -51zM231 268l52 56l55 -56l-55 -51zM231 485l52 54l55 -54l-55 -51zM231 702l52 54l55 -54l-55 -53zM446 51l54 55l53 -55l-53 -51zM446 485l54 54l53 -54l-53 -51zM446 920l54 53 l53 -53l-53 -54zM664 51l53 55l53 -55l-53 -51zM664 485l53 54l53 -54l-53 -51zM664 920l53 53l53 -53l-53 -54zM881 51l51 55l55 -55l-55 -51z" />
<glyph unicode="&#xa4;" d="M14 51l52 55l55 -55l-55 -51zM14 920l52 53l55 -53l-55 -54zM231 268l52 56l55 -56l-55 -51zM231 485l52 54l55 -54l-55 -51zM231 702l52 54l55 -54l-55 -53zM446 268l54 56l53 -56l-53 -51zM446 702l54 54l53 -54l-53 -53zM664 268l53 56l53 -56l-53 -51zM664 485l53 54 l53 -54l-53 -51zM664 702l53 54l53 -54l-53 -53zM881 51l51 55l55 -55l-55 -51zM881 920l51 53l55 -53l-55 -54z" />
<glyph unicode="&#xa5;" d="M14 268l52 56l55 -56l-55 -51zM14 920l52 53l55 -53l-55 -54zM231 268l52 56l55 -56l-55 -51zM231 702l52 54l55 -54l-55 -53zM446 51l54 55l53 -55l-53 -51zM446 268l54 56l53 -56l-53 -51zM446 485l54 54l53 -54l-53 -51zM664 268l53 56l53 -56l-53 -51zM664 702l53 54 l53 -54l-53 -53zM881 268l51 56l55 -56l-55 -51zM881 920l51 53l55 -53l-55 -54z" />
<glyph unicode="&#xa6;" d="M446 51l54 55l53 -55l-53 -51zM446 268l54 56l53 -56l-53 -51zM446 702l54 54l53 -54l-53 -53zM446 920l54 53l53 -53l-53 -54z" />
<glyph unicode="&#xa7;" d="M227 51l54 55l53 -55l-53 -51zM227 702l54 54l53 -54l-53 -53zM227 1135l54 55l53 -55l-53 -52zM444 51l52 55l55 -55l-55 -51zM444 485l52 54l55 -54l-55 -51zM444 920l52 53l55 -53l-55 -54zM444 1352l52 55l55 -55l-55 -52zM662 51l51 55l55 -55l-55 -51zM662 485 l51 54l55 -54l-55 -51zM662 920l51 53l55 -53l-55 -54zM662 1352l51 55l55 -55l-55 -52zM879 268l51 56l53 -56l-53 -51zM879 702l51 54l53 -54l-53 -53zM879 1352l51 55l53 -55l-53 -52z" />
<glyph unicode="&#xa8;" d="M14 1352l52 55l55 -55l-55 -52zM14 1569l52 53l55 -53l-55 -51zM881 1352l51 55l55 -55l-55 -52zM881 1569l51 53l55 -53l-55 -51z" />
<glyph unicode="&#xa9;" d="M14 268l52 56l55 -56l-55 -51zM14 485l52 54l55 -54l-55 -51zM14 702l52 54l55 -54l-55 -53zM231 51l52 55l55 -55l-55 -51zM231 485l52 54l55 -54l-55 -51zM231 920l52 53l55 -53l-55 -54zM446 51l54 55l53 -55l-53 -51zM446 268l54 56l53 -56l-53 -51zM446 702l54 54 l53 -54l-53 -53zM446 920l54 53l53 -53l-53 -54zM664 51l53 55l53 -55l-53 -51zM664 920l53 53l53 -53l-53 -54zM881 268l51 56l55 -56l-55 -51zM881 485l51 54l55 -54l-55 -51zM881 702l51 54l55 -54l-55 -53z" />
<glyph unicode="&#xaa;" d="M20 702l52 54l55 -54l-55 -53zM238 485l51 54l53 -54l-53 -51zM238 702l51 54l53 -54l-53 -53zM238 1135l51 55l53 -55l-53 -52zM453 485l53 54l53 -54l-53 -51zM453 702l53 54l53 -54l-53 -53zM453 920l53 53l53 -53l-53 -54z" />
<glyph unicode="&#xab;" d="M14 485l52 54l55 -54l-55 -51zM231 268l52 56l55 -56l-55 -51zM231 702l52 54l55 -54l-55 -53zM446 51l54 55l53 -55l-53 -51zM446 485l54 54l53 -54l-53 -51zM446 920l54 53l53 -53l-53 -54zM664 268l53 56l53 -56l-53 -51zM664 702l53 54l53 -54l-53 -53zM881 51l51 55 l55 -55l-55 -51zM881 920l51 53l55 -53l-55 -54z" />
<glyph unicode="&#xac;" d="M14 485l52 54l55 -54l-55 -51zM231 485l52 54l55 -54l-55 -51zM446 485l54 54l53 -54l-53 -51zM664 485l53 54l53 -54l-53 -51zM881 51l51 55l55 -55l-55 -51zM881 268l51 56l55 -56l-55 -51zM881 485l51 54l55 -54l-55 -51z" />
<glyph unicode="&#xad;" d="M231 485l52 54l55 -54l-55 -51zM446 485l54 54l53 -54l-53 -51zM664 485l53 54l53 -54l-53 -51z" />
<glyph unicode="&#xae;" d="M14 485l52 54l55 -54l-55 -51zM14 702l52 54l55 -54l-55 -53zM14 920l52 53l55 -53l-55 -54zM231 268l52 56l55 -56l-55 -51zM231 1135l52 55l55 -55l-55 -52zM446 268l54 56l53 -56l-53 -51zM446 702l54 54l53 -54l-53 -53zM446 920l54 53l53 -53l-53 -54zM446 1135 l54 55l53 -55l-53 -52zM664 268l53 56l53 -56l-53 -51zM664 485l53 54l53 -54l-53 -51zM664 920l53 53l53 -53l-53 -54zM664 1135l53 55l53 -55l-53 -52zM881 485l51 54l55 -54l-55 -51zM881 702l51 54l55 -54l-55 -53zM881 920l51 53l55 -53l-55 -54z" />
<glyph unicode="&#xaf;" d="M231 1352l52 55l55 -55l-55 -52zM446 1352l54 55l53 -55l-53 -52zM664 1352l53 55l53 -55l-53 -52z" />
<glyph unicode="&#xb0;" d="M20 920l52 53l55 -53l-55 -54zM238 702l51 54l53 -54l-53 -53zM238 1135l51 55l53 -55l-53 -52zM453 920l53 53l53 -53l-53 -54z" />
<glyph unicode="&#xb1;" d="M14 51l52 55l55 -55l-55 -51zM14 702l52 54l55 -54l-55 -53zM231 51l52 55l55 -55l-55 -51zM231 702l52 54l55 -54l-55 -53zM446 51l54 55l53 -55l-53 -51zM446 485l54 54l53 -54l-53 -51zM446 702l54 54l53 -54l-53 -53zM446 920l54 53l53 -53l-53 -54zM664 51l53 55 l53 -55l-53 -51zM664 702l53 54l53 -54l-53 -53zM881 51l51 55l55 -55l-55 -51zM881 702l51 54l55 -54l-55 -53z" />
<glyph unicode="&#xb2;" d="M23 485l53 54l53 -54l-53 -51zM23 702l53 54l53 -54l-53 -53zM23 1135l53 55l53 -55l-53 -52zM240 485l51 54l55 -54l-55 -51zM240 920l51 53l55 -53l-55 -54z" />
<glyph unicode="&#xb3;" d="M23 485l53 54l53 -54l-53 -51zM23 1135l53 55l53 -55l-53 -52zM240 485l51 54l55 -54l-55 -51zM240 702l51 54l55 -54l-55 -53zM240 920l51 53l55 -53l-55 -54z" />
<glyph unicode="&#xb4;" d="M231 1352l52 55l55 -55l-55 -52zM446 1352l54 55l53 -55l-53 -52zM664 1569l53 53l53 -53l-53 -51z" />
<glyph unicode="&#xb5;" d="M14 51l52 55l55 -55l-55 -51zM14 268l52 56l55 -56l-55 -51zM14 485l52 54l55 -54l-55 -51zM14 702l52 54l55 -54l-55 -53zM14 920l52 53l55 -53l-55 -54zM231 702l52 54l55 -54l-55 -53zM446 268l54 56l53 -56l-53 -51zM446 485l54 54l53 -54l-53 -51zM664 702l53 54 l53 -54l-53 -53zM881 51l51 55l55 -55l-55 -51zM881 268l51 56l55 -56l-55 -51zM881 485l51 54l55 -54l-55 -51zM881 702l51 54l55 -54l-55 -53zM881 920l51 53l55 -53l-55 -54z" />
<glyph unicode="&#xb6;" d="M14 702l52 54l55 -54l-55 -53zM231 485l52 54l55 -54l-55 -51zM231 702l52 54l55 -54l-55 -53zM231 920l52 53l55 -53l-55 -54zM446 51l54 55l53 -55l-53 -51zM446 268l54 56l53 -56l-53 -51zM446 485l54 54l53 -54l-53 -51zM446 702l54 54l53 -54l-53 -53zM446 920 l54 53l53 -53l-53 -54zM881 51l51 55l55 -55l-55 -51zM881 268l51 56l55 -56l-55 -51zM881 485l51 54l55 -54l-55 -51zM881 702l51 54l55 -54l-55 -53zM881 920l51 53l55 -53l-55 -54z" />
<glyph unicode="&#xb7;" d="M238 485l51 54l53 -54l-53 -51zM238 702l51 54l53 -54l-53 -53z" />
<glyph unicode="&#xb8;" d="M233 -381l54 53l53 -53l-53 -53zM451 -164l51 53l55 -53l-55 -53z" />
<glyph unicode="&#xb9;" d="M20 485l52 54l55 -54l-55 -51zM20 1135l52 55l55 -55l-55 -52zM238 485l51 54l53 -54l-53 -51zM238 702l51 54l53 -54l-53 -53zM238 920l51 53l53 -53l-53 -54zM238 1135l51 55l53 -55l-53 -52zM453 485l53 54l53 -54l-53 -51z" />
<glyph unicode="&#xba;" d="M20 920l52 53l55 -53l-55 -54zM238 702l51 54l53 -54l-53 -53zM238 1135l51 55l53 -55l-53 -52zM453 920l53 53l53 -53l-53 -54z" />
<glyph unicode="&#xbb;" d="M14 51l52 55l55 -55l-55 -51zM14 920l52 53l55 -53l-55 -54zM231 268l52 56l55 -56l-55 -51zM231 702l52 54l55 -54l-55 -53zM446 51l54 55l53 -55l-53 -51zM446 485l54 54l53 -54l-53 -51zM446 920l54 53l53 -53l-53 -54zM664 268l53 56l53 -56l-53 -51zM664 702l53 54 l53 -54l-53 -53zM881 485l51 54l55 -54l-55 -51z" />
<glyph unicode="&#xbc;" d="M10 920l53 53l54 -53l-54 -54zM227 51l54 55l53 -55l-53 -51zM227 485l54 54l53 -54l-53 -51zM227 702l54 54l53 -54l-53 -53zM227 920l54 53l53 -53l-53 -54zM444 268l52 56l55 -56l-55 -51zM444 485l52 54l55 -54l-55 -51zM662 702l51 54l55 -54l-55 -53zM662 920 l51 53l55 -53l-55 -54zM879 485l51 54l53 -54l-53 -51zM1094 51l53 55l53 -55l-53 -51zM1094 268l53 56l53 -56l-53 -51zM1094 485l53 54l53 -54l-53 -51zM1094 702l53 54l53 -54l-53 -53z" />
<glyph unicode="&#xbd;" d="M10 920l53 53l54 -53l-54 -54zM227 51l54 55l53 -55l-53 -51zM227 485l54 54l53 -54l-53 -51zM227 702l54 54l53 -54l-53 -53zM227 920l54 53l53 -53l-53 -54zM444 268l52 56l55 -56l-55 -51zM444 485l52 54l55 -54l-55 -51zM662 702l51 54l55 -54l-55 -53zM662 920 l51 53l55 -53l-55 -54zM879 51l51 55l53 -55l-53 -51zM879 268l51 56l53 -56l-53 -51zM879 702l51 54l53 -54l-53 -53zM1094 51l53 55l53 -55l-53 -51zM1094 485l53 54l53 -54l-53 -51z" />
<glyph unicode="&#xbe;" d="M10 268l53 56l54 -56l-54 -51zM10 920l53 53l54 -53l-54 -54zM227 51l54 55l53 -55l-53 -51zM227 485l54 54l53 -54l-53 -51zM227 702l54 54l53 -54l-53 -53zM444 268l52 56l55 -56l-55 -51zM444 485l52 54l55 -54l-55 -51zM662 702l51 54l55 -54l-55 -53zM662 920l51 53 l55 -53l-55 -54zM879 485l51 54l53 -54l-53 -51zM1094 51l53 55l53 -55l-53 -51zM1094 268l53 56l53 -56l-53 -51zM1094 485l53 54l53 -54l-53 -51zM1094 702l53 54l53 -54l-53 -53z" />
<glyph unicode="&#xbf;" d="M61 260l56 53l51 -53l-51 -53zM279 43l53 53l53 -53l-53 -53zM279 477l53 51l53 -51l-53 -53zM496 43l53 53l53 -53l-53 -53zM496 477l53 51l53 -51l-53 -53zM496 911l53 52l53 -52l-53 -55zM711 43l55 53l51 -53l-51 -53zM928 260l55 53l51 -53l-51 -53z" />
<glyph unicode="&#xc0;" d="M94 41l51 53l54 -53l-54 -51zM94 254l51 53l54 -53l-54 -51zM94 467l51 53l54 -53l-54 -51zM94 678l51 53l54 -53l-54 -49zM301 1559l51 53l56 -53l-56 -52zM307 467l51 53l54 -53l-54 -51zM307 891l51 53l54 -53l-54 -51zM518 1341l51 56l54 -56l-54 -51zM520 467l51 53 l54 -53l-54 -51zM520 891l51 53l54 -53l-54 -51zM733 467l49 53l54 -53l-54 -51zM733 891l49 53l54 -53l-54 -51zM733 1341l53 56l54 -56l-54 -51zM944 41l51 53l54 -53l-54 -51zM944 254l51 53l54 -53l-54 -51zM944 467l51 53l54 -53l-54 -51zM944 678l51 53l54 -53 l-54 -49z" />
<glyph unicode="&#xc1;" d="M94 41l51 53l54 -53l-54 -51zM94 254l51 53l54 -53l-54 -51zM94 467l51 53l54 -53l-54 -51zM94 678l51 53l54 -53l-54 -49zM307 467l51 53l54 -53l-54 -51zM307 891l51 53l54 -53l-54 -51zM307 1341l51 56l56 -56l-56 -51zM520 467l51 53l54 -53l-54 -51zM520 891l51 53 l54 -53l-54 -51zM522 1341l53 56l54 -56l-54 -51zM733 467l49 53l54 -53l-54 -51zM733 891l49 53l54 -53l-54 -51zM739 1559l54 53l53 -53l-53 -52zM944 41l51 53l54 -53l-54 -51zM944 254l51 53l54 -53l-54 -51zM944 467l51 53l54 -53l-54 -51zM944 678l51 53l54 -53 l-54 -49z" />
<glyph unicode="&#xc2;" d="M94 41l51 53l54 -53l-54 -51zM94 254l51 53l54 -53l-54 -51zM94 467l51 53l54 -53l-54 -51zM94 678l51 53l54 -53l-54 -49zM307 467l51 53l54 -53l-54 -51zM307 891l51 53l54 -53l-54 -51zM307 1341l51 56l56 -56l-56 -51zM520 467l51 53l54 -53l-54 -51zM520 891l51 53 l54 -53l-54 -51zM522 1559l53 53l54 -53l-54 -52zM733 467l49 53l54 -53l-54 -51zM733 891l49 53l54 -53l-54 -51zM739 1341l54 56l53 -56l-53 -51zM944 41l51 53l54 -53l-54 -51zM944 254l51 53l54 -53l-54 -51zM944 467l51 53l54 -53l-54 -51zM944 678l51 53l54 -53 l-54 -49z" />
<glyph unicode="&#xc3;" d="M90 1341l51 56l56 -56l-56 -51zM94 41l51 53l54 -53l-54 -51zM94 254l51 53l54 -53l-54 -51zM94 467l51 53l54 -53l-54 -51zM94 678l51 53l54 -53l-54 -49zM307 467l51 53l54 -53l-54 -51zM307 891l51 53l54 -53l-54 -51zM307 1559l51 53l56 -53l-56 -52zM520 467l51 53 l54 -53l-54 -51zM520 891l51 53l54 -53l-54 -51zM522 1341l53 56l54 -56l-54 -51zM733 467l49 53l54 -53l-54 -51zM733 891l49 53l54 -53l-54 -51zM739 1341l54 56l53 -56l-53 -51zM944 41l51 53l54 -53l-54 -51zM944 254l51 53l54 -53l-54 -51zM944 467l51 53l54 -53 l-54 -51zM944 678l51 53l54 -53l-54 -49zM956 1559l52 53l55 -53l-55 -52z" />
<glyph unicode="&#xc4;" d="M90 1341l51 56l56 -56l-56 -51zM90 1559l51 53l56 -53l-56 -52zM94 41l51 53l54 -53l-54 -51zM94 254l51 53l54 -53l-54 -51zM94 467l51 53l54 -53l-54 -51zM94 678l51 53l54 -53l-54 -49zM307 467l51 53l54 -53l-54 -51zM307 891l51 53l54 -53l-54 -51zM520 467l51 53 l54 -53l-54 -51zM520 891l51 53l54 -53l-54 -51zM733 467l49 53l54 -53l-54 -51zM733 891l49 53l54 -53l-54 -51zM944 41l51 53l54 -53l-54 -51zM944 254l51 53l54 -53l-54 -51zM944 467l51 53l54 -53l-54 -51zM944 678l51 53l54 -53l-54 -49zM956 1341l52 56l55 -56 l-55 -51zM956 1559l52 53l55 -53l-55 -52z" />
<glyph unicode="&#xc5;" d="M94 41l51 53l54 -53l-54 -51zM94 254l51 53l54 -53l-54 -51zM94 467l51 53l54 -53l-54 -51zM94 678l51 53l54 -53l-54 -49zM307 467l51 53l54 -53l-54 -51zM307 891l51 53l54 -53l-54 -51zM307 1559l51 53l56 -53l-56 -52zM520 467l51 53l54 -53l-54 -51zM520 891l51 53 l54 -53l-54 -51zM522 1341l53 56l54 -56l-54 -51zM522 1776l53 53l54 -53l-54 -54zM733 467l49 53l54 -53l-54 -51zM733 891l49 53l54 -53l-54 -51zM739 1559l54 53l53 -53l-53 -52zM944 41l51 53l54 -53l-54 -51zM944 254l51 53l54 -53l-54 -51zM944 467l51 53l54 -53 l-54 -51zM944 678l51 53l54 -53l-54 -49z" />
<glyph unicode="&#xc6;" d="M18 51l52 53l53 -53l-53 -51zM18 264l52 53l53 -53l-53 -51zM18 477l52 53l53 -53l-53 -51zM18 688l52 53l53 -53l-53 -49zM231 264l52 53l53 -53l-53 -51zM231 901l52 53l53 -53l-53 -51zM444 51l52 53l53 -53l-53 -51zM444 264l52 53l53 -53l-53 -51zM444 477l52 53 l53 -53l-53 -51zM444 688l52 53l53 -53l-53 -49zM444 901l52 53l53 -53l-53 -51zM657 51l50 53l53 -53l-53 -51zM657 477l50 53l53 -53l-53 -51zM657 901l50 53l53 -53l-53 -51zM868 51l52 53l53 -53l-53 -51zM868 901l52 53l53 -53l-53 -51z" />
<glyph unicode="&#xc7;" d="M94 254l51 53l54 -53l-54 -51zM94 467l51 53l54 -53l-54 -51zM94 678l51 53l54 -53l-54 -49zM307 41l51 53l54 -53l-54 -51zM307 891l51 53l54 -53l-54 -51zM309 -391l53 53l54 -53l-54 -53zM520 41l51 53l54 -53l-54 -51zM520 891l51 53l54 -53l-54 -51zM526 -174l52 53 l55 -53l-55 -53zM733 41l49 53l54 -53l-54 -51zM733 891l49 53l54 -53l-54 -51zM944 41l51 53l54 -53l-54 -51zM944 891l51 53l54 -53l-54 -51z" />
<glyph unicode="&#xc8;" d="M94 41l51 53l54 -53l-54 -51zM94 254l51 53l54 -53l-54 -51zM94 467l51 53l54 -53l-54 -51zM94 678l51 53l54 -53l-54 -49zM94 891l51 53l54 -53l-54 -51zM301 1559l51 53l56 -53l-56 -52zM307 41l51 53l54 -53l-54 -51zM307 467l51 53l54 -53l-54 -51zM307 891l51 53 l54 -53l-54 -51zM518 1341l51 56l54 -56l-54 -51zM520 41l51 53l54 -53l-54 -51zM520 467l51 53l54 -53l-54 -51zM520 891l51 53l54 -53l-54 -51zM733 41l49 53l54 -53l-54 -51zM733 467l49 53l54 -53l-54 -51zM733 891l49 53l54 -53l-54 -51zM733 1341l53 56l54 -56 l-54 -51zM944 41l51 53l54 -53l-54 -51zM944 891l51 53l54 -53l-54 -51z" />
<glyph unicode="&#xc9;" d="M94 41l51 53l54 -53l-54 -51zM94 254l51 53l54 -53l-54 -51zM94 467l51 53l54 -53l-54 -51zM94 678l51 53l54 -53l-54 -49zM94 891l51 53l54 -53l-54 -51zM307 41l51 53l54 -53l-54 -51zM307 467l51 53l54 -53l-54 -51zM307 891l51 53l54 -53l-54 -51zM307 1341l51 56 l56 -56l-56 -51zM520 41l51 53l54 -53l-54 -51zM520 467l51 53l54 -53l-54 -51zM520 891l51 53l54 -53l-54 -51zM522 1341l53 56l54 -56l-54 -51zM733 41l49 53l54 -53l-54 -51zM733 467l49 53l54 -53l-54 -51zM733 891l49 53l54 -53l-54 -51zM739 1559l54 53l53 -53 l-53 -52zM944 41l51 53l54 -53l-54 -51zM944 891l51 53l54 -53l-54 -51z" />
<glyph unicode="&#xca;" d="M94 41l51 53l54 -53l-54 -51zM94 254l51 53l54 -53l-54 -51zM94 467l51 53l54 -53l-54 -51zM94 678l51 53l54 -53l-54 -49zM94 891l51 53l54 -53l-54 -51zM307 41l51 53l54 -53l-54 -51zM307 467l51 53l54 -53l-54 -51zM307 891l51 53l54 -53l-54 -51zM307 1341l51 56 l56 -56l-56 -51zM520 41l51 53l54 -53l-54 -51zM520 467l51 53l54 -53l-54 -51zM520 891l51 53l54 -53l-54 -51zM522 1559l53 53l54 -53l-54 -52zM733 41l49 53l54 -53l-54 -51zM733 467l49 53l54 -53l-54 -51zM733 891l49 53l54 -53l-54 -51zM739 1341l54 56l53 -56 l-53 -51zM944 41l51 53l54 -53l-54 -51zM944 891l51 53l54 -53l-54 -51z" />
<glyph unicode="&#xcb;" d="M90 1341l51 56l56 -56l-56 -51zM90 1559l51 53l56 -53l-56 -52zM94 41l51 53l54 -53l-54 -51zM94 254l51 53l54 -53l-54 -51zM94 467l51 53l54 -53l-54 -51zM94 678l51 53l54 -53l-54 -49zM94 891l51 53l54 -53l-54 -51zM307 41l51 53l54 -53l-54 -51zM307 467l51 53 l54 -53l-54 -51zM307 891l51 53l54 -53l-54 -51zM520 41l51 53l54 -53l-54 -51zM520 467l51 53l54 -53l-54 -51zM520 891l51 53l54 -53l-54 -51zM733 41l49 53l54 -53l-54 -51zM733 467l49 53l54 -53l-54 -51zM733 891l49 53l54 -53l-54 -51zM944 41l51 53l54 -53l-54 -51z M944 891l51 53l54 -53l-54 -51zM956 1341l52 56l55 -56l-55 -51zM956 1559l52 53l55 -53l-55 -52z" />
<glyph unicode="&#xcc;" d="M94 41l51 53l54 -53l-54 -51zM94 891l51 53l54 -53l-54 -51zM301 1559l51 53l56 -53l-56 -52zM307 41l51 53l54 -53l-54 -51zM307 891l51 53l54 -53l-54 -51zM518 1341l51 56l54 -56l-54 -51zM520 41l51 53l54 -53l-54 -51zM520 254l51 53l54 -53l-54 -51zM520 467l51 53 l54 -53l-54 -51zM520 678l51 53l54 -53l-54 -49zM520 891l51 53l54 -53l-54 -51zM733 41l49 53l54 -53l-54 -51zM733 891l49 53l54 -53l-54 -51zM733 1341l53 56l54 -56l-54 -51zM944 41l51 53l54 -53l-54 -51zM944 891l51 53l54 -53l-54 -51z" />
<glyph unicode="&#xcd;" d="M94 41l51 53l54 -53l-54 -51zM94 891l51 53l54 -53l-54 -51zM307 41l51 53l54 -53l-54 -51zM307 891l51 53l54 -53l-54 -51zM307 1341l51 56l56 -56l-56 -51zM520 41l51 53l54 -53l-54 -51zM520 254l51 53l54 -53l-54 -51zM520 467l51 53l54 -53l-54 -51zM520 678l51 53 l54 -53l-54 -49zM520 891l51 53l54 -53l-54 -51zM522 1341l53 56l54 -56l-54 -51zM733 41l49 53l54 -53l-54 -51zM733 891l49 53l54 -53l-54 -51zM739 1559l54 53l53 -53l-53 -52zM944 41l51 53l54 -53l-54 -51zM944 891l51 53l54 -53l-54 -51z" />
<glyph unicode="&#xce;" d="M94 41l51 53l54 -53l-54 -51zM94 891l51 53l54 -53l-54 -51zM307 41l51 53l54 -53l-54 -51zM307 891l51 53l54 -53l-54 -51zM307 1341l51 56l56 -56l-56 -51zM520 41l51 53l54 -53l-54 -51zM520 254l51 53l54 -53l-54 -51zM520 467l51 53l54 -53l-54 -51zM520 678l51 53 l54 -53l-54 -49zM520 891l51 53l54 -53l-54 -51zM522 1559l53 53l54 -53l-54 -52zM733 41l49 53l54 -53l-54 -51zM733 891l49 53l54 -53l-54 -51zM739 1341l54 56l53 -56l-53 -51zM944 41l51 53l54 -53l-54 -51zM944 891l51 53l54 -53l-54 -51z" />
<glyph unicode="&#xcf;" d="M90 1341l51 56l56 -56l-56 -51zM90 1559l51 53l56 -53l-56 -52zM94 41l51 53l54 -53l-54 -51zM94 891l51 53l54 -53l-54 -51zM307 41l51 53l54 -53l-54 -51zM307 891l51 53l54 -53l-54 -51zM520 41l51 53l54 -53l-54 -51zM520 254l51 53l54 -53l-54 -51zM520 467l51 53 l54 -53l-54 -51zM520 678l51 53l54 -53l-54 -49zM520 891l51 53l54 -53l-54 -51zM733 41l49 53l54 -53l-54 -51zM733 891l49 53l54 -53l-54 -51zM944 41l51 53l54 -53l-54 -51zM944 891l51 53l54 -53l-54 -51zM956 1341l52 56l55 -56l-55 -51zM956 1559l52 53l55 -53 l-55 -52z" />
<glyph unicode="&#xd0;" d="M18 477l52 53l53 -53l-53 -51zM231 51l52 53l53 -53l-53 -51zM231 264l52 53l53 -53l-53 -51zM231 477l52 53l53 -53l-53 -51zM231 688l52 53l53 -53l-53 -49zM231 901l52 53l53 -53l-53 -51zM444 51l52 53l53 -53l-53 -51zM444 477l52 53l53 -53l-53 -51zM444 901l52 53 l53 -53l-53 -51zM657 51l50 53l53 -53l-53 -51zM657 901l50 53l53 -53l-53 -51zM868 264l52 53l53 -53l-53 -51zM868 477l52 53l53 -53l-53 -51zM868 688l52 53l53 -53l-53 -49z" />
<glyph unicode="&#xd1;" d="M90 1341l51 56l56 -56l-56 -51zM94 41l51 53l54 -53l-54 -51zM94 254l51 53l54 -53l-54 -51zM94 467l51 53l54 -53l-54 -51zM94 678l51 53l54 -53l-54 -49zM94 891l51 53l54 -53l-54 -51zM307 678l51 53l54 -53l-54 -49zM307 1559l51 53l56 -53l-56 -52zM520 467l51 53 l54 -53l-54 -51zM522 1341l53 56l54 -56l-54 -51zM733 254l49 53l54 -53l-54 -51zM739 1341l54 56l53 -56l-53 -51zM944 41l51 53l54 -53l-54 -51zM944 254l51 53l54 -53l-54 -51zM944 467l51 53l54 -53l-54 -51zM944 678l51 53l54 -53l-54 -49zM944 891l51 53l54 -53 l-54 -51zM956 1559l52 53l55 -53l-55 -52z" />
<glyph unicode="&#xd2;" d="M94 254l51 53l54 -53l-54 -51zM94 467l51 53l54 -53l-54 -51zM94 678l51 53l54 -53l-54 -49zM301 1559l51 53l56 -53l-56 -52zM307 41l51 53l54 -53l-54 -51zM307 891l51 53l54 -53l-54 -51zM518 1341l51 56l54 -56l-54 -51zM520 41l51 53l54 -53l-54 -51zM520 891l51 53 l54 -53l-54 -51zM733 41l49 53l54 -53l-54 -51zM733 891l49 53l54 -53l-54 -51zM733 1341l53 56l54 -56l-54 -51zM944 254l51 53l54 -53l-54 -51zM944 467l51 53l54 -53l-54 -51zM944 678l51 53l54 -53l-54 -49z" />
<glyph unicode="&#xd3;" d="M94 254l51 53l54 -53l-54 -51zM94 467l51 53l54 -53l-54 -51zM94 678l51 53l54 -53l-54 -49zM307 41l51 53l54 -53l-54 -51zM307 891l51 53l54 -53l-54 -51zM307 1341l51 56l56 -56l-56 -51zM520 41l51 53l54 -53l-54 -51zM520 891l51 53l54 -53l-54 -51zM522 1341l53 56 l54 -56l-54 -51zM733 41l49 53l54 -53l-54 -51zM733 891l49 53l54 -53l-54 -51zM739 1559l54 53l53 -53l-53 -52zM944 254l51 53l54 -53l-54 -51zM944 467l51 53l54 -53l-54 -51zM944 678l51 53l54 -53l-54 -49z" />
<glyph unicode="&#xd4;" d="M94 254l51 53l54 -53l-54 -51zM94 467l51 53l54 -53l-54 -51zM94 678l51 53l54 -53l-54 -49zM307 41l51 53l54 -53l-54 -51zM307 891l51 53l54 -53l-54 -51zM307 1341l51 56l56 -56l-56 -51zM520 41l51 53l54 -53l-54 -51zM520 891l51 53l54 -53l-54 -51zM522 1559l53 53 l54 -53l-54 -52zM733 41l49 53l54 -53l-54 -51zM733 891l49 53l54 -53l-54 -51zM739 1341l54 56l53 -56l-53 -51zM944 254l51 53l54 -53l-54 -51zM944 467l51 53l54 -53l-54 -51zM944 678l51 53l54 -53l-54 -49z" />
<glyph unicode="&#xd5;" d="M90 1341l51 56l56 -56l-56 -51zM94 254l51 53l54 -53l-54 -51zM94 467l51 53l54 -53l-54 -51zM94 678l51 53l54 -53l-54 -49zM307 41l51 53l54 -53l-54 -51zM307 891l51 53l54 -53l-54 -51zM307 1559l51 53l56 -53l-56 -52zM520 41l51 53l54 -53l-54 -51zM520 891l51 53 l54 -53l-54 -51zM522 1341l53 56l54 -56l-54 -51zM733 41l49 53l54 -53l-54 -51zM733 891l49 53l54 -53l-54 -51zM739 1341l54 56l53 -56l-53 -51zM944 254l51 53l54 -53l-54 -51zM944 467l51 53l54 -53l-54 -51zM944 678l51 53l54 -53l-54 -49zM956 1559l52 53l55 -53 l-55 -52z" />
<glyph unicode="&#xd6;" d="M90 1341l51 56l56 -56l-56 -51zM90 1559l51 53l56 -53l-56 -52zM94 254l51 53l54 -53l-54 -51zM94 467l51 53l54 -53l-54 -51zM94 678l51 53l54 -53l-54 -49zM307 41l51 53l54 -53l-54 -51zM307 891l51 53l54 -53l-54 -51zM520 41l51 53l54 -53l-54 -51zM520 891l51 53 l54 -53l-54 -51zM733 41l49 53l54 -53l-54 -51zM733 891l49 53l54 -53l-54 -51zM944 254l51 53l54 -53l-54 -51zM944 467l51 53l54 -53l-54 -51zM944 678l51 53l54 -53l-54 -49zM956 1341l52 56l55 -56l-55 -51zM956 1559l52 53l55 -53l-55 -52z" />
<glyph unicode="&#xd7;" d="M14 51l52 55l55 -55l-55 -51zM14 920l52 53l55 -53l-55 -54zM231 268l52 56l55 -56l-55 -51zM231 702l52 54l55 -54l-55 -53zM446 485l54 54l53 -54l-53 -51zM664 268l53 56l53 -56l-53 -51zM664 702l53 54l53 -54l-53 -53zM881 51l51 55l55 -55l-55 -51zM881 920l51 53 l55 -53l-55 -54z" />
<glyph unicode="&#xd8;" d="M18 264l52 53l53 -53l-53 -51zM18 477l52 53l53 -53l-53 -51zM18 688l52 53l53 -53l-53 -49zM231 51l52 53l53 -53l-53 -51zM231 901l52 53l53 -53l-53 -51zM236 264l51 53l53 -53l-53 -51zM444 51l52 53l53 -53l-53 -51zM444 688l52 53l53 -53l-53 -49zM444 901l52 53 l53 -53l-53 -51zM449 477l51 53l53 -53l-53 -51zM657 51l50 53l53 -53l-53 -51zM657 901l50 53l53 -53l-53 -51zM662 1114l51 53l51 -53l-51 -51zM868 264l52 53l53 -53l-53 -51zM868 477l52 53l53 -53l-53 -51zM868 688l52 53l53 -53l-53 -49z" />
<glyph unicode="&#xd9;" d="M94 254l51 53l54 -53l-54 -51zM94 467l51 53l54 -53l-54 -51zM94 678l51 53l54 -53l-54 -49zM94 891l51 53l54 -53l-54 -51zM301 1559l51 53l56 -53l-56 -52zM307 41l51 53l54 -53l-54 -51zM518 1341l51 56l54 -56l-54 -51zM520 41l51 53l54 -53l-54 -51zM733 41l49 53 l54 -53l-54 -51zM733 1341l53 56l54 -56l-54 -51zM944 254l51 53l54 -53l-54 -51zM944 467l51 53l54 -53l-54 -51zM944 678l51 53l54 -53l-54 -49zM944 891l51 53l54 -53l-54 -51z" />
<glyph unicode="&#xda;" d="M94 254l51 53l54 -53l-54 -51zM94 467l51 53l54 -53l-54 -51zM94 678l51 53l54 -53l-54 -49zM94 891l51 53l54 -53l-54 -51zM307 41l51 53l54 -53l-54 -51zM307 1341l51 56l56 -56l-56 -51zM520 41l51 53l54 -53l-54 -51zM522 1341l53 56l54 -56l-54 -51zM733 41l49 53 l54 -53l-54 -51zM739 1559l54 53l53 -53l-53 -52zM944 254l51 53l54 -53l-54 -51zM944 467l51 53l54 -53l-54 -51zM944 678l51 53l54 -53l-54 -49zM944 891l51 53l54 -53l-54 -51z" />
<glyph unicode="&#xdb;" d="M94 254l51 53l54 -53l-54 -51zM94 467l51 53l54 -53l-54 -51zM94 678l51 53l54 -53l-54 -49zM94 891l51 53l54 -53l-54 -51zM307 41l51 53l54 -53l-54 -51zM307 1341l51 56l56 -56l-56 -51zM520 41l51 53l54 -53l-54 -51zM522 1559l53 53l54 -53l-54 -52zM733 41l49 53 l54 -53l-54 -51zM739 1341l54 56l53 -56l-53 -51zM944 254l51 53l54 -53l-54 -51zM944 467l51 53l54 -53l-54 -51zM944 678l51 53l54 -53l-54 -49zM944 891l51 53l54 -53l-54 -51z" />
<glyph unicode="&#xdc;" d="M90 1341l51 56l56 -56l-56 -51zM90 1559l51 53l56 -53l-56 -52zM94 254l51 53l54 -53l-54 -51zM94 467l51 53l54 -53l-54 -51zM94 678l51 53l54 -53l-54 -49zM94 891l51 53l54 -53l-54 -51zM307 41l51 53l54 -53l-54 -51zM520 41l51 53l54 -53l-54 -51zM733 41l49 53 l54 -53l-54 -51zM944 254l51 53l54 -53l-54 -51zM944 467l51 53l54 -53l-54 -51zM944 678l51 53l54 -53l-54 -49zM944 891l51 53l54 -53l-54 -51zM956 1341l52 56l55 -56l-55 -51zM956 1559l52 53l55 -53l-55 -52z" />
<glyph unicode="&#xdd;" d="M94 678l51 53l54 -53l-54 -49zM94 891l51 53l54 -53l-54 -51zM307 467l51 53l54 -53l-54 -51zM307 1341l51 56l56 -56l-56 -51zM520 41l51 53l54 -53l-54 -51zM520 254l51 53l54 -53l-54 -51zM522 1341l53 56l54 -56l-54 -51zM733 467l49 53l54 -53l-54 -51zM739 1559 l54 53l53 -53l-53 -52zM944 678l51 53l54 -53l-54 -49zM944 891l51 53l54 -53l-54 -51z" />
<glyph unicode="&#xde;" d="M18 51l52 53l53 -53l-53 -51zM18 264l52 53l53 -53l-53 -51zM18 477l52 53l53 -53l-53 -51zM18 688l52 53l53 -53l-53 -49zM18 901l52 53l53 -53l-53 -51zM231 264l52 53l53 -53l-53 -51zM231 688l52 53l53 -53l-53 -49zM444 264l52 53l53 -53l-53 -51zM444 688l52 53 l53 -53l-53 -49zM657 264l50 53l53 -53l-53 -51zM657 688l50 53l53 -53l-53 -49zM868 477l52 53l53 -53l-53 -51z" />
<glyph unicode="&#xdf;" d="M16 51l54 55l53 -55l-53 -51zM16 268l54 56l53 -56l-53 -51zM16 485l54 54l53 -54l-53 -51zM16 702l54 54l53 -54l-53 -53zM233 920l54 53l53 -53l-53 -54zM451 51l51 55l55 -55l-55 -51zM451 485l51 54l55 -54l-55 -51zM451 920l51 53l55 -53l-55 -54zM668 268l51 56 l55 -56l-55 -51zM668 702l51 54l55 -54l-55 -53z" />
<glyph unicode="&#xe0;" d="M90 258l51 55l56 -55l-56 -51zM301 1559l51 53l56 -53l-56 -52zM307 41l51 55l56 -55l-56 -51zM307 475l51 53l56 -53l-56 -51zM307 909l51 54l56 -54l-56 -53zM518 1341l51 56l54 -56l-54 -51zM522 41l53 55l54 -55l-54 -51zM522 475l53 53l54 -53l-54 -51zM522 909 l53 54l54 -54l-54 -53zM733 1341l53 56l54 -56l-54 -51zM739 41l54 55l53 -55l-53 -51zM739 475l54 53l53 -53l-53 -51zM739 909l54 54l53 -54l-53 -53zM956 41l52 55l55 -55l-55 -51zM956 258l52 55l55 -55l-55 -51zM956 475l52 53l55 -53l-55 -51zM956 692l52 53l55 -53 l-55 -53z" />
<glyph unicode="&#xe1;" d="M90 258l51 55l56 -55l-56 -51zM307 41l51 55l56 -55l-56 -51zM307 475l51 53l56 -53l-56 -51zM307 909l51 54l56 -54l-56 -53zM307 1341l51 56l56 -56l-56 -51zM522 41l53 55l54 -55l-54 -51zM522 475l53 53l54 -53l-54 -51zM522 909l53 54l54 -54l-54 -53zM522 1341 l53 56l54 -56l-54 -51zM739 41l54 55l53 -55l-53 -51zM739 475l54 53l53 -53l-53 -51zM739 909l54 54l53 -54l-53 -53zM739 1559l54 53l53 -53l-53 -52zM956 41l52 55l55 -55l-55 -51zM956 258l52 55l55 -55l-55 -51zM956 475l52 53l55 -53l-55 -51zM956 692l52 53l55 -53 l-55 -53z" />
<glyph unicode="&#xe2;" d="M90 258l51 55l56 -55l-56 -51zM307 41l51 55l56 -55l-56 -51zM307 475l51 53l56 -53l-56 -51zM307 909l51 54l56 -54l-56 -53zM522 41l53 55l54 -55l-54 -51zM522 475l53 53l54 -53l-54 -51zM522 909l53 54l54 -54l-54 -53zM739 41l54 55l53 -55l-53 -51zM739 475l54 53 l53 -53l-53 -51zM739 909l54 54l53 -54l-53 -53zM956 41l52 55l55 -55l-55 -51zM956 258l52 55l55 -55l-55 -51zM956 475l52 53l55 -53l-55 -51zM956 692l52 53l55 -53l-55 -53z" />
<glyph unicode="&#xe3;" d="M90 258l51 55l56 -55l-56 -51zM90 1341l51 56l56 -56l-56 -51zM307 41l51 55l56 -55l-56 -51zM307 475l51 53l56 -53l-56 -51zM307 909l51 54l56 -54l-56 -53zM307 1559l51 53l56 -53l-56 -52zM522 41l53 55l54 -55l-54 -51zM522 475l53 53l54 -53l-54 -51zM522 909 l53 54l54 -54l-54 -53zM522 1341l53 56l54 -56l-54 -51zM739 41l54 55l53 -55l-53 -51zM739 475l54 53l53 -53l-53 -51zM739 909l54 54l53 -54l-53 -53zM739 1341l54 56l53 -56l-53 -51zM956 41l52 55l55 -55l-55 -51zM956 258l52 55l55 -55l-55 -51zM956 475l52 53l55 -53 l-55 -51zM956 692l52 53l55 -53l-55 -53zM956 1559l52 53l55 -53l-55 -52z" />
<glyph unicode="&#xe4;" d="M90 258l51 55l56 -55l-56 -51zM90 1341l51 56l56 -56l-56 -51zM90 1559l51 53l56 -53l-56 -52zM307 41l51 55l56 -55l-56 -51zM307 475l51 53l56 -53l-56 -51zM307 909l51 54l56 -54l-56 -53zM522 41l53 55l54 -55l-54 -51zM522 475l53 53l54 -53l-54 -51zM522 909l53 54 l54 -54l-54 -53zM739 41l54 55l53 -55l-53 -51zM739 475l54 53l53 -53l-53 -51zM739 909l54 54l53 -54l-53 -53zM956 41l52 55l55 -55l-55 -51zM956 258l52 55l55 -55l-55 -51zM956 475l52 53l55 -53l-55 -51zM956 692l52 53l55 -53l-55 -53zM956 1341l52 56l55 -56l-55 -51 zM956 1559l52 53l55 -53l-55 -52z" />
<glyph unicode="&#xe5;" d="M90 258l51 55l56 -55l-56 -51zM307 41l51 55l56 -55l-56 -51zM307 475l51 53l56 -53l-56 -51zM307 909l51 54l56 -54l-56 -53zM307 1559l51 53l56 -53l-56 -52zM522 41l53 55l54 -55l-54 -51zM522 475l53 53l54 -53l-54 -51zM522 909l53 54l54 -54l-54 -53zM522 1341 l53 56l54 -56l-54 -51zM522 1776l53 53l54 -53l-54 -54zM739 41l54 55l53 -55l-53 -51zM739 475l54 53l53 -53l-53 -51zM739 909l54 54l53 -54l-53 -53zM739 1559l54 53l53 -53l-53 -52zM956 41l52 55l55 -55l-55 -51zM956 258l52 55l55 -55l-55 -51zM956 475l52 53l55 -53 l-55 -51zM956 692l52 53l55 -53l-55 -53z" />
<glyph unicode="&#xe6;" d="M14 268l52 56l55 -56l-55 -51zM231 51l52 55l55 -55l-55 -51zM231 485l52 54l55 -54l-55 -51zM231 920l52 53l55 -53l-55 -54zM446 51l54 55l53 -55l-53 -51zM446 268l54 56l53 -56l-53 -51zM446 485l54 54l53 -54l-53 -51zM446 702l54 54l53 -54l-53 -53zM664 51l53 55 l53 -55l-53 -51zM664 485l53 54l53 -54l-53 -51zM664 920l53 53l53 -53l-53 -54zM881 51l51 55l55 -55l-55 -51zM881 702l51 54l55 -54l-55 -53z" />
<glyph unicode="&#xe7;" d="M90 258l51 55l56 -55l-56 -51zM90 475l51 53l56 -53l-56 -51zM90 692l51 53l56 -53l-56 -53zM307 41l51 55l56 -55l-56 -51zM307 909l51 54l56 -54l-56 -53zM309 -391l53 53l54 -53l-54 -53zM522 41l53 55l54 -55l-54 -51zM522 909l53 54l54 -54l-54 -53zM526 -174l52 53 l55 -53l-55 -53zM739 41l54 55l53 -55l-53 -51zM739 909l54 54l53 -54l-53 -53zM956 258l52 55l55 -55l-55 -51zM956 692l52 53l55 -53l-55 -53z" />
<glyph unicode="&#xe8;" d="M90 258l51 55l56 -55l-56 -51zM90 475l51 53l56 -53l-56 -51zM90 692l51 53l56 -53l-56 -53zM301 1559l51 53l56 -53l-56 -52zM307 41l51 55l56 -55l-56 -51zM307 475l51 53l56 -53l-56 -51zM307 909l51 54l56 -54l-56 -53zM518 1341l51 56l54 -56l-54 -51zM522 41l53 55 l54 -55l-54 -51zM522 475l53 53l54 -53l-54 -51zM522 909l53 54l54 -54l-54 -53zM733 1341l53 56l54 -56l-54 -51zM739 41l54 55l53 -55l-53 -51zM739 475l54 53l53 -53l-53 -51zM739 909l54 54l53 -54l-53 -53zM956 41l52 55l55 -55l-55 -51zM956 475l52 53l55 -53l-55 -51 zM956 692l52 53l55 -53l-55 -53z" />
<glyph unicode="&#xe9;" d="M90 258l51 55l56 -55l-56 -51zM90 475l51 53l56 -53l-56 -51zM90 692l51 53l56 -53l-56 -53zM307 41l51 55l56 -55l-56 -51zM307 475l51 53l56 -53l-56 -51zM307 909l51 54l56 -54l-56 -53zM307 1341l51 56l56 -56l-56 -51zM522 41l53 55l54 -55l-54 -51zM522 475l53 53 l54 -53l-54 -51zM522 909l53 54l54 -54l-54 -53zM522 1341l53 56l54 -56l-54 -51zM739 41l54 55l53 -55l-53 -51zM739 475l54 53l53 -53l-53 -51zM739 909l54 54l53 -54l-53 -53zM739 1559l54 53l53 -53l-53 -52zM956 41l52 55l55 -55l-55 -51zM956 475l52 53l55 -53 l-55 -51zM956 692l52 53l55 -53l-55 -53z" />
<glyph unicode="&#xea;" d="M90 258l51 55l56 -55l-56 -51zM90 475l51 53l56 -53l-56 -51zM90 692l51 53l56 -53l-56 -53zM307 41l51 55l56 -55l-56 -51zM307 475l51 53l56 -53l-56 -51zM307 909l51 54l56 -54l-56 -53zM307 1341l51 56l56 -56l-56 -51zM522 41l53 55l54 -55l-54 -51zM522 475l53 53 l54 -53l-54 -51zM522 909l53 54l54 -54l-54 -53zM522 1559l53 53l54 -53l-54 -52zM739 41l54 55l53 -55l-53 -51zM739 475l54 53l53 -53l-53 -51zM739 909l54 54l53 -54l-53 -53zM739 1341l54 56l53 -56l-53 -51zM956 41l52 55l55 -55l-55 -51zM956 475l52 53l55 -53 l-55 -51zM956 692l52 53l55 -53l-55 -53z" />
<glyph unicode="&#xeb;" d="M90 258l51 55l56 -55l-56 -51zM90 475l51 53l56 -53l-56 -51zM90 692l51 53l56 -53l-56 -53zM90 1341l51 56l56 -56l-56 -51zM90 1559l51 53l56 -53l-56 -52zM307 41l51 55l56 -55l-56 -51zM307 475l51 53l56 -53l-56 -51zM307 909l51 54l56 -54l-56 -53zM522 41l53 55 l54 -55l-54 -51zM522 475l53 53l54 -53l-54 -51zM522 909l53 54l54 -54l-54 -53zM739 41l54 55l53 -55l-53 -51zM739 475l54 53l53 -53l-53 -51zM739 909l54 54l53 -54l-53 -53zM956 41l52 55l55 -55l-55 -51zM956 475l52 53l55 -53l-55 -51zM956 692l52 53l55 -53l-55 -53z M956 1341l52 56l55 -56l-55 -51zM956 1559l52 53l55 -53l-55 -52z" />
<glyph unicode="&#xec;" d="M14 51l52 55l55 -55l-55 -51zM14 920l52 53l55 -53l-55 -54zM231 51l52 55l55 -55l-55 -51zM231 920l52 53l55 -53l-55 -54zM231 1569l52 53l55 -53l-55 -51zM446 51l54 55l53 -55l-53 -51zM446 268l54 56l53 -56l-53 -51zM446 485l54 54l53 -54l-53 -51zM446 702l54 54 l53 -54l-53 -53zM446 920l54 53l53 -53l-53 -54zM446 1352l54 55l53 -55l-53 -52zM664 51l53 55l53 -55l-53 -51zM664 1352l53 55l53 -55l-53 -52zM881 51l51 55l55 -55l-55 -51z" />
<glyph unicode="&#xed;" d="M14 51l52 55l55 -55l-55 -51zM14 920l52 53l55 -53l-55 -54zM231 51l52 55l55 -55l-55 -51zM231 920l52 53l55 -53l-55 -54zM231 1352l52 55l55 -55l-55 -52zM446 51l54 55l53 -55l-53 -51zM446 268l54 56l53 -56l-53 -51zM446 485l54 54l53 -54l-53 -51zM446 702l54 54 l53 -54l-53 -53zM446 920l54 53l53 -53l-53 -54zM446 1352l54 55l53 -55l-53 -52zM664 51l53 55l53 -55l-53 -51zM664 1569l53 53l53 -53l-53 -51zM881 51l51 55l55 -55l-55 -51z" />
<glyph unicode="&#xee;" d="M14 51l52 55l55 -55l-55 -51zM14 920l52 53l55 -53l-55 -54zM231 51l52 55l55 -55l-55 -51zM231 920l52 53l55 -53l-55 -54zM231 1352l52 55l55 -55l-55 -52zM446 51l54 55l53 -55l-53 -51zM446 268l54 56l53 -56l-53 -51zM446 485l54 54l53 -54l-53 -51zM446 702l54 54 l53 -54l-53 -53zM446 920l54 53l53 -53l-53 -54zM446 1569l54 53l53 -53l-53 -51zM664 51l53 55l53 -55l-53 -51zM664 1352l53 55l53 -55l-53 -52zM881 51l51 55l55 -55l-55 -51z" />
<glyph unicode="&#xef;" d="M14 51l52 55l55 -55l-55 -51zM14 920l52 53l55 -53l-55 -54zM14 1352l52 55l55 -55l-55 -52zM14 1569l52 53l55 -53l-55 -51zM231 51l52 55l55 -55l-55 -51zM231 920l52 53l55 -53l-55 -54zM446 51l54 55l53 -55l-53 -51zM446 268l54 56l53 -56l-53 -51zM446 485l54 54 l53 -54l-53 -51zM446 702l54 54l53 -54l-53 -53zM446 920l54 53l53 -53l-53 -54zM664 51l53 55l53 -55l-53 -51zM881 51l51 55l55 -55l-55 -51zM881 1352l51 55l55 -55l-55 -52zM881 1569l51 53l55 -53l-55 -51z" />
<glyph unicode="&#xf0;" d="M12 268l54 56l53 -56l-53 -51zM229 51l54 55l53 -55l-53 -51zM229 485l54 54l53 -54l-53 -51zM229 920l54 53l53 -53l-53 -54zM309 907.5q0 22.5 16.5 39t39 16.5t37 -16.5t14.5 -39.5q0 -51 -51 -51q-23 0 -39.5 14.5t-16.5 37zM446 51l52 55l55 -55l-55 -51zM446 485 l52 54l55 -54l-55 -51zM446 920l52 53l55 -53l-55 -54zM526 907.5q0 22.5 16.5 39t39.5 16.5q20 0 35.5 -16.5t15.5 -39t-14.5 -37t-37 -14.5t-39 14.5t-16.5 37zM664 51l51 55l55 -55l-55 -51zM664 485l51 54l55 -54l-55 -51zM664 702l51 54l55 -54l-55 -53zM881 268l51 56 l53 -56l-53 -51zM881 485l51 54l53 -54l-53 -51zM881 920l51 53l53 -53l-53 -54zM961 907.5q0 22.5 15 39t37.5 16.5t37 -16.5t14.5 -39.5q0 -51 -51 -51q-23 0 -38 14.5t-15 37z" />
<glyph unicode="&#xf1;" d="M90 41l51 55l56 -55l-56 -51zM90 258l51 55l56 -55l-56 -51zM90 475l51 53l56 -53l-56 -51zM90 692l51 53l56 -53l-56 -53zM90 909l51 54l56 -54l-56 -53zM90 1341l51 56l56 -56l-56 -51zM307 692l51 53l56 -53l-56 -53zM307 1559l51 53l56 -53l-56 -52zM522 909l53 54 l54 -54l-54 -53zM522 1341l53 56l54 -56l-54 -51zM739 909l54 54l53 -54l-53 -53zM739 1341l54 56l53 -56l-53 -51zM956 41l52 55l55 -55l-55 -51zM956 258l52 55l55 -55l-55 -51zM956 475l52 53l55 -53l-55 -51zM956 692l52 53l55 -53l-55 -53zM956 1559l52 53l55 -53 l-55 -52z" />
<glyph unicode="&#xf2;" d="M90 258l51 55l56 -55l-56 -51zM90 475l51 53l56 -53l-56 -51zM90 692l51 53l56 -53l-56 -53zM301 1559l51 53l56 -53l-56 -52zM307 41l51 55l56 -55l-56 -51zM307 909l51 54l56 -54l-56 -53zM518 1341l51 56l54 -56l-54 -51zM522 41l53 55l54 -55l-54 -51zM522 909l53 54 l54 -54l-54 -53zM733 1341l53 56l54 -56l-54 -51zM739 41l54 55l53 -55l-53 -51zM739 909l54 54l53 -54l-53 -53zM956 258l52 55l55 -55l-55 -51zM956 475l52 53l55 -53l-55 -51zM956 692l52 53l55 -53l-55 -53z" />
<glyph unicode="&#xf3;" d="M90 258l51 55l56 -55l-56 -51zM90 475l51 53l56 -53l-56 -51zM90 692l51 53l56 -53l-56 -53zM307 41l51 55l56 -55l-56 -51zM307 909l51 54l56 -54l-56 -53zM307 1341l51 56l56 -56l-56 -51zM522 41l53 55l54 -55l-54 -51zM522 909l53 54l54 -54l-54 -53zM522 1341l53 56 l54 -56l-54 -51zM739 41l54 55l53 -55l-53 -51zM739 909l54 54l53 -54l-53 -53zM739 1559l54 53l53 -53l-53 -52zM956 258l52 55l55 -55l-55 -51zM956 475l52 53l55 -53l-55 -51zM956 692l52 53l55 -53l-55 -53z" />
<glyph unicode="&#xf4;" d="M90 258l51 55l56 -55l-56 -51zM90 475l51 53l56 -53l-56 -51zM90 692l51 53l56 -53l-56 -53zM307 41l51 55l56 -55l-56 -51zM307 909l51 54l56 -54l-56 -53zM307 1341l51 56l56 -56l-56 -51zM522 41l53 55l54 -55l-54 -51zM522 909l53 54l54 -54l-54 -53zM522 1559l53 53 l54 -53l-54 -52zM739 41l54 55l53 -55l-53 -51zM739 909l54 54l53 -54l-53 -53zM739 1341l54 56l53 -56l-53 -51zM956 258l52 55l55 -55l-55 -51zM956 475l52 53l55 -53l-55 -51zM956 692l52 53l55 -53l-55 -53z" />
<glyph unicode="&#xf5;" d="M90 258l51 55l56 -55l-56 -51zM90 475l51 53l56 -53l-56 -51zM90 692l51 53l56 -53l-56 -53zM90 1341l51 56l56 -56l-56 -51zM307 41l51 55l56 -55l-56 -51zM307 909l51 54l56 -54l-56 -53zM307 1559l51 53l56 -53l-56 -52zM522 41l53 55l54 -55l-54 -51zM522 909l53 54 l54 -54l-54 -53zM522 1341l53 56l54 -56l-54 -51zM739 41l54 55l53 -55l-53 -51zM739 909l54 54l53 -54l-53 -53zM739 1341l54 56l53 -56l-53 -51zM956 258l52 55l55 -55l-55 -51zM956 475l52 53l55 -53l-55 -51zM956 692l52 53l55 -53l-55 -53zM956 1559l52 53l55 -53 l-55 -52z" />
<glyph unicode="&#xf6;" d="M90 258l51 55l56 -55l-56 -51zM90 475l51 53l56 -53l-56 -51zM90 692l51 53l56 -53l-56 -53zM90 1341l51 56l56 -56l-56 -51zM90 1559l51 53l56 -53l-56 -52zM307 41l51 55l56 -55l-56 -51zM307 909l51 54l56 -54l-56 -53zM522 41l53 55l54 -55l-54 -51zM522 909l53 54 l54 -54l-54 -53zM739 41l54 55l53 -55l-53 -51zM739 909l54 54l53 -54l-53 -53zM956 258l52 55l55 -55l-55 -51zM956 475l52 53l55 -53l-55 -51zM956 692l52 53l55 -53l-55 -53zM956 1341l52 56l55 -56l-55 -51zM956 1559l52 53l55 -53l-55 -52z" />
<glyph unicode="&#xf7;" d="M14 485l52 54l55 -54l-55 -51zM231 485l52 54l55 -54l-55 -51zM446 51l54 55l53 -55l-53 -51zM446 485l54 54l53 -54l-53 -51zM446 920l54 53l53 -53l-53 -54zM664 485l53 54l53 -54l-53 -51zM881 485l51 54l55 -54l-55 -51z" />
<glyph unicode="&#xf8;" d="M14 268l52 56l55 -56l-55 -51zM14 485l52 54l55 -54l-55 -51zM14 702l52 54l55 -54l-55 -53zM16 -164l52 53l55 -53l-55 -53zM231 51l52 55l55 -55l-55 -51zM231 268l52 56l55 -56l-55 -51zM231 920l52 53l55 -53l-55 -54zM446 51l54 55l53 -55l-53 -51zM446 485l54 54 l53 -54l-53 -51zM446 920l54 53l53 -53l-53 -54zM664 51l53 55l53 -55l-53 -51zM664 702l53 54l53 -54l-53 -53zM664 920l53 53l53 -53l-53 -54zM881 268l51 56l55 -56l-55 -51zM881 485l51 54l55 -54l-55 -51zM881 702l51 54l55 -54l-55 -53zM881 1135l51 55l55 -55 l-55 -52z" />
<glyph unicode="&#xf9;" d="M90 258l51 55l56 -55l-56 -51zM90 475l51 53l56 -53l-56 -51zM90 692l51 53l56 -53l-56 -53zM90 909l51 54l56 -54l-56 -53zM301 1559l51 53l56 -53l-56 -52zM307 41l51 55l56 -55l-56 -51zM518 1341l51 56l54 -56l-54 -51zM522 41l53 55l54 -55l-54 -51zM733 1341l53 56 l54 -56l-54 -51zM739 258l54 55l53 -55l-53 -51zM956 41l52 55l55 -55l-55 -51zM956 258l52 55l55 -55l-55 -51zM956 475l52 53l55 -53l-55 -51zM956 692l52 53l55 -53l-55 -53zM956 909l52 54l55 -54l-55 -53z" />
<glyph unicode="&#xfa;" d="M90 258l51 55l56 -55l-56 -51zM90 475l51 53l56 -53l-56 -51zM90 692l51 53l56 -53l-56 -53zM90 909l51 54l56 -54l-56 -53zM307 41l51 55l56 -55l-56 -51zM307 1341l51 56l56 -56l-56 -51zM522 41l53 55l54 -55l-54 -51zM522 1341l53 56l54 -56l-54 -51zM739 258l54 55 l53 -55l-53 -51zM739 1559l54 53l53 -53l-53 -52zM956 41l52 55l55 -55l-55 -51zM956 258l52 55l55 -55l-55 -51zM956 475l52 53l55 -53l-55 -51zM956 692l52 53l55 -53l-55 -53zM956 909l52 54l55 -54l-55 -53z" />
<glyph unicode="&#xfb;" d="M90 258l51 55l56 -55l-56 -51zM90 475l51 53l56 -53l-56 -51zM90 692l51 53l56 -53l-56 -53zM90 909l51 54l56 -54l-56 -53zM307 41l51 55l56 -55l-56 -51zM307 1341l51 56l56 -56l-56 -51zM522 41l53 55l54 -55l-54 -51zM522 1559l53 53l54 -53l-54 -52zM739 258l54 55 l53 -55l-53 -51zM739 1341l54 56l53 -56l-53 -51zM956 41l52 55l55 -55l-55 -51zM956 258l52 55l55 -55l-55 -51zM956 475l52 53l55 -53l-55 -51zM956 692l52 53l55 -53l-55 -53zM956 909l52 54l55 -54l-55 -53z" />
<glyph unicode="&#xfc;" d="M90 258l51 55l56 -55l-56 -51zM90 475l51 53l56 -53l-56 -51zM90 692l51 53l56 -53l-56 -53zM90 909l51 54l56 -54l-56 -53zM90 1341l51 56l56 -56l-56 -51zM90 1559l51 53l56 -53l-56 -52zM307 41l51 55l56 -55l-56 -51zM522 41l53 55l54 -55l-54 -51zM739 258l54 55 l53 -55l-53 -51zM956 41l52 55l55 -55l-55 -51zM956 258l52 55l55 -55l-55 -51zM956 475l52 53l55 -53l-55 -51zM956 692l52 53l55 -53l-55 -53zM956 909l52 54l55 -54l-55 -53zM956 1341l52 56l55 -56l-55 -51zM956 1559l52 53l55 -53l-55 -52z" />
<glyph unicode="&#xfd;" d="M90 692l51 53l56 -53l-56 -53zM90 909l51 54l56 -54l-56 -53zM307 475l51 53l56 -53l-56 -51zM307 1341l51 56l56 -56l-56 -51zM522 41l53 55l54 -55l-54 -51zM522 258l53 55l54 -55l-54 -51zM522 1341l53 56l54 -56l-54 -51zM739 475l54 53l53 -53l-53 -51zM739 1559 l54 53l53 -53l-53 -52zM956 692l52 53l55 -53l-55 -53zM956 909l52 54l55 -54l-55 -53z" />
<glyph unicode="&#xfe;" d="M14 51l52 55l55 -55l-55 -51zM14 268l52 56l55 -56l-55 -51zM14 485l52 54l55 -54l-55 -51zM14 702l52 54l55 -54l-55 -53zM14 920l52 53l55 -53l-55 -54zM231 268l52 56l55 -56l-55 -51zM231 702l52 54l55 -54l-55 -53zM446 268l54 56l53 -56l-53 -51zM446 702l54 54 l53 -54l-53 -53zM664 268l53 56l53 -56l-53 -51zM664 702l53 54l53 -54l-53 -53zM881 485l51 54l55 -54l-55 -51z" />
<glyph unicode="&#xff;" d="M90 692l51 53l56 -53l-56 -53zM90 909l51 54l56 -54l-56 -53zM90 1341l51 56l56 -56l-56 -51zM90 1559l51 53l56 -53l-56 -52zM307 475l51 53l56 -53l-56 -51zM522 41l53 55l54 -55l-54 -51zM522 258l53 55l54 -55l-54 -51zM739 475l54 53l53 -53l-53 -51zM956 692l52 53 l55 -53l-55 -53zM956 909l52 54l55 -54l-55 -53zM956 1341l52 56l55 -56l-55 -51zM956 1559l52 53l55 -53l-55 -52z" />
<glyph unicode="&#x152;" d="M18 264l52 53l53 -53l-53 -51zM18 477l52 53l53 -53l-53 -51zM18 688l52 53l53 -53l-53 -49zM231 51l52 53l53 -53l-53 -51zM231 901l52 53l53 -53l-53 -51zM444 51l52 53l53 -53l-53 -51zM444 264l52 53l53 -53l-53 -51zM444 477l52 53l53 -53l-53 -51zM444 688l52 53 l53 -53l-53 -49zM444 901l52 53l53 -53l-53 -51zM657 51l50 53l53 -53l-53 -51zM657 477l50 53l53 -53l-53 -51zM657 901l50 53l53 -53l-53 -51zM868 51l52 53l53 -53l-53 -51zM868 901l52 53l53 -53l-53 -51z" />
<glyph unicode="&#x153;" d="M14 268l52 56l55 -56l-55 -51zM14 485l52 54l55 -54l-55 -51zM14 702l52 54l55 -54l-55 -53zM231 51l52 55l55 -55l-55 -51zM231 920l52 53l55 -53l-55 -54zM446 268l54 56l53 -56l-53 -51zM446 485l54 54l53 -54l-53 -51zM446 702l54 54l53 -54l-53 -53zM664 51l53 55 l53 -55l-53 -51zM664 485l53 54l53 -54l-53 -51zM664 920l53 53l53 -53l-53 -54zM881 51l51 55l55 -55l-55 -51zM881 485l51 54l55 -54l-55 -51zM881 702l51 54l55 -54l-55 -53z" />
<glyph unicode="&#x178;" d="M90 1341l51 56l56 -56l-56 -51zM90 1559l51 53l56 -53l-56 -52zM94 678l51 53l54 -53l-54 -49zM94 891l51 53l54 -53l-54 -51zM307 467l51 53l54 -53l-54 -51zM520 41l51 53l54 -53l-54 -51zM520 254l51 53l54 -53l-54 -51zM733 467l49 53l54 -53l-54 -51zM944 678l51 53 l54 -53l-54 -49zM944 891l51 53l54 -53l-54 -51zM956 1341l52 56l55 -56l-55 -51zM956 1559l52 53l55 -53l-55 -52z" />
<glyph unicode="&#x2c6;" d="M231 1352l52 55l55 -55l-55 -52zM446 1569l54 53l53 -53l-53 -51zM664 1352l53 55l53 -55l-53 -52z" />
<glyph unicode="&#x2dc;" d="M14 1352l52 55l55 -55l-55 -52zM231 1569l52 53l55 -53l-55 -51zM446 1352l54 55l53 -55l-53 -52zM664 1352l53 55l53 -55l-53 -52zM881 1569l51 53l55 -53l-55 -51z" />
<glyph unicode="&#x2000;" horiz-adv-x="913" />
<glyph unicode="&#x2001;" horiz-adv-x="1828" />
<glyph unicode="&#x2002;" horiz-adv-x="913" />
<glyph unicode="&#x2003;" horiz-adv-x="1828" />
<glyph unicode="&#x2004;" horiz-adv-x="608" />
<glyph unicode="&#x2005;" horiz-adv-x="456" />
<glyph unicode="&#x2006;" horiz-adv-x="303" />
<glyph unicode="&#x2007;" horiz-adv-x="303" />
<glyph unicode="&#x2008;" horiz-adv-x="227" />
<glyph unicode="&#x2009;" horiz-adv-x="364" />
<glyph unicode="&#x200a;" horiz-adv-x="100" />
<glyph unicode="&#x2010;" d="M231 485l52 54l55 -54l-55 -51zM446 485l54 54l53 -54l-53 -51zM664 485l53 54l53 -54l-53 -51z" />
<glyph unicode="&#x2011;" d="M231 485l52 54l55 -54l-55 -51zM446 485l54 54l53 -54l-53 -51zM664 485l53 54l53 -54l-53 -51z" />
<glyph unicode="&#x2012;" d="M231 485l52 54l55 -54l-55 -51zM446 485l54 54l53 -54l-53 -51zM664 485l53 54l53 -54l-53 -51z" />
<glyph unicode="&#x2013;" d="M231 485l52 54l55 -54l-55 -51zM446 485l54 54l53 -54l-53 -51zM664 485l53 54l53 -54l-53 -51z" />
<glyph unicode="&#x2014;" d="M14 485l52 54l55 -54l-55 -51zM231 485l52 54l55 -54l-55 -51zM446 485l54 54l53 -54l-53 -51zM664 485l53 54l53 -54l-53 -51zM881 485l51 54l55 -54l-55 -51z" />
<glyph unicode="&#x2018;" d="M444 702l52 54l55 -54l-55 -53zM444 920l52 53l55 -53l-55 -54zM662 1135l51 55l55 -55l-55 -52z" />
<glyph unicode="&#x2019;" d="M444 702l52 54l55 -54l-55 -53zM662 920l51 53l55 -53l-55 -54zM662 1135l51 55l55 -55l-55 -52z" />
<glyph unicode="&#x201a;" d="M444 -164l52 53l55 -53l-55 -53zM662 51l51 55l55 -55l-55 -51zM662 268l51 56l55 -56l-55 -51z" />
<glyph unicode="&#x201c;" d="M227 702l54 54l53 -54l-53 -53zM227 920l54 53l53 -53l-53 -54zM444 1135l52 55l55 -55l-55 -52zM662 702l51 54l55 -54l-55 -53zM662 920l51 53l55 -53l-55 -54zM879 1135l51 55l53 -55l-53 -52z" />
<glyph unicode="&#x201d;" d="M227 702l54 54l53 -54l-53 -53zM444 920l52 53l55 -53l-55 -54zM444 1135l52 55l55 -55l-55 -52zM662 702l51 54l55 -54l-55 -53zM879 920l51 53l53 -53l-53 -54zM879 1135l51 55l53 -55l-53 -52z" />
<glyph unicode="&#x201e;" d="M227 -164l54 53l53 -53l-53 -53zM444 51l52 55l55 -55l-55 -51zM444 268l52 56l55 -56l-55 -51zM662 -164l51 53l55 -53l-55 -53zM879 51l51 55l53 -55l-53 -51zM879 268l51 56l53 -56l-53 -51z" />
<glyph unicode="&#x2022;" d="M20 485l52 54l55 -54l-55 -51zM20 702l52 54l55 -54l-55 -53zM20 920l52 53l55 -53l-55 -54zM238 485l51 54l53 -54l-53 -51zM238 702l51 54l53 -54l-53 -53zM238 920l51 53l53 -53l-53 -54zM453 485l53 54l53 -54l-53 -51zM453 702l53 54l53 -54l-53 -53zM453 920l53 53 l53 -53l-53 -54z" />
<glyph unicode="&#x2026;" d="M14 51l52 55l55 -55l-55 -51zM14 268l52 56l55 -56l-55 -51zM446 51l54 55l53 -55l-53 -51zM446 268l54 56l53 -56l-53 -51zM881 51l51 55l55 -55l-55 -51zM881 268l51 56l55 -56l-55 -51z" />
<glyph unicode="&#x202f;" horiz-adv-x="364" />
<glyph unicode="&#x2039;" d="M231 485l52 54l55 -54l-55 -51zM446 268l54 56l53 -56l-53 -51zM446 702l54 54l53 -54l-53 -53zM664 51l53 55l53 -55l-53 -51zM664 920l53 53l53 -53l-53 -54z" />
<glyph unicode="&#x203a;" d="M442 51l52 55l53 -55l-53 -51zM442 920l52 53l53 -53l-53 -54zM657 268l54 56l53 -56l-53 -51zM657 702l54 54l53 -54l-53 -53zM874 485l54 54l53 -54l-53 -51z" />
<glyph unicode="&#x205f;" horiz-adv-x="456" />
<glyph unicode="&#x20ac;" d="M14 485l52 54l55 -54l-55 -51zM231 268l52 56l55 -56l-55 -51zM231 485l52 54l55 -54l-55 -51zM231 702l52 54l55 -54l-55 -53zM446 51l54 55l53 -55l-53 -51zM446 485l54 54l53 -54l-53 -51zM446 920l54 53l53 -53l-53 -54zM664 51l53 55l53 -55l-53 -51zM664 485l53 54 l53 -54l-53 -51zM664 920l53 53l53 -53l-53 -54zM881 51l51 55l55 -55l-55 -51zM881 920l51 53l55 -53l-55 -54z" />
<glyph unicode="&#x2122;" d="M10 1135l53 55l54 -55l-54 -52zM227 702l54 54l53 -54l-53 -53zM227 920l54 53l53 -53l-53 -54zM227 1135l54 55l53 -55l-53 -52zM444 1135l52 55l55 -55l-55 -52zM662 702l51 54l55 -54l-55 -53zM662 920l51 53l55 -53l-55 -54zM662 1135l51 55l55 -55l-55 -52zM879 920 l51 53l53 -53l-53 -54zM1094 702l53 54l53 -54l-53 -53zM1094 920l53 53l53 -53l-53 -54zM1094 1135l53 55l53 -55l-53 -52z" />
<glyph unicode="&#xe000;" horiz-adv-x="975" d="M0 975h975v-975h-975v975z" />
<glyph unicode="&#xfb01;" horiz-adv-x="2457" d="M1243 51l52 55l55 -55l-55 -51zM1243 920l52 53l55 -53l-55 -54zM1460 51l52 55l55 -55l-55 -51zM1460 920l52 53l55 -53l-55 -54zM1675 51l54 55l53 -55l-53 -51zM1675 268l54 56l53 -56l-53 -51zM1675 485l54 54l53 -54l-53 -51zM1675 702l54 54l53 -54l-53 -53z M1675 920l54 53l53 -53l-53 -54zM1675 1352l54 55l53 -55l-53 -52zM1893 51l53 55l53 -55l-53 -51zM2110 51l51 55l55 -55l-55 -51zM14 51l52 55l55 -55l-55 -51zM14 268l52 56l55 -56l-55 -51zM14 485l52 54l55 -54l-55 -51zM14 702l52 54l55 -54l-55 -53zM14 920l52 53 l55 -53l-55 -54zM231 485l52 54l55 -54l-55 -51zM231 920l52 53l55 -53l-55 -54zM446 485l54 54l53 -54l-53 -51zM446 920l54 53l53 -53l-53 -54zM664 485l53 54l53 -54l-53 -51zM664 920l53 53l53 -53l-53 -54zM881 920l51 53l55 -53l-55 -54z" />
<glyph unicode="&#xfb02;" horiz-adv-x="2457" d="M1243 51l52 55l55 -55l-55 -51zM1243 268l52 56l55 -56l-55 -51zM1243 485l52 54l55 -54l-55 -51zM1243 702l52 54l55 -54l-55 -53zM1243 920l52 53l55 -53l-55 -54zM1460 51l52 55l55 -55l-55 -51zM1675 51l54 55l53 -55l-53 -51zM1893 51l53 55l53 -55l-53 -51z M2110 51l51 55l55 -55l-55 -51zM14 51l52 55l55 -55l-55 -51zM14 268l52 56l55 -56l-55 -51zM14 485l52 54l55 -54l-55 -51zM14 702l52 54l55 -54l-55 -53zM14 920l52 53l55 -53l-55 -54zM231 485l52 54l55 -54l-55 -51zM231 920l52 53l55 -53l-55 -54zM446 485l54 54 l53 -54l-53 -51zM446 920l54 53l53 -53l-53 -54zM664 485l53 54l53 -54l-53 -51zM664 920l53 53l53 -53l-53 -54zM881 920l51 53l55 -53l-55 -54z" />
<glyph unicode="&#xfb03;" horiz-adv-x="3686" d="M2472 51l52 55l55 -55l-55 -51zM2472 920l52 53l55 -53l-55 -54zM2689 51l52 55l55 -55l-55 -51zM2689 920l52 53l55 -53l-55 -54zM2904 51l54 55l53 -55l-53 -51zM2904 268l54 56l53 -56l-53 -51zM2904 485l54 54l53 -54l-53 -51zM2904 702l54 54l53 -54l-53 -53z M2904 920l54 53l53 -53l-53 -54zM2904 1352l54 55l53 -55l-53 -52zM3122 51l53 55l53 -55l-53 -51zM3339 51l51 55l55 -55l-55 -51zM1243 51l52 55l55 -55l-55 -51zM1243 268l52 56l55 -56l-55 -51zM1243 485l52 54l55 -54l-55 -51zM1243 702l52 54l55 -54l-55 -53z M1243 920l52 53l55 -53l-55 -54zM1460 485l52 54l55 -54l-55 -51zM1460 920l52 53l55 -53l-55 -54zM1675 485l54 54l53 -54l-53 -51zM1675 920l54 53l53 -53l-53 -54zM1893 485l53 54l53 -54l-53 -51zM1893 920l53 53l53 -53l-53 -54zM2110 920l51 53l55 -53l-55 -54zM14 51 l52 55l55 -55l-55 -51zM14 268l52 56l55 -56l-55 -51zM14 485l52 54l55 -54l-55 -51zM14 702l52 54l55 -54l-55 -53zM14 920l52 53l55 -53l-55 -54zM231 485l52 54l55 -54l-55 -51zM231 920l52 53l55 -53l-55 -54zM446 485l54 54l53 -54l-53 -51zM446 920l54 53l53 -53 l-53 -54zM664 485l53 54l53 -54l-53 -51zM664 920l53 53l53 -53l-53 -54zM881 920l51 53l55 -53l-55 -54z" />
<glyph unicode="&#xfb04;" horiz-adv-x="3686" d="M2472 51l52 55l55 -55l-55 -51zM2472 268l52 56l55 -56l-55 -51zM2472 485l52 54l55 -54l-55 -51zM2472 702l52 54l55 -54l-55 -53zM2472 920l52 53l55 -53l-55 -54zM2689 51l52 55l55 -55l-55 -51zM2904 51l54 55l53 -55l-53 -51zM3122 51l53 55l53 -55l-53 -51z M3339 51l51 55l55 -55l-55 -51zM1243 51l52 55l55 -55l-55 -51zM1243 268l52 56l55 -56l-55 -51zM1243 485l52 54l55 -54l-55 -51zM1243 702l52 54l55 -54l-55 -53zM1243 920l52 53l55 -53l-55 -54zM1460 485l52 54l55 -54l-55 -51zM1460 920l52 53l55 -53l-55 -54z M1675 485l54 54l53 -54l-53 -51zM1675 920l54 53l53 -53l-53 -54zM1893 485l53 54l53 -54l-53 -51zM1893 920l53 53l53 -53l-53 -54zM2110 920l51 53l55 -53l-55 -54zM14 51l52 55l55 -55l-55 -51zM14 268l52 56l55 -56l-55 -51zM14 485l52 54l55 -54l-55 -51zM14 702l52 54 l55 -54l-55 -53zM14 920l52 53l55 -53l-55 -54zM231 485l52 54l55 -54l-55 -51zM231 920l52 53l55 -53l-55 -54zM446 485l54 54l53 -54l-53 -51zM446 920l54 53l53 -53l-53 -54zM664 485l53 54l53 -54l-53 -51zM664 920l53 53l53 -53l-53 -54zM881 920l51 53l55 -53l-55 -54 z" />
</font>
</defs>
</svg>
